SeanSans-CompressedSemibold.ufo
<glyph name="exclam" format="1">
  <advance width="246"/>
  <unicode hex="0021"/>
  <outline>
    <contour>
      <point x="175" y="229" type="line"/>
      <point x="181" y="722" type="line"/>
      <point x="65" y="722" type="line"/>
      <point x="72" y="229" type="line"/>
    </contour>
    <contour>
      <point x="175" y="44" type="curve"/>
      <point x="175" y="78"/>
      <point x="153" y="96"/>
      <point x="122" y="96" type="curve"/>
      <point x="91" y="96"/>
      <point x="71" y="77"/>
      <point x="71" y="44" type="curve"/>
      <point x="176" y="44"/>
      <point x="70" y="44"/>
      <point x="175" y="44" type="curve"/>
      <point x="175" y="9"/>
      <point x="153" y="-7"/>
      <point x="122" y="-7" type="curve"/>
      <point x="90" y="-7"/>
      <point x="71" y="10"/>
      <point x="71" y="44" type="curve"/>
      <point x="176" y="44"/>
      <point x="70" y="44"/>
    </contour>
  </outline>
</glyph>
<glyph name="quotedbl" format="1">
  <advance width="360"/>
  <unicode hex="0022"/>
  <outline>
    <contour>
      <point x="144" y="624" type="line"/>
      <point x="151" y="829" type="line"/>
      <point x="52" y="829" type="line"/>
      <point x="60" y="624" type="line"/>
    </contour>
    <contour>
      <point x="300" y="624" type="line"/>
      <point x="308" y="829" type="line"/>
      <point x="209" y="829" type="line"/>
      <point x="216" y="624" type="line"/>
    </contour>
  </outline>
</glyph>
<glyph name="numbersign" format="1">
  <advance width="495"/>
  <unicode hex="0023"/>
  <outline>
    <contour>
      <point x="38" y="228" type="curve"/>
      <point x="397" y="228" type="curve"/>
      <point x="415" y="307" type="curve"/>
      <point x="56" y="307" type="curve"/>
    </contour>
    <contour>
      <point x="81" y="452" type="curve"/>
      <point x="441" y="452" type="curve"/>
      <point x="459" y="530" type="curve"/>
      <point x="98" y="530" type="curve"/>
    </contour>
    <contour>
      <point x="315" y="39" type="curve"/>
      <point x="455" y="722" type="curve"/>
      <point x="356" y="722" type="curve"/>
      <point x="216" y="39" type="curve"/>
    </contour>
    <contour>
      <point x="139" y="46" type="curve"/>
      <point x="277" y="722" type="curve"/>
      <point x="178" y="722" type="curve"/>
      <point x="44" y="46" type="curve"/>
    </contour>
  </outline>
</glyph>
<glyph name="dollar" format="1">
  <advance width="421"/>
  <unicode hex="0024"/>
  <outline>
    <contour>
      <point x="246" y="-43" type="curve"/>
      <point x="246" y="-11"/>
      <point x="246" y="52"/>
      <point x="246" y="83" type="curve"/>
      <point x="147" y="83"/>
      <point x="246" y="83"/>
      <point x="147" y="83" type="curve"/>
      <point x="147" y="52"/>
      <point x="147" y="-11"/>
      <point x="147" y="-43" type="curve"/>
      <point x="246" y="-43"/>
      <point x="147" y="-43"/>
    </contour>
    <contour>
      <point x="253" y="646" type="curve"/>
      <point x="253" y="678"/>
      <point x="253" y="741"/>
      <point x="253" y="773" type="curve"/>
      <point x="154" y="773"/>
      <point x="253" y="773"/>
      <point x="154" y="773" type="curve"/>
      <point x="154" y="741"/>
      <point x="154" y="678"/>
      <point x="154" y="646" type="curve"/>
      <point x="253" y="646"/>
      <point x="154" y="646"/>
    </contour>
    <contour>
      <point x="47" y="94" type="curve"/>
      <point x="85" y="67"/>
      <point x="134" y="44"/>
      <point x="192" y="44" type="curve"/>
      <point x="305" y="44"/>
      <point x="384" y="116"/>
      <point x="384" y="213" type="curve"/>
      <point x="384" y="299"/>
      <point x="318" y="359"/>
      <point x="234" y="409" type="curve"/>
      <point x="181" y="442"/>
      <point x="143" y="471"/>
      <point x="143" y="528" type="curve"/>
      <point x="143" y="569"/>
      <point x="163" y="608"/>
      <point x="205" y="608" type="curve"/>
      <point x="245" y="608"/>
      <point x="272" y="592"/>
      <point x="302" y="568" type="curve"/>
      <point x="352" y="634"/>
      <point x="302" y="568"/>
      <point x="352" y="634" type="curve"/>
      <point x="307" y="668"/>
      <point x="267" y="686"/>
      <point x="209" y="686" type="curve"/>
      <point x="108" y="686"/>
      <point x="44" y="618"/>
      <point x="44" y="528" type="curve"/>
      <point x="44" y="443"/>
      <point x="95" y="386"/>
      <point x="176" y="338" type="curve"/>
      <point x="234" y="305"/>
      <point x="285" y="270"/>
      <point x="285" y="209" type="curve"/>
      <point x="285" y="160"/>
      <point x="252" y="122"/>
      <point x="201" y="122" type="curve"/>
      <point x="160" y="122"/>
      <point x="127" y="145"/>
      <point x="103" y="163" type="curve"/>
      <point x="47" y="94"/>
      <point x="103" y="163"/>
    </contour>
  </outline>
</glyph>
<glyph name="percent" format="1">
  <advance width="827"/>
  <unicode hex="0025"/>
  <outline>
    <contour>
      <point x="325" y="-56" type="line"/>
      <point x="600" y="725" type="line"/>
      <point x="508" y="725" type="line"/>
      <point x="233" y="-56" type="line"/>
    </contour>
    <contour>
      <point x="113" y="517" type="curve"/>
      <point x="113" y="593"/>
      <point x="121" y="660"/>
      <point x="185" y="660" type="curve"/>
      <point x="250" y="661"/>
      <point x="258" y="594"/>
      <point x="258" y="516" type="curve"/>
      <point x="258" y="440"/>
      <point x="254" y="371"/>
      <point x="190" y="371" type="curve"/>
      <point x="123" y="371"/>
      <point x="113" y="438"/>
      <point x="113" y="517" type="curve"/>
      <point x="83" y="517"/>
      <point x="62" y="517"/>
      <point x="31" y="517" type="curve"/>
      <point x="31" y="395"/>
      <point x="75" y="301"/>
      <point x="186" y="301" type="curve"/>
      <point x="298" y="301"/>
      <point x="344" y="396"/>
      <point x="344" y="520" type="curve"/>
      <point x="344" y="640"/>
      <point x="298" y="730"/>
      <point x="189" y="729" type="curve"/>
      <point x="78" y="729"/>
      <point x="31" y="638"/>
      <point x="31" y="517" type="curve"/>
      <point x="62" y="517"/>
      <point x="83" y="517"/>
    </contour>
    <contour>
      <point x="565" y="159" type="curve"/>
      <point x="565" y="235"/>
      <point x="573" y="301"/>
      <point x="637" y="301" type="curve"/>
      <point x="702" y="302"/>
      <point x="711" y="235"/>
      <point x="711" y="158" type="curve"/>
      <point x="711" y="81"/>
      <point x="707" y="12"/>
      <point x="642" y="12" type="curve"/>
      <point x="576" y="12"/>
      <point x="565" y="80"/>
      <point x="565" y="159" type="curve"/>
      <point x="535" y="159"/>
      <point x="514" y="159"/>
      <point x="484" y="159" type="curve"/>
      <point x="484" y="37"/>
      <point x="528" y="-57"/>
      <point x="638" y="-57" type="curve"/>
      <point x="751" y="-57"/>
      <point x="796" y="38"/>
      <point x="796" y="161" type="curve"/>
      <point x="796" y="281"/>
      <point x="751" y="372"/>
      <point x="642" y="371" type="curve"/>
      <point x="531" y="371"/>
      <point x="484" y="280"/>
      <point x="484" y="159" type="curve"/>
      <point x="514" y="159"/>
      <point x="535" y="159"/>
    </contour>
  </outline>
</glyph>
<glyph name="ampersand" format="1">
  <advance width="520"/>
  <unicode hex="0026"/>
  <outline>
    <contour>
      <point x="494" y="26" type="line"/>
      <point x="426" y="131"/>
      <point x="350" y="260"/>
      <point x="278" y="367" type="curve"/>
      <point x="239" y="429"/>
      <point x="188" y="485"/>
      <point x="188" y="559" type="curve"/>
      <point x="188" y="603"/>
      <point x="193" y="649"/>
      <point x="228" y="649" type="curve"/>
      <point x="264" y="649"/>
      <point x="270" y="606"/>
      <point x="270" y="561" type="curve"/>
      <point x="270" y="497"/>
      <point x="241" y="450"/>
      <point x="190" y="409" type="curve"/>
      <point x="114" y="347"/>
      <point x="52" y="289"/>
      <point x="52" y="192" type="curve"/>
      <point x="52" y="81"/>
      <point x="116" y="-5"/>
      <point x="222" y="-5" type="curve"/>
      <point x="382" y="-5"/>
      <point x="439" y="145"/>
      <point x="474" y="314" type="curve"/>
      <point x="388" y="334"/>
      <point x="474" y="314"/>
      <point x="388" y="334" type="curve"/>
      <point x="362" y="205"/>
      <point x="342" y="74"/>
      <point x="227" y="74" type="curve"/>
      <point x="173" y="74"/>
      <point x="152" y="130"/>
      <point x="152" y="192" type="curve"/>
      <point x="152" y="257"/>
      <point x="183" y="303"/>
      <point x="233" y="345" type="curve"/>
      <point x="309" y="407"/>
      <point x="369" y="466"/>
      <point x="369" y="562" type="curve"/>
      <point x="369" y="656"/>
      <point x="319" y="727"/>
      <point x="232" y="727" type="curve"/>
      <point x="143" y="727"/>
      <point x="96" y="654"/>
      <point x="96" y="559" type="curve"/>
      <point x="96" y="465"/>
      <point x="153" y="398"/>
      <point x="206" y="320" type="curve"/>
      <point x="274" y="217"/>
      <point x="354" y="82"/>
      <point x="418" y="-17" type="curve"/>
    </contour>
  </outline>
</glyph>
<glyph name="quotesingle" format="1">
  <advance width="204"/>
  <unicode hex="0027"/>
  <outline>
    <contour>
      <point x="144" y="624" type="line"/>
      <point x="151" y="829" type="line"/>
      <point x="52" y="829" type="line"/>
      <point x="60" y="624" type="line"/>
    </contour>
  </outline>
</glyph>
<glyph name="parenleft" format="1">
  <advance width="281"/>
  <unicode hex="0028"/>
  <outline>
    <contour>
      <point x="279" y="-216" type="curve"/>
      <point x="160" y="-39"/>
      <point x="139" y="116"/>
      <point x="139" y="326" type="curve"/>
      <point x="139" y="537"/>
      <point x="161" y="692"/>
      <point x="278" y="871" type="curve"/>
      <point x="218" y="921"/>
      <point x="278" y="871"/>
      <point x="218" y="921" type="curve"/>
      <point x="87" y="725"/>
      <point x="42" y="561"/>
      <point x="42" y="326" type="curve"/>
      <point x="42" y="91"/>
      <point x="88" y="-73"/>
      <point x="219" y="-271" type="curve"/>
      <point x="279" y="-216"/>
      <point x="219" y="-271"/>
    </contour>
  </outline>
</glyph>
<glyph name="parenright" format="1">
  <advance width="288"/>
  <unicode hex="0029"/>
  <outline>
    <contour>
      <point x="59" y="-285" type="curve"/>
      <point x="192" y="-80"/>
      <point x="246" y="86"/>
      <point x="246" y="328" type="curve"/>
      <point x="246" y="565"/>
      <point x="199" y="728"/>
      <point x="62" y="923" type="curve"/>
      <point x="3" y="868"/>
      <point x="62" y="923"/>
      <point x="3" y="868" type="curve"/>
      <point x="123" y="691"/>
      <point x="148" y="537"/>
      <point x="148" y="325" type="curve"/>
      <point x="148" y="108"/>
      <point x="115" y="-48"/>
      <point x="0" y="-234" type="curve"/>
      <point x="59" y="-285"/>
      <point x="0" y="-234"/>
    </contour>
  </outline>
</glyph>
<glyph name="asterisk" format="1">
  <advance width="566"/>
  <unicode hex="002A"/>
  <outline>
    <contour>
      <point x="314" y="557" type="line"/>
      <point x="319" y="763" type="line"/>
      <point x="247" y="763" type="line"/>
      <point x="252" y="557" type="line"/>
    </contour>
    <contour>
      <point x="318" y="508" type="line"/>
      <point x="514" y="571" type="line"/>
      <point x="490" y="639" type="line"/>
      <point x="298" y="566" type="line"/>
    </contour>
    <contour>
      <point x="275" y="488" type="line"/>
      <point x="399" y="323" type="line"/>
      <point x="454" y="370" type="line"/>
      <point x="322" y="526" type="line"/>
    </contour>
    <contour>
      <point x="242" y="528" type="line"/>
      <point x="109" y="370" type="line"/>
      <point x="165" y="325" type="line"/>
      <point x="290" y="489" type="line"/>
    </contour>
    <contour>
      <point x="267" y="567" type="line"/>
      <point x="74" y="640" type="line"/>
      <point x="50" y="572" type="line"/>
      <point x="246" y="509" type="line"/>
    </contour>
  </outline>
</glyph>
<glyph name="plus" format="1">
  <advance width="567"/>
  <unicode hex="002B"/>
  <outline>
    <contour>
      <point x="38" y="271" type="curve"/>
      <point x="529" y="271" type="line"/>
      <point x="529" y="356"/>
      <point x="529" y="271"/>
      <point x="529" y="356" type="curve"/>
      <point x="38" y="356" type="line"/>
      <point x="38" y="271"/>
      <point x="38" y="356"/>
    </contour>
    <contour>
      <point x="329" y="48" type="curve"/>
      <point x="329" y="581" type="line"/>
      <point x="230" y="581"/>
      <point x="336" y="581"/>
      <point x="237" y="581" type="curve"/>
      <point x="237" y="48" type="line"/>
      <point x="336" y="48"/>
      <point x="230" y="48"/>
    </contour>
  </outline>
</glyph>
<glyph name="comma" format="1">
  <advance width="178"/>
  <unicode hex="002C"/>
  <outline>
    <contour>
      <point x="19" y="-111" type="line"/>
      <point x="87" y="-103"/>
      <point x="132" y="-49"/>
      <point x="132" y="36" type="curve"/>
      <point x="132" y="101"/>
      <point x="110" y="135"/>
      <point x="76" y="135" type="curve"/>
      <point x="44" y="135"/>
      <point x="24" y="116"/>
      <point x="24" y="82" type="curve"/>
      <point x="24" y="56"/>
      <point x="36" y="34"/>
      <point x="64" y="32" type="curve"/>
      <point x="64" y="9"/>
      <point x="61" y="-40"/>
      <point x="13" y="-56" type="curve"/>
    </contour>
  </outline>
</glyph>
<glyph name="hyphen" format="1">
  <advance width="316"/>
  <unicode hex="002D"/>
  <outline>
    <contour>
      <point x="64" y="236" type="curve"/>
      <point x="127" y="236"/>
      <point x="190" y="236"/>
      <point x="252" y="236" type="curve"/>
      <point x="252" y="322"/>
      <point x="252" y="236"/>
      <point x="252" y="322" type="curve"/>
      <point x="190" y="322"/>
      <point x="127" y="322"/>
      <point x="64" y="322" type="curve"/>
      <point x="64" y="236"/>
      <point x="64" y="322"/>
    </contour>
  </outline>
</glyph>
<glyph name="period" format="1">
  <advance width="213"/>
  <unicode hex="002E"/>
  <outline>
    <contour>
      <point x="158" y="44" type="curve"/>
      <point x="158" y="78"/>
      <point x="136" y="96"/>
      <point x="106" y="96" type="curve"/>
      <point x="75" y="96"/>
      <point x="55" y="77"/>
      <point x="55" y="44" type="curve"/>
      <point x="160" y="44"/>
      <point x="54" y="44"/>
      <point x="158" y="44" type="curve"/>
      <point x="158" y="9"/>
      <point x="137" y="-7"/>
      <point x="106" y="-7" type="curve"/>
      <point x="74" y="-7"/>
      <point x="55" y="10"/>
      <point x="55" y="44" type="curve"/>
      <point x="160" y="44"/>
      <point x="54" y="44"/>
    </contour>
  </outline>
</glyph>
<glyph name="slash" format="1">
  <advance width="418"/>
  <unicode hex="002F"/>
  <outline>
    <contour>
      <point x="122" y="-33" type="curve"/>
      <point x="213" y="246"/>
      <point x="304" y="525"/>
      <point x="396" y="804" type="curve"/>
      <point x="297" y="804"/>
      <point x="396" y="804"/>
      <point x="297" y="804" type="curve"/>
      <point x="205" y="525"/>
      <point x="114" y="246"/>
      <point x="22" y="-33" type="curve"/>
      <point x="122" y="-33"/>
      <point x="22" y="-33"/>
    </contour>
  </outline>
</glyph>
<glyph name="zero" format="1">
  <advance width="527"/>
  <unicode hex="0030"/>
  <outline>
    <contour>
      <point x="149" y="360" type="curve"/>
      <point x="149" y="511"/>
      <point x="153" y="646"/>
      <point x="260" y="646" type="curve"/>
      <point x="373" y="646"/>
      <point x="379" y="513"/>
      <point x="379" y="363" type="curve"/>
      <point x="379" y="212"/>
      <point x="375" y="77"/>
      <point x="268" y="77" type="curve"/>
      <point x="158" y="77"/>
      <point x="149" y="210"/>
      <point x="149" y="360" type="curve"/>
      <point x="53" y="360"/>
      <point x="148" y="360"/>
      <point x="52" y="360" type="curve"/>
      <point x="52" y="158"/>
      <point x="94" y="-5"/>
      <point x="263" y="-5" type="curve"/>
      <point x="434" y="-5"/>
      <point x="475" y="159"/>
      <point x="475" y="363" type="curve"/>
      <point x="475" y="564"/>
      <point x="436" y="727"/>
      <point x="270" y="727" type="curve"/>
      <point x="98" y="727"/>
      <point x="52" y="564"/>
      <point x="52" y="360" type="curve"/>
      <point x="148" y="360"/>
      <point x="53" y="360"/>
    </contour>
  </outline>
</glyph>
<glyph name="one" format="1">
  <advance width="317"/>
  <unicode hex="0031"/>
  <outline>
    <contour>
      <point x="76" y="502" type="curve"/>
      <point x="222" y="672"/>
      <point x="76" y="502"/>
      <point x="222" y="672" type="curve"/>
      <point x="149" y="722"/>
      <point x="222" y="672"/>
      <point x="149" y="722" type="curve"/>
      <point x="13" y="562"/>
      <point x="149" y="722"/>
      <point x="13" y="562" type="curve"/>
      <point x="76" y="502"/>
      <point x="13" y="562"/>
    </contour>
    <contour>
      <point x="245" y="0" type="curve"/>
      <point x="245" y="241"/>
      <point x="245" y="481"/>
      <point x="245" y="722" type="curve"/>
      <point x="149" y="722"/>
      <point x="245" y="722"/>
      <point x="149" y="722" type="curve"/>
      <point x="149" y="481"/>
      <point x="149" y="241"/>
      <point x="149" y="0" type="curve"/>
      <point x="245" y="0"/>
      <point x="149" y="0"/>
    </contour>
  </outline>
</glyph>
<glyph name="two" format="1">
  <advance width="421"/>
  <unicode hex="0032"/>
  <outline>
    <contour>
      <point x="40" y="0" type="curve"/>
      <point x="174" y="0"/>
      <point x="290" y="0"/>
      <point x="377" y="0" type="curve"/>
      <point x="377" y="78"/>
      <point x="377" y="0"/>
      <point x="377" y="78" type="curve"/>
      <point x="274" y="78"/>
      <point x="144" y="79"/>
      <point x="40" y="79" type="curve"/>
      <point x="40" y="0"/>
      <point x="40" y="78"/>
    </contour>
    <contour>
      <point x="111" y="536" type="curve"/>
      <point x="134" y="593"/>
      <point x="149" y="646"/>
      <point x="205" y="646" type="curve"/>
      <point x="264" y="646"/>
      <point x="276" y="584"/>
      <point x="276" y="511" type="curve"/>
      <point x="276" y="410"/>
      <point x="228" y="326"/>
      <point x="181" y="265" type="curve"/>
      <point x="134" y="201"/>
      <point x="90" y="143"/>
      <point x="40" y="79" type="curve"/>
      <point x="43" y="0"/>
      <point x="40" y="78"/>
      <point x="43" y="0" type="curve"/>
      <point x="140" y="60"/>
      <point x="193" y="137"/>
      <point x="246" y="208" type="curve"/>
      <point x="312" y="290"/>
      <point x="372" y="387"/>
      <point x="372" y="515" type="curve"/>
      <point x="372" y="639"/>
      <point x="323" y="727"/>
      <point x="209" y="727" type="curve"/>
      <point x="119" y="727"/>
      <point x="68" y="662"/>
      <point x="40" y="575" type="curve"/>
      <point x="111" y="536"/>
      <point x="40" y="575"/>
    </contour>
  </outline>
</glyph>
<glyph name="three" format="1">
  <advance width="416"/>
  <unicode hex="0033"/>
  <outline>
    <contour>
      <point x="39" y="59" type="curve"/>
      <point x="86" y="20"/>
      <point x="120" y="-5"/>
      <point x="178" y="-5" type="curve"/>
      <point x="301" y="-5"/>
      <point x="367" y="75"/>
      <point x="367" y="202" type="curve"/>
      <point x="367" y="321"/>
      <point x="273" y="400"/>
      <point x="121" y="400" type="curve"/>
      <point x="121" y="339"/>
      <point x="121" y="395"/>
      <point x="121" y="334" type="curve"/>
      <point x="215" y="334"/>
      <point x="271" y="276"/>
      <point x="271" y="199" type="curve"/>
      <point x="271" y="131"/>
      <point x="240" y="77"/>
      <point x="182" y="77" type="curve"/>
      <point x="145" y="77"/>
      <point x="123" y="92"/>
      <point x="95" y="116" type="curve"/>
      <point x="39" y="59"/>
      <point x="95" y="116"/>
    </contour>
    <contour>
      <point x="107" y="587" type="curve"/>
      <point x="118" y="611"/>
      <point x="141" y="646"/>
      <point x="176" y="646" type="curve"/>
      <point x="230" y="646"/>
      <point x="250" y="597"/>
      <point x="250" y="534" type="curve"/>
      <point x="250" y="467"/>
      <point x="202" y="416"/>
      <point x="121" y="416" type="curve"/>
      <point x="121" y="354"/>
      <point x="121" y="411"/>
      <point x="121" y="350" type="curve"/>
      <point x="254" y="350"/>
      <point x="345" y="423"/>
      <point x="345" y="537" type="curve"/>
      <point x="345" y="650"/>
      <point x="290" y="727"/>
      <point x="185" y="727" type="curve"/>
      <point x="119" y="727"/>
      <point x="66" y="682"/>
      <point x="41" y="634" type="curve"/>
      <point x="107" y="587"/>
      <point x="41" y="634"/>
    </contour>
  </outline>
</glyph>
<glyph name="four" format="1">
  <advance width="431"/>
  <unicode hex="0034"/>
  <outline>
    <contour>
      <point x="60" y="260" type="line"/>
      <point x="305" y="709" type="line"/>
      <point x="221" y="705" type="line"/>
      <point x="15" y="326" type="line"/>
    </contour>
    <contour>
      <point x="396" y="326" type="line"/>
      <point x="15" y="326" type="line"/>
      <point x="16" y="240" type="line"/>
      <point x="396" y="240" type="line"/>
    </contour>
    <contour>
      <point x="320" y="0" type="line"/>
      <point x="320" y="705" type="line"/>
      <point x="223" y="705" type="line"/>
      <point x="223" y="0" type="line"/>
    </contour>
  </outline>
</glyph>
<glyph name="five" format="1">
  <advance width="407"/>
  <unicode hex="0035"/>
  <outline>
    <contour>
      <point x="60" y="722" type="curve"/>
      <point x="60" y="622"/>
      <point x="60" y="517"/>
      <point x="60" y="389" type="curve"/>
      <point x="155" y="357"/>
      <point x="60" y="389"/>
      <point x="154" y="357" type="curve"/>
      <point x="154" y="451"/>
      <point x="154" y="550"/>
      <point x="154" y="644" type="curve"/>
      <point x="60" y="722"/>
      <point x="154" y="644"/>
    </contour>
    <contour>
      <point x="154" y="357" type="curve"/>
      <point x="161" y="365"/>
      <point x="176" y="376"/>
      <point x="197" y="376" type="curve"/>
      <point x="258" y="376"/>
      <point x="268" y="307"/>
      <point x="268" y="234" type="curve"/>
      <point x="268" y="156"/>
      <point x="248" y="76"/>
      <point x="184" y="76" type="curve"/>
      <point x="147" y="76"/>
      <point x="124" y="89"/>
      <point x="96" y="113" type="curve"/>
      <point x="44" y="43"/>
      <point x="96" y="113"/>
      <point x="44" y="43" type="curve"/>
      <point x="79" y="13"/>
      <point x="133" y="-5"/>
      <point x="191" y="-5" type="curve"/>
      <point x="302" y="-5"/>
      <point x="364" y="104"/>
      <point x="364" y="235" type="curve"/>
      <point x="364" y="357"/>
      <point x="319" y="460"/>
      <point x="213" y="460" type="curve"/>
      <point x="169" y="460"/>
      <point x="132" y="444"/>
      <point x="87" y="388" type="curve"/>
      <point x="157" y="364"/>
      <point x="84" y="381"/>
    </contour>
    <contour>
      <point x="342" y="722" type="curve"/>
      <point x="258" y="722"/>
      <point x="146" y="722"/>
      <point x="60" y="722" type="curve"/>
      <point x="154" y="644"/>
      <point x="60" y="722"/>
      <point x="154" y="644" type="curve"/>
      <point x="209" y="644"/>
      <point x="289" y="644"/>
      <point x="342" y="644" type="curve"/>
      <point x="342" y="722"/>
      <point x="342" y="644"/>
    </contour>
  </outline>
</glyph>
<glyph name="six" format="1">
  <advance width="452"/>
  <unicode hex="0036"/>
  <outline>
    <contour>
      <point x="129" y="215" type="curve"/>
      <point x="138" y="283"/>
      <point x="168" y="354"/>
      <point x="233" y="354" type="curve"/>
      <point x="297" y="354"/>
      <point x="311" y="291"/>
      <point x="311" y="217" type="curve"/>
      <point x="311" y="151"/>
      <point x="296" y="83"/>
      <point x="236" y="83" type="curve"/>
      <point x="161" y="83"/>
      <point x="143" y="161"/>
      <point x="143" y="253" type="curve"/>
      <point x="143" y="443"/>
      <point x="215" y="586"/>
      <point x="391" y="658" type="curve"/>
      <point x="362" y="730"/>
      <point x="391" y="658"/>
      <point x="362" y="730" type="curve"/>
      <point x="149" y="647"/>
      <point x="48" y="483"/>
      <point x="48" y="249" type="curve"/>
      <point x="48" y="103"/>
      <point x="103" y="-10"/>
      <point x="235" y="-10" type="curve"/>
      <point x="355" y="-10"/>
      <point x="410" y="88"/>
      <point x="410" y="218" type="curve"/>
      <point x="410" y="343"/>
      <point x="360" y="436"/>
      <point x="252" y="436" type="curve"/>
      <point x="139" y="436"/>
      <point x="83" y="319"/>
      <point x="84" y="234" type="curve"/>
      <point x="128" y="215"/>
      <point x="84" y="234"/>
    </contour>
  </outline>
</glyph>
<glyph name="eight" format="1">
  <advance width="451"/>
  <unicode hex="0038"/>
  <outline>
    <contour>
      <point x="64" y="547" type="curve"/>
      <point x="64" y="451"/>
      <point x="117" y="403"/>
      <point x="196" y="349" type="curve"/>
      <point x="261" y="303"/>
      <point x="302" y="258"/>
      <point x="302" y="185" type="curve"/>
      <point x="302" y="125"/>
      <point x="282" y="78"/>
      <point x="226" y="78" type="curve"/>
      <point x="169" y="78"/>
      <point x="148" y="124"/>
      <point x="148" y="185" type="curve"/>
      <point x="148" y="260"/>
      <point x="190" y="301"/>
      <point x="256" y="348" type="curve"/>
      <point x="332" y="403"/>
      <point x="386" y="451"/>
      <point x="386" y="545" type="curve"/>
      <point x="386" y="656"/>
      <point x="334" y="727"/>
      <point x="226" y="727" type="curve"/>
      <point x="120" y="727"/>
      <point x="64" y="655"/>
      <point x="64" y="547" type="curve"/>
      <point x="160" y="547"/>
      <point x="64" y="547"/>
      <point x="160" y="547" type="curve"/>
      <point x="160" y="599"/>
      <point x="174" y="645"/>
      <point x="223" y="645" type="curve"/>
      <point x="274" y="645"/>
      <point x="290" y="601"/>
      <point x="290" y="545" type="curve"/>
      <point x="290" y="482"/>
      <point x="252" y="445"/>
      <point x="196" y="405" type="curve"/>
      <point x="108" y="344"/>
      <point x="52" y="291"/>
      <point x="52" y="185" type="curve"/>
      <point x="52" y="70"/>
      <point x="110" y="-5"/>
      <point x="221" y="-5" type="curve"/>
      <point x="335" y="-5"/>
      <point x="399" y="68"/>
      <point x="399" y="185" type="curve"/>
      <point x="399" y="290"/>
      <point x="343" y="346"/>
      <point x="256" y="406" type="curve"/>
      <point x="200" y="447"/>
      <point x="160" y="481"/>
      <point x="160" y="547" type="curve"/>
      <point x="64" y="547"/>
      <point x="160" y="547"/>
    </contour>
  </outline>
</glyph>
<glyph name="nine" format="1">
  <advance width="450"/>
  <unicode hex="0039"/>
  <outline>
    <contour>
      <point x="329" y="478" type="curve"/>
      <point x="311" y="414"/>
      <point x="284" y="368"/>
      <point x="219" y="368" type="curve"/>
      <point x="155" y="368"/>
      <point x="135" y="433"/>
      <point x="135" y="509" type="curve"/>
      <point x="135" y="577"/>
      <point x="154" y="639"/>
      <point x="211" y="639" type="curve"/>
      <point x="288" y="639"/>
      <point x="307" y="560"/>
      <point x="307" y="469" type="curve"/>
      <point x="307" y="279"/>
      <point x="241" y="138"/>
      <point x="69" y="61" type="curve"/>
      <point x="111" y="-16"/>
      <point x="69" y="61"/>
      <point x="111" y="-16" type="curve"/>
      <point x="300" y="70"/>
      <point x="401" y="239"/>
      <point x="401" y="473" type="curve"/>
      <point x="401" y="619"/>
      <point x="347" y="732"/>
      <point x="214" y="732" type="curve"/>
      <point x="95" y="732"/>
      <point x="40" y="634"/>
      <point x="40" y="504" type="curve"/>
      <point x="40" y="379"/>
      <point x="94" y="286"/>
      <point x="210" y="286" type="curve"/>
      <point x="310" y="286"/>
      <point x="355" y="385"/>
      <point x="377" y="459" type="curve"/>
      <point x="329" y="478"/>
      <point x="377" y="459"/>
    </contour>
  </outline>
</glyph>
<glyph name="colon" format="1">
  <advance width="229"/>
  <unicode hex="003A"/>
  <outline>
    <contour>
      <point x="164" y="381" type="curve"/>
      <point x="164" y="416"/>
      <point x="142" y="433"/>
      <point x="112" y="433" type="curve"/>
      <point x="81" y="433"/>
      <point x="61" y="414"/>
      <point x="61" y="381" type="curve"/>
      <point x="166" y="381"/>
      <point x="59" y="381"/>
      <point x="164" y="381" type="curve"/>
      <point x="164" y="346"/>
      <point x="143" y="330"/>
      <point x="112" y="330" type="curve"/>
      <point x="80" y="330"/>
      <point x="61" y="347"/>
      <point x="61" y="381" type="curve"/>
      <point x="166" y="381"/>
      <point x="59" y="381"/>
    </contour>
    <contour>
      <point x="164" y="47" type="curve"/>
      <point x="164" y="82"/>
      <point x="142" y="99"/>
      <point x="112" y="99" type="curve"/>
      <point x="81" y="99"/>
      <point x="61" y="80"/>
      <point x="61" y="47" type="curve"/>
      <point x="166" y="47"/>
      <point x="60" y="47"/>
      <point x="164" y="47" type="curve"/>
      <point x="164" y="12"/>
      <point x="143" y="-4"/>
      <point x="112" y="-4" type="curve"/>
      <point x="80" y="-4"/>
      <point x="61" y="13"/>
      <point x="61" y="47" type="curve"/>
      <point x="166" y="47"/>
      <point x="60" y="47"/>
    </contour>
  </outline>
</glyph>
<glyph name="semicolon" format="1">
  <advance width="195"/>
  <unicode hex="003B"/>
  <outline>
    <contour>
      <point x="21" y="-181" type="line"/>
      <point x="96" y="-173"/>
      <point x="145" y="-119"/>
      <point x="145" y="-34" type="curve"/>
      <point x="145" y="31"/>
      <point x="121" y="65"/>
      <point x="83" y="65" type="curve"/>
      <point x="48" y="65"/>
      <point x="26" y="47"/>
      <point x="26" y="12" type="curve"/>
      <point x="26" y="-14"/>
      <point x="40" y="-36"/>
      <point x="71" y="-38" type="curve"/>
      <point x="71" y="-60"/>
      <point x="68" y="-110"/>
      <point x="16" y="-126" type="curve"/>
    </contour>
    <contour>
      <point x="135" y="395" type="curve"/>
      <point x="135" y="429"/>
      <point x="113" y="447"/>
      <point x="83" y="447" type="curve"/>
      <point x="52" y="447"/>
      <point x="32" y="427"/>
      <point x="32" y="395" type="curve"/>
      <point x="137" y="395"/>
      <point x="31" y="395"/>
      <point x="135" y="395" type="curve"/>
      <point x="135" y="360"/>
      <point x="114" y="343"/>
      <point x="83" y="343" type="curve"/>
      <point x="51" y="343"/>
      <point x="32" y="361"/>
      <point x="32" y="395" type="curve"/>
      <point x="137" y="395"/>
      <point x="31" y="395"/>
    </contour>
  </outline>
</glyph>
<glyph name="less" format="1">
  <advance width="478"/>
  <unicode hex="003C"/>
  <outline>
    <contour>
      <point x="422" y="613" type="curve"/>
      <point x="292" y="523"/>
      <point x="161" y="433"/>
      <point x="30" y="343" type="curve"/>
      <point x="30" y="257"/>
      <point x="30" y="343"/>
      <point x="30" y="257" type="curve"/>
      <point x="161" y="347"/>
      <point x="292" y="437"/>
      <point x="422" y="527" type="curve"/>
      <point x="422" y="613"/>
      <point x="422" y="527"/>
    </contour>
    <contour>
      <point x="429" y="79" type="curve"/>
      <point x="296" y="167"/>
      <point x="163" y="255"/>
      <point x="30" y="343" type="curve"/>
      <point x="30" y="257"/>
      <point x="30" y="343"/>
      <point x="30" y="257" type="curve"/>
      <point x="163" y="169"/>
      <point x="296" y="81"/>
      <point x="429" y="-7" type="curve"/>
      <point x="429" y="79"/>
      <point x="429" y="-7"/>
    </contour>
  </outline>
</glyph>
<glyph name="equal" format="1">
  <advance width="510"/>
  <unicode hex="003D"/>
  <outline>
    <contour>
      <point x="57" y="176" type="curve"/>
      <point x="192" y="176"/>
      <point x="327" y="176"/>
      <point x="462" y="176" type="curve"/>
      <point x="462" y="259"/>
      <point x="462" y="176"/>
      <point x="462" y="259" type="curve"/>
      <point x="327" y="259"/>
      <point x="192" y="259"/>
      <point x="57" y="259" type="curve"/>
      <point x="57" y="176"/>
      <point x="57" y="259"/>
    </contour>
    <contour>
      <point x="57" y="398" type="curve"/>
      <point x="192" y="398"/>
      <point x="327" y="398"/>
      <point x="462" y="398" type="curve"/>
      <point x="462" y="481"/>
      <point x="462" y="398"/>
      <point x="462" y="481" type="curve"/>
      <point x="327" y="481"/>
      <point x="192" y="481"/>
      <point x="57" y="481" type="curve"/>
      <point x="57" y="398"/>
      <point x="57" y="481"/>
    </contour>
  </outline>
</glyph>
<glyph name="greater" format="1">
  <advance width="478"/>
  <unicode hex="003E"/>
  <outline>
    <contour>
      <point x="55" y="-7" type="curve"/>
      <point x="185" y="83"/>
      <point x="316" y="173"/>
      <point x="447" y="263" type="curve"/>
      <point x="447" y="349"/>
      <point x="447" y="263"/>
      <point x="447" y="349" type="curve"/>
      <point x="316" y="259"/>
      <point x="185" y="169"/>
      <point x="55" y="79" type="curve"/>
      <point x="55" y="-7"/>
      <point x="55" y="79"/>
    </contour>
    <contour>
      <point x="48" y="527" type="curve"/>
      <point x="181" y="439"/>
      <point x="314" y="351"/>
      <point x="447" y="263" type="curve"/>
      <point x="447" y="349"/>
      <point x="447" y="263"/>
      <point x="447" y="349" type="curve"/>
      <point x="314" y="437"/>
      <point x="181" y="525"/>
      <point x="48" y="613" type="curve"/>
      <point x="48" y="527"/>
      <point x="48" y="613"/>
    </contour>
  </outline>
</glyph>
<glyph name="question" format="1">
  <advance width="418"/>
  <unicode hex="003F"/>
  <outline>
    <contour>
      <point x="162" y="363" type="curve"/>
      <point x="162" y="326"/>
      <point x="162" y="258"/>
      <point x="162" y="221" type="curve"/>
      <point x="251" y="221"/>
      <point x="162" y="221"/>
      <point x="251" y="221" type="curve"/>
      <point x="251" y="258"/>
      <point x="251" y="326"/>
      <point x="251" y="363" type="curve"/>
      <point x="162" y="363"/>
      <point x="251" y="363"/>
    </contour>
    <contour>
      <point x="99" y="597" type="line"/>
      <point x="124" y="631"/>
      <point x="147" y="653"/>
      <point x="190" y="653" type="curve"/>
      <point x="257" y="653"/>
      <point x="284" y="591"/>
      <point x="284" y="518" type="curve"/>
      <point x="284" y="432"/>
      <point x="249" y="363"/>
      <point x="173" y="363" type="curve"/>
      <point x="173" y="330"/>
      <point x="172" y="322"/>
      <point x="172" y="288" type="curve"/>
      <point x="304" y="288"/>
      <point x="379" y="384"/>
      <point x="379" y="518" type="curve"/>
      <point x="379" y="647"/>
      <point x="310" y="737"/>
      <point x="194" y="737" type="curve"/>
      <point x="124" y="737"/>
      <point x="77" y="708"/>
      <point x="44" y="660" type="curve"/>
    </contour>
    <contour>
      <point x="259" y="49" type="curve"/>
      <point x="259" y="83"/>
      <point x="237" y="101"/>
      <point x="206" y="101" type="curve"/>
      <point x="175" y="101"/>
      <point x="155" y="82"/>
      <point x="155" y="49" type="curve"/>
      <point x="259" y="49"/>
      <point x="155" y="49"/>
      <point x="259" y="49" type="curve"/>
      <point x="259" y="13"/>
      <point x="237" y="-3"/>
      <point x="206" y="-3" type="curve"/>
      <point x="174" y="-3"/>
      <point x="155" y="14"/>
      <point x="155" y="49" type="curve"/>
      <point x="259" y="49"/>
      <point x="155" y="49"/>
    </contour>
  </outline>
</glyph>
<glyph name="at" format="1">
  <advance width="623"/>
  <unicode hex="0040"/>
  <outline>
    <contour>
      <point x="405" y="-42" type="curve"/>
      <point x="379" y="-64"/>
      <point x="358" y="-72"/>
      <point x="324" y="-72" type="curve"/>
      <point x="191" y="-72"/>
      <point x="133" y="51"/>
      <point x="133" y="203" type="curve"/>
      <point x="133" y="350"/>
      <point x="187" y="470"/>
      <point x="315" y="470" type="curve"/>
      <point x="437" y="470"/>
      <point x="490" y="352"/>
      <point x="490" y="210" type="curve"/>
      <point x="490" y="150"/>
      <point x="492" y="95"/>
      <point x="467" y="95" type="curve"/>
      <point x="440" y="95"/>
      <point x="445" y="147"/>
      <point x="445" y="208" type="curve"/>
      <point x="445" y="313"/>
      <point x="406" y="394"/>
      <point x="312" y="394" type="curve"/>
      <point x="210" y="394"/>
      <point x="178" y="315"/>
      <point x="178" y="206" type="curve"/>
      <point x="178" y="93"/>
      <point x="205" y="9"/>
      <point x="305" y="9" type="curve"/>
      <point x="396" y="9"/>
      <point x="422" y="89"/>
      <point x="431" y="191" type="curve"/>
      <point x="368" y="206"/>
      <point x="431" y="191"/>
      <point x="368" y="206" type="curve"/>
      <point x="359" y="149"/>
      <point x="365" y="87"/>
      <point x="314" y="87" type="curve"/>
      <point x="268" y="87"/>
      <point x="265" y="144"/>
      <point x="265" y="210" type="curve"/>
      <point x="265" y="265"/>
      <point x="265" y="315"/>
      <point x="308" y="315" type="curve"/>
      <point x="358" y="315"/>
      <point x="355" y="263"/>
      <point x="355" y="203" type="curve"/>
      <point x="355" y="103"/>
      <point x="371" y="21"/>
      <point x="459" y="21" type="curve"/>
      <point x="552" y="21"/>
      <point x="572" y="106"/>
      <point x="572" y="214" type="curve"/>
      <point x="572" y="407"/>
      <point x="494" y="552"/>
      <point x="317" y="552" type="curve"/>
      <point x="130" y="552"/>
      <point x="46" y="403"/>
      <point x="46" y="199" type="curve"/>
      <point x="46" y="-2"/>
      <point x="134" y="-151"/>
      <point x="319" y="-151" type="curve"/>
      <point x="372" y="-151"/>
      <point x="400" y="-143"/>
      <point x="444" y="-110" type="curve"/>
      <point x="405" y="-42"/>
      <point x="444" y="-110"/>
    </contour>
  </outline>
</glyph>
<glyph name="B" format="1">
  <advance width="488"/>
  <unicode hex="0042"/>
  <outline>
    <contour>
      <point x="131" y="644" type="curve"/>
      <point x="172" y="644"/>
      <point x="194" y="644"/>
      <point x="235" y="644" type="curve"/>
      <point x="293" y="644"/>
      <point x="316" y="601"/>
      <point x="316" y="544" type="curve"/>
      <point x="316" y="489"/>
      <point x="298" y="445"/>
      <point x="246" y="445" type="curve"/>
      <point x="201" y="445"/>
      <point x="175" y="445"/>
      <point x="131" y="445" type="curve"/>
      <point x="131" y="423"/>
      <point x="131" y="388"/>
      <point x="131" y="366" type="curve"/>
      <point x="164" y="366"/>
      <point x="183" y="366"/>
      <point x="216" y="366" type="curve"/>
      <point x="322" y="366"/>
      <point x="413" y="424"/>
      <point x="413" y="539" type="curve"/>
      <point x="413" y="651"/>
      <point x="352" y="722"/>
      <point x="242" y="722" type="curve"/>
      <point x="198" y="722"/>
      <point x="175" y="722"/>
      <point x="131" y="722" type="curve"/>
      <point x="131" y="700"/>
      <point x="131" y="666"/>
    </contour>
    <contour>
      <point x="190" y="0" type="curve"/>
      <point x="190" y="241"/>
      <point x="190" y="481"/>
      <point x="190" y="722" type="curve"/>
      <point x="87" y="722"/>
      <point x="190" y="722"/>
      <point x="87" y="722" type="curve"/>
      <point x="87" y="481"/>
      <point x="87" y="241"/>
      <point x="87" y="0" type="curve"/>
      <point x="190" y="0"/>
      <point x="87" y="0"/>
    </contour>
    <contour>
      <point x="131" y="366" type="curve"/>
      <point x="175" y="366"/>
      <point x="201" y="366"/>
      <point x="246" y="366" type="curve"/>
      <point x="322" y="366"/>
      <point x="346" y="300"/>
      <point x="346" y="220" type="curve"/>
      <point x="346" y="139"/>
      <point x="315" y="78"/>
      <point x="239" y="78" type="curve"/>
      <point x="196" y="78"/>
      <point x="174" y="78"/>
      <point x="131" y="78" type="curve"/>
      <point x="131" y="56"/>
      <point x="131" y="22"/>
      <point x="131" y="0" type="curve"/>
      <point x="177" y="0"/>
      <point x="201" y="0"/>
      <point x="247" y="0" type="curve"/>
      <point x="374" y="0"/>
      <point x="445" y="85"/>
      <point x="445" y="217" type="curve"/>
      <point x="445" y="359"/>
      <point x="356" y="445"/>
      <point x="216" y="445" type="curve"/>
      <point x="183" y="445"/>
      <point x="164" y="445"/>
      <point x="131" y="445" type="curve"/>
      <point x="131" y="423"/>
      <point x="131" y="388"/>
    </contour>
  </outline>
</glyph>
<glyph name="D" format="1">
  <advance width="561"/>
  <unicode hex="0044"/>
  <outline>
    <contour>
      <point x="87" y="722" type="curve"/>
      <point x="87" y="481"/>
      <point x="87" y="241"/>
      <point x="87" y="0" type="curve"/>
      <point x="186" y="0"/>
      <point x="87" y="0"/>
      <point x="186" y="0" type="curve"/>
      <point x="186" y="241"/>
      <point x="186" y="481"/>
      <point x="186" y="722" type="curve"/>
      <point x="87" y="722"/>
      <point x="186" y="722"/>
    </contour>
    <contour>
      <point x="137" y="0" type="curve"/>
      <point x="178" y="0"/>
      <point x="212" y="0"/>
      <point x="254" y="0" type="curve"/>
      <point x="442" y="0"/>
      <point x="511" y="147"/>
      <point x="511" y="355" type="curve"/>
      <point x="511" y="569"/>
      <point x="443" y="722"/>
      <point x="251" y="722" type="curve"/>
      <point x="211" y="722"/>
      <point x="177" y="722"/>
      <point x="137" y="722" type="curve"/>
      <point x="137" y="650"/>
      <point x="137" y="716"/>
      <point x="137" y="644" type="curve"/>
      <point x="176" y="644"/>
      <point x="208" y="644"/>
      <point x="247" y="644" type="curve"/>
      <point x="385" y="644"/>
      <point x="412" y="515"/>
      <point x="412" y="354" type="curve"/>
      <point x="412" y="202"/>
      <point x="390" y="78"/>
      <point x="263" y="78" type="curve"/>
      <point x="219" y="78"/>
      <point x="182" y="78"/>
      <point x="137" y="78" type="curve"/>
      <point x="137" y="6"/>
      <point x="137" y="72"/>
    </contour>
    <contour>
      <point x="227" y="796" type="move" name="top"/>
    </contour>
  </outline>
</glyph>
<glyph name="F" format="1">
  <advance width="415"/>
  <unicode hex="0046"/>
  <outline>
    <contour>
      <point x="138" y="334" type="curve"/>
      <point x="208" y="334"/>
      <point x="277" y="334"/>
      <point x="346" y="334" type="curve"/>
      <point x="346" y="412"/>
      <point x="346" y="334"/>
      <point x="346" y="412" type="curve"/>
      <point x="277" y="412"/>
      <point x="208" y="412"/>
      <point x="138" y="412" type="curve"/>
      <point x="138" y="334"/>
      <point x="138" y="412"/>
    </contour>
    <contour>
      <point x="186" y="0" type="curve"/>
      <point x="186" y="722" type="line"/>
      <point x="87" y="722"/>
      <point x="186" y="722"/>
      <point x="87" y="722" type="curve"/>
      <point x="87" y="481"/>
      <point x="87" y="241"/>
      <point x="87" y="0" type="curve"/>
      <point x="186" y="0"/>
      <point x="87" y="0"/>
    </contour>
    <contour>
      <point x="129" y="644" type="curve"/>
      <point x="217" y="644"/>
      <point x="305" y="644"/>
      <point x="393" y="644" type="curve"/>
      <point x="393" y="722"/>
      <point x="393" y="644"/>
      <point x="393" y="722" type="curve"/>
      <point x="305" y="722"/>
      <point x="217" y="722"/>
      <point x="129" y="722" type="curve"/>
      <point x="129" y="644"/>
      <point x="129" y="722"/>
    </contour>
  </outline>
</glyph>
<glyph name="G" format="1">
  <advance width="565"/>
  <unicode hex="0047"/>
  <outline>
    <contour>
      <point x="486" y="351" type="curve"/>
      <point x="438" y="351"/>
      <point x="391" y="351"/>
      <point x="344" y="351" type="curve"/>
      <point x="344" y="273"/>
      <point x="344" y="351"/>
      <point x="344" y="273" type="curve"/>
      <point x="391" y="273"/>
      <point x="438" y="273"/>
      <point x="486" y="273" type="curve"/>
      <point x="486" y="351"/>
      <point x="486" y="273"/>
    </contour>
    <contour>
      <point x="512" y="78" type="curve"/>
      <point x="512" y="169"/>
      <point x="512" y="260"/>
      <point x="512" y="351" type="curve"/>
      <point x="422" y="351"/>
      <point x="512" y="351"/>
      <point x="422" y="351" type="curve"/>
      <point x="422" y="260"/>
      <point x="422" y="169"/>
      <point x="422" y="78" type="curve"/>
      <point x="512" y="78"/>
      <point x="422" y="78"/>
    </contour>
    <contour>
      <point x="501" y="644" type="curve"/>
      <point x="442" y="699"/>
      <point x="381" y="727"/>
      <point x="302" y="727" type="curve"/>
      <point x="117" y="727"/>
      <point x="48" y="570"/>
      <point x="48" y="362" type="curve"/>
      <point x="48" y="151"/>
      <point x="122" y="-5"/>
      <point x="309" y="-5" type="curve"/>
      <point x="393" y="-5"/>
      <point x="445" y="24"/>
      <point x="512" y="78" type="curve"/>
      <point x="461" y="139"/>
      <point x="512" y="78"/>
      <point x="461" y="139" type="curve"/>
      <point x="419" y="100"/>
      <point x="371" y="78"/>
      <point x="309" y="78" type="curve"/>
      <point x="174" y="78"/>
      <point x="147" y="209"/>
      <point x="147" y="370" type="curve"/>
      <point x="147" y="519"/>
      <point x="176" y="645"/>
      <point x="301" y="645" type="curve"/>
      <point x="362" y="645"/>
      <point x="407" y="620"/>
      <point x="450" y="578" type="curve"/>
      <point x="501" y="644"/>
      <point x="450" y="578"/>
    </contour>
    <contour>
      <point x="298" y="796" type="move" name="top"/>
    </contour>
    <contour>
      <point x="331" y="-35" type="move" name="bottom"/>
    </contour>
  </outline>
</glyph>
<glyph name="H" format="1">
  <advance width="590"/>
  <unicode hex="0048"/>
  <outline>
    <contour>
      <point x="186" y="0" type="curve"/>
      <point x="186" y="722" type="line"/>
      <point x="87" y="722"/>
      <point x="186" y="722"/>
      <point x="87" y="722" type="curve"/>
      <point x="87" y="481"/>
      <point x="87" y="241"/>
      <point x="87" y="0" type="curve"/>
      <point x="186" y="0"/>
      <point x="87" y="0"/>
    </contour>
    <contour>
      <point x="453" y="402" type="curve"/>
      <point x="347" y="402"/>
      <point x="242" y="402"/>
      <point x="136" y="402" type="curve"/>
      <point x="136" y="323"/>
      <point x="136" y="402"/>
      <point x="136" y="323" type="curve"/>
      <point x="242" y="323"/>
      <point x="347" y="323"/>
      <point x="453" y="323" type="curve"/>
      <point x="453" y="402"/>
      <point x="453" y="323"/>
    </contour>
    <contour>
      <point x="504" y="0" type="curve"/>
      <point x="504" y="221"/>
      <point x="504" y="501"/>
      <point x="504" y="722" type="curve"/>
      <point x="405" y="722"/>
      <point x="504" y="722"/>
      <point x="405" y="722" type="curve"/>
      <point x="405" y="0" type="line"/>
      <point x="504" y="0"/>
      <point x="405" y="0"/>
    </contour>
  </outline>
</glyph>
<glyph name="I" format="1">
  <advance width="272"/>
  <unicode hex="0049"/>
  <outline>
    <contour>
      <point x="186" y="0" type="curve"/>
      <point x="186" y="241"/>
      <point x="186" y="481"/>
      <point x="186" y="722" type="curve"/>
      <point x="87" y="722"/>
      <point x="186" y="722"/>
      <point x="87" y="722" type="curve"/>
      <point x="87" y="481"/>
      <point x="87" y="241"/>
      <point x="87" y="0" type="curve"/>
      <point x="186" y="0"/>
      <point x="87" y="0"/>
    </contour>
    <contour>
      <point x="138" y="796" type="move" name="top"/>
    </contour>
    <contour>
      <point x="178" y="4" type="move" name="bottom"/>
    </contour>
  </outline>
</glyph>
<glyph name="J" format="1">
  <advance width="342"/>
  <unicode hex="004A"/>
  <outline>
    <contour>
      <point x="4" y="42" type="curve"/>
      <point x="28" y="19"/>
      <point x="59" y="-5"/>
      <point x="102" y="-5" type="curve"/>
      <point x="222" y="-5"/>
      <point x="261" y="86"/>
      <point x="261" y="234" type="curve"/>
      <point x="261" y="405"/>
      <point x="261" y="551"/>
      <point x="261" y="722" type="curve"/>
      <point x="168" y="722"/>
      <point x="255" y="722"/>
      <point x="162" y="722" type="curve"/>
      <point x="162" y="551"/>
      <point x="162" y="405"/>
      <point x="162" y="234" type="curve"/>
      <point x="162" y="151"/>
      <point x="168" y="76"/>
      <point x="102" y="76" type="curve"/>
      <point x="79" y="76"/>
      <point x="65" y="90"/>
      <point x="50" y="104" type="curve"/>
      <point x="8" y="47"/>
      <point x="47" y="100"/>
    </contour>
  </outline>
</glyph>
<glyph name="K" format="1">
  <advance width="518"/>
  <unicode hex="004B"/>
  <outline>
    <contour>
      <point x="386" y="722" type="curve"/>
      <point x="175" y="380" type="line"/>
      <point x="279" y="380"/>
      <point x="184" y="380"/>
      <point x="288" y="380" type="curve"/>
      <point x="497" y="722" type="line"/>
      <point x="433" y="722"/>
      <point x="450" y="722"/>
    </contour>
    <contour>
      <point x="186" y="0" type="curve"/>
      <point x="186" y="722" type="line"/>
      <point x="87" y="722"/>
      <point x="186" y="722"/>
      <point x="87" y="722" type="curve"/>
      <point x="87" y="481"/>
      <point x="87" y="241"/>
      <point x="87" y="0" type="curve"/>
      <point x="186" y="0"/>
      <point x="87" y="0"/>
    </contour>
    <contour>
      <point x="511" y="0" type="curve"/>
      <point x="288" y="380" type="line"/>
      <point x="184" y="380"/>
      <point x="279" y="380"/>
      <point x="175" y="380" type="curve"/>
      <point x="401" y="0" type="line"/>
      <point x="474" y="0"/>
      <point x="438" y="0"/>
    </contour>
    <contour>
      <point x="289" y="-33" type="move" name="bottom"/>
    </contour>
  </outline>
</glyph>
<glyph name="M" format="1">
  <advance width="661"/>
  <unicode hex="004D"/>
  <outline>
    <contour>
      <point x="603" y="0" type="curve"/>
      <point x="589" y="241"/>
      <point x="572" y="481"/>
      <point x="559" y="722" type="curve"/>
      <point x="469" y="722"/>
      <point x="559" y="722"/>
      <point x="469" y="722" type="curve"/>
      <point x="482" y="481"/>
      <point x="491" y="241"/>
      <point x="504" y="0" type="curve"/>
      <point x="603" y="0"/>
      <point x="504" y="0"/>
    </contour>
    <contour>
      <point x="144" y="0" type="curve"/>
      <point x="156" y="241"/>
      <point x="168" y="481"/>
      <point x="180" y="722" type="curve"/>
      <point x="99" y="722"/>
      <point x="180" y="722"/>
      <point x="99" y="722" type="curve"/>
      <point x="86" y="481"/>
      <point x="74" y="241"/>
      <point x="61" y="0" type="curve"/>
      <point x="144" y="0"/>
      <point x="61" y="0"/>
    </contour>
    <contour>
      <point x="363" y="0" type="curve"/>
      <point x="303" y="241"/>
      <point x="242" y="481"/>
      <point x="182" y="722" type="curve"/>
      <point x="100" y="722"/>
      <point x="182" y="722"/>
      <point x="100" y="722" type="curve"/>
      <point x="161" y="481"/>
      <point x="221" y="241"/>
      <point x="281" y="0" type="curve"/>
      <point x="363" y="0"/>
      <point x="281" y="0"/>
    </contour>
    <contour>
      <point x="370" y="0" type="curve"/>
      <point x="429" y="241"/>
      <point x="488" y="481"/>
      <point x="546" y="722" type="curve"/>
      <point x="465" y="722"/>
      <point x="546" y="722"/>
      <point x="465" y="722" type="curve"/>
      <point x="406" y="481"/>
      <point x="346" y="241"/>
      <point x="286" y="0" type="curve"/>
      <point x="370" y="0"/>
      <point x="286" y="0"/>
    </contour>
  </outline>
</glyph>
<glyph name="N" format="1">
  <advance width="618"/>
  <unicode hex="004E"/>
  <outline>
    <contour>
      <point x="533" y="0" type="curve"/>
      <point x="417" y="241"/>
      <point x="302" y="481"/>
      <point x="187" y="722" type="curve"/>
      <point x="86" y="722"/>
      <point x="188" y="722"/>
      <point x="87" y="722" type="curve"/>
      <point x="201" y="481"/>
      <point x="317" y="241"/>
      <point x="433" y="0" type="curve"/>
      <point x="533" y="0"/>
      <point x="432" y="0"/>
    </contour>
    <contour>
      <point x="433" y="722" type="curve"/>
      <point x="433" y="481"/>
      <point x="433" y="241"/>
      <point x="433" y="0" type="curve"/>
      <point x="532" y="0"/>
      <point x="433" y="0"/>
      <point x="532" y="0" type="curve"/>
      <point x="532" y="241"/>
      <point x="532" y="481"/>
      <point x="532" y="722" type="curve"/>
      <point x="433" y="722"/>
      <point x="532" y="722"/>
    </contour>
    <contour>
      <point x="186" y="0" type="curve"/>
      <point x="186" y="241"/>
      <point x="186" y="481"/>
      <point x="186" y="722" type="curve"/>
      <point x="87" y="722"/>
      <point x="186" y="722"/>
      <point x="87" y="722" type="curve"/>
      <point x="87" y="481"/>
      <point x="87" y="241"/>
      <point x="87" y="0" type="curve"/>
      <point x="186" y="0"/>
      <point x="87" y="0"/>
    </contour>
    <contour>
      <point x="313" y="796" type="move" name="top"/>
    </contour>
    <contour>
      <point x="355" y="-33" type="move" name="bottom"/>
    </contour>
  </outline>
</glyph>
<glyph name="P" format="1">
  <advance width="455"/>
  <unicode hex="0050"/>
  <outline>
    <contour>
      <point x="122" y="309" type="curve"/>
      <point x="162" y="280"/>
      <point x="203" y="263"/>
      <point x="255" y="263" type="curve"/>
      <point x="361" y="265"/>
      <point x="419" y="352"/>
      <point x="419" y="481" type="curve"/>
      <point x="419" y="616"/>
      <point x="352" y="722"/>
      <point x="227" y="722" type="curve"/>
      <point x="198" y="722"/>
      <point x="168" y="722"/>
      <point x="139" y="722" type="curve"/>
      <point x="139" y="644"/>
      <point x="139" y="722"/>
      <point x="139" y="644" type="curve"/>
      <point x="164" y="644"/>
      <point x="189" y="644"/>
      <point x="214" y="644" type="curve"/>
      <point x="290" y="644"/>
      <point x="320" y="569"/>
      <point x="320" y="484" type="curve"/>
      <point x="320" y="407"/>
      <point x="304" y="338"/>
      <point x="242" y="338" type="curve"/>
      <point x="205" y="338"/>
      <point x="183" y="352"/>
      <point x="154" y="373" type="curve"/>
      <point x="123" y="311"/>
      <point x="154" y="373"/>
    </contour>
    <contour>
      <point x="186" y="0" type="curve"/>
      <point x="186" y="241"/>
      <point x="186" y="481"/>
      <point x="186" y="722" type="curve"/>
      <point x="87" y="722"/>
      <point x="186" y="722"/>
      <point x="87" y="722" type="curve"/>
      <point x="87" y="481"/>
      <point x="87" y="241"/>
      <point x="87" y="0" type="curve"/>
      <point x="186" y="0"/>
      <point x="87" y="0"/>
    </contour>
  </outline>
</glyph>
<glyph name="Q" format="1">
  <advance width="587"/>
  <unicode hex="0051"/>
  <outline>
    <contour>
      <point x="249" y="19" type="curve"/>
      <point x="308" y="-139"/>
      <point x="393" y="-222"/>
      <point x="548" y="-222" type="curve"/>
      <point x="548" y="-139"/>
      <point x="548" y="-222"/>
      <point x="548" y="-139" type="curve"/>
      <point x="433" y="-139"/>
      <point x="378" y="-63"/>
      <point x="335" y="58" type="curve"/>
      <point x="249" y="19"/>
      <point x="335" y="58"/>
    </contour>
    <contour>
      <point x="148" y="360" type="curve"/>
      <point x="148" y="507"/>
      <point x="161" y="641"/>
      <point x="283" y="641" type="curve"/>
      <point x="406" y="641"/>
      <point x="424" y="509"/>
      <point x="424" y="361" type="curve"/>
      <point x="424" y="214"/>
      <point x="413" y="77"/>
      <point x="290" y="77" type="curve"/>
      <point x="165" y="78"/>
      <point x="148" y="212"/>
      <point x="148" y="360" type="curve"/>
      <point x="49" y="360"/>
      <point x="148" y="360"/>
      <point x="49" y="360" type="curve"/>
      <point x="49" y="160"/>
      <point x="110" y="-5"/>
      <point x="285" y="-5" type="curve"/>
      <point x="463" y="-5"/>
      <point x="523" y="163"/>
      <point x="523" y="365" type="curve"/>
      <point x="523" y="564"/>
      <point x="466" y="730"/>
      <point x="291" y="730" type="curve"/>
      <point x="113" y="730"/>
      <point x="49" y="562"/>
      <point x="49" y="360" type="curve"/>
      <point x="148" y="360"/>
      <point x="49" y="360"/>
    </contour>
  </outline>
</glyph>
<glyph name="S" format="1">
  <advance width="413"/>
  <unicode hex="0053"/>
  <outline>
    <contour>
      <point x="44" y="55" type="curve"/>
      <point x="86" y="16"/>
      <point x="129" y="-5"/>
      <point x="190" y="-5" type="curve"/>
      <point x="303" y="-5"/>
      <point x="377" y="70"/>
      <point x="377" y="185" type="curve"/>
      <point x="377" y="288"/>
      <point x="320" y="350"/>
      <point x="234" y="408" type="curve"/>
      <point x="179" y="446"/>
      <point x="140" y="490"/>
      <point x="140" y="547" type="curve"/>
      <point x="138" y="598"/>
      <point x="159" y="644"/>
      <point x="203" y="644" type="curve"/>
      <point x="242" y="644"/>
      <point x="274" y="618"/>
      <point x="294" y="599" type="curve"/>
      <point x="337" y="657"/>
      <point x="297" y="604"/>
      <point x="340" y="662" type="curve"/>
      <point x="299" y="700"/>
      <point x="261" y="719"/>
      <point x="204" y="719" type="curve"/>
      <point x="102" y="719"/>
      <point x="41" y="648"/>
      <point x="41" y="544" type="curve"/>
      <point x="41" y="448"/>
      <point x="94" y="387"/>
      <point x="173" y="334" type="curve"/>
      <point x="233" y="292"/>
      <point x="278" y="246"/>
      <point x="278" y="185" type="curve"/>
      <point x="278" y="134"/>
      <point x="247" y="77"/>
      <point x="196" y="77" type="curve"/>
      <point x="153" y="77"/>
      <point x="128" y="102"/>
      <point x="100" y="129" type="curve"/>
      <point x="47" y="60"/>
      <point x="97" y="124"/>
    </contour>
    <contour>
      <point x="205" y="796" type="move" name="top"/>
    </contour>
    <contour>
      <point x="232" y="-29" type="move" name="bottom"/>
    </contour>
  </outline>
</glyph>
<glyph name="T" format="1">
  <advance width="422"/>
  <unicode hex="0054"/>
  <outline>
    <contour>
      <point x="261" y="0" type="curve"/>
      <point x="261" y="237"/>
      <point x="261" y="473"/>
      <point x="261" y="710" type="curve"/>
      <point x="162" y="710"/>
      <point x="261" y="710"/>
      <point x="162" y="710" type="curve"/>
      <point x="161" y="473"/>
      <point x="162" y="237"/>
      <point x="162" y="0" type="curve"/>
      <point x="261" y="0"/>
      <point x="162" y="0"/>
    </contour>
    <contour>
      <point x="11" y="639" type="curve"/>
      <point x="144" y="639"/>
      <point x="278" y="639"/>
      <point x="411" y="639" type="curve"/>
      <point x="411" y="725"/>
      <point x="411" y="636"/>
      <point x="411" y="722" type="curve"/>
      <point x="278" y="722"/>
      <point x="144" y="722"/>
      <point x="11" y="722" type="curve"/>
      <point x="11" y="636"/>
      <point x="11" y="725"/>
    </contour>
    <contour>
      <point x="211" y="796" type="move" name="top"/>
    </contour>
    <contour>
      <point x="254" y="-33" type="move" name="bottom"/>
    </contour>
  </outline>
</glyph>
<glyph name="V" format="1">
  <advance width="483"/>
  <unicode hex="0056"/>
  <outline>
    <contour>
      <point x="373" y="722" type="curve"/>
      <point x="316" y="480"/>
      <point x="260" y="242"/>
      <point x="205" y="0" type="curve"/>
      <point x="307" y="0"/>
      <point x="193" y="0"/>
      <point x="295" y="0" type="curve"/>
      <point x="354" y="241"/>
      <point x="413" y="481"/>
      <point x="474" y="722" type="curve"/>
      <point x="373" y="722"/>
      <point x="474" y="722"/>
    </contour>
    <contour>
      <point x="7" y="722" type="curve"/>
      <point x="68" y="481"/>
      <point x="129" y="241"/>
      <point x="189" y="0" type="curve"/>
      <point x="291" y="0"/>
      <point x="179" y="0"/>
      <point x="281" y="0" type="curve"/>
      <point x="225" y="242"/>
      <point x="168" y="482"/>
      <point x="109" y="722" type="curve"/>
      <point x="7" y="722"/>
      <point x="110" y="722"/>
    </contour>
  </outline>
</glyph>
<glyph name="W" format="1">
  <advance width="622"/>
  <unicode hex="0057"/>
  <outline>
    <contour>
      <point x="225" y="0" type="curve"/>
      <point x="269" y="241"/>
      <point x="312" y="481"/>
      <point x="355" y="722" type="curve"/>
      <point x="274" y="722"/>
      <point x="355" y="722"/>
      <point x="274" y="722" type="curve"/>
      <point x="234" y="482"/>
      <point x="194" y="242"/>
      <point x="154" y="0" type="curve"/>
      <point x="231" y="0"/>
      <point x="148" y="0"/>
    </contour>
    <contour>
      <point x="278" y="722" type="curve"/>
      <point x="317" y="481"/>
      <point x="356" y="241"/>
      <point x="395" y="0" type="curve"/>
      <point x="473" y="0"/>
      <point x="387" y="0"/>
      <point x="464" y="0" type="curve"/>
      <point x="428" y="244"/>
      <point x="394" y="481"/>
      <point x="360" y="722" type="curve"/>
      <point x="278" y="722"/>
      <point x="359" y="722"/>
    </contour>
    <contour>
      <point x="25" y="722" type="curve"/>
      <point x="65" y="481"/>
      <point x="105" y="241"/>
      <point x="144" y="0" type="curve"/>
      <point x="222" y="0"/>
      <point x="145" y="0"/>
      <point x="223" y="0" type="curve"/>
      <point x="185" y="241"/>
      <point x="147" y="481"/>
      <point x="110" y="722" type="curve"/>
      <point x="25" y="722"/>
      <point x="110" y="722"/>
    </contour>
    <contour>
      <point x="516" y="722" type="curve"/>
      <point x="477" y="481"/>
      <point x="437" y="241"/>
      <point x="397" y="0" type="curve"/>
      <point x="475" y="0"/>
      <point x="399" y="0"/>
      <point x="477" y="0" type="curve"/>
      <point x="518" y="241"/>
      <point x="559" y="481"/>
      <point x="600" y="722" type="curve"/>
      <point x="516" y="722"/>
      <point x="600" y="722"/>
    </contour>
  </outline>
</glyph>
<glyph name="X" format="1">
  <advance width="439"/>
  <unicode hex="0058"/>
  <outline>
    <contour>
      <point x="326" y="722" type="curve"/>
      <point x="217" y="479"/>
      <point x="114" y="243"/>
      <point x="5" y="0" type="curve"/>
      <point x="104" y="0"/>
      <point x="0" y="0"/>
      <point x="99" y="0" type="curve"/>
      <point x="207" y="243"/>
      <point x="311" y="480"/>
      <point x="419" y="722" type="curve"/>
      <point x="321" y="722"/>
      <point x="423" y="722"/>
    </contour>
    <contour>
      <point x="19" y="722" type="curve"/>
      <point x="126" y="479"/>
      <point x="229" y="243"/>
      <point x="337" y="0" type="curve"/>
      <point x="435" y="0"/>
      <point x="333" y="0"/>
      <point x="431" y="0" type="curve"/>
      <point x="324" y="242"/>
      <point x="220" y="480"/>
      <point x="113" y="722" type="curve"/>
      <point x="15" y="722"/>
      <point x="117" y="722"/>
    </contour>
  </outline>
</glyph>
<glyph name="bracketleft" format="1">
  <advance width="248"/>
  <unicode hex="005B"/>
  <outline>
    <contour>
      <point x="213" y="770" type="curve"/>
      <point x="181" y="770"/>
      <point x="148" y="770"/>
      <point x="115" y="770" type="curve"/>
      <point x="104" y="770"/>
      <point x="80" y="770"/>
      <point x="70" y="770" type="curve"/>
      <point x="70" y="758"/>
      <point x="70" y="744"/>
      <point x="70" y="733" type="curve"/>
      <point x="70" y="461"/>
      <point x="70" y="190"/>
      <point x="70" y="-81" type="curve"/>
      <point x="70" y="-93"/>
      <point x="70" y="-100"/>
      <point x="70" y="-117" type="curve"/>
      <point x="80" y="-117"/>
      <point x="103" y="-117"/>
      <point x="114" y="-117" type="curve"/>
      <point x="147" y="-117"/>
      <point x="180" y="-117"/>
      <point x="213" y="-117" type="curve"/>
      <point x="213" y="-31"/>
      <point x="213" y="-117"/>
      <point x="213" y="-31" type="curve"/>
      <point x="180" y="-31"/>
      <point x="147" y="-31"/>
      <point x="114" y="-31" type="curve"/>
      <point x="169" y="-31"/>
      <point x="114" y="-31"/>
      <point x="169" y="-31" type="curve"/>
      <point x="169" y="-81"/>
      <point x="169" y="-31"/>
      <point x="169" y="-81" type="curve"/>
      <point x="169" y="190"/>
      <point x="169" y="461"/>
      <point x="169" y="733" type="curve"/>
      <point x="169" y="684"/>
      <point x="169" y="733"/>
      <point x="169" y="684" type="curve"/>
      <point x="115" y="684"/>
      <point x="169" y="684"/>
      <point x="115" y="684" type="curve"/>
      <point x="148" y="684"/>
      <point x="181" y="684"/>
      <point x="213" y="684" type="curve"/>
      <point x="213" y="770"/>
      <point x="213" y="684"/>
    </contour>
  </outline>
</glyph>
<glyph name="backslash" format="1">
  <advance width="404"/>
  <unicode hex="005C"/>
  <outline>
    <contour>
      <point x="380" y="-68" type="curve"/>
      <point x="296" y="236"/>
      <point x="211" y="540"/>
      <point x="127" y="844" type="curve"/>
      <point x="24" y="844"/>
      <point x="127" y="844"/>
      <point x="24" y="844" type="curve"/>
      <point x="108" y="540"/>
      <point x="192" y="236"/>
      <point x="277" y="-68" type="curve"/>
      <point x="380" y="-68"/>
      <point x="277" y="-68"/>
    </contour>
  </outline>
</glyph>
<glyph name="bracketright" format="1">
  <advance width="249"/>
  <unicode hex="005D"/>
  <outline>
    <contour>
      <point x="36" y="684" type="curve"/>
      <point x="69" y="684"/>
      <point x="102" y="684"/>
      <point x="135" y="684" type="curve"/>
      <point x="126" y="693"/>
      <point x="112" y="694"/>
      <point x="104" y="703" type="curve"/>
      <point x="96" y="713"/>
      <point x="88" y="723"/>
      <point x="81" y="733" type="curve"/>
      <point x="81" y="461"/>
      <point x="80" y="190"/>
      <point x="81" y="-81" type="curve"/>
      <point x="88" y="-70"/>
      <point x="98" y="-62"/>
      <point x="107" y="-52" type="curve"/>
      <point x="114" y="-43"/>
      <point x="128" y="-41"/>
      <point x="135" y="-31" type="curve"/>
      <point x="102" y="-31"/>
      <point x="69" y="-31"/>
      <point x="36" y="-31" type="curve"/>
      <point x="35" y="-117"/>
      <point x="36" y="-31"/>
      <point x="35" y="-117" type="curve"/>
      <point x="69" y="-117"/>
      <point x="102" y="-117"/>
      <point x="135" y="-117" type="curve"/>
      <point x="180" y="-117"/>
      <point x="135" y="-117"/>
      <point x="180" y="-117" type="curve"/>
      <point x="180" y="-81"/>
      <point x="180" y="-117"/>
      <point x="180" y="-81" type="curve"/>
      <point x="179" y="190"/>
      <point x="180" y="461"/>
      <point x="180" y="733" type="curve"/>
      <point x="180" y="770"/>
      <point x="180" y="733"/>
      <point x="180" y="770" type="curve"/>
      <point x="135" y="770"/>
      <point x="180" y="770"/>
      <point x="135" y="770" type="curve"/>
      <point x="102" y="770"/>
      <point x="69" y="770"/>
      <point x="36" y="770" type="curve"/>
      <point x="36" y="684"/>
      <point x="36" y="770"/>
    </contour>
  </outline>
</glyph>
<glyph name="asciicircum" format="1">
  <advance width="405"/>
  <unicode hex="005E"/>
  <outline>
    <contour>
      <point x="139" y="458" type="curve"/>
      <point x="176" y="564"/>
      <point x="214" y="669"/>
      <point x="252" y="774" type="curve"/>
      <point x="153" y="774"/>
      <point x="252" y="774"/>
      <point x="153" y="774" type="curve"/>
      <point x="115" y="669"/>
      <point x="77" y="564"/>
      <point x="40" y="458" type="curve"/>
      <point x="139" y="458"/>
      <point x="40" y="458"/>
    </contour>
    <contour>
      <point x="365" y="458" type="curve"/>
      <point x="328" y="561"/>
      <point x="288" y="670"/>
      <point x="252" y="774" type="curve"/>
      <point x="152" y="774"/>
      <point x="252" y="774"/>
      <point x="153" y="774" type="curve"/>
      <point x="190" y="670"/>
      <point x="229" y="561"/>
      <point x="266" y="458" type="curve"/>
      <point x="365" y="458"/>
      <point x="265" y="458"/>
    </contour>
  </outline>
</glyph>
<glyph name="underscore" format="1">
  <advance width="439"/>
  <unicode hex="005F"/>
  <outline>
    <contour>
      <point x="0" y="-193" type="curve"/>
      <point x="146" y="-193"/>
      <point x="293" y="-193"/>
      <point x="439" y="-193" type="curve"/>
      <point x="439" y="-114"/>
      <point x="439" y="-193"/>
      <point x="439" y="-114" type="curve"/>
      <point x="293" y="-114"/>
      <point x="146" y="-114"/>
      <point x="0" y="-114" type="curve"/>
      <point x="0" y="-193"/>
      <point x="0" y="-114"/>
    </contour>
  </outline>
</glyph>
<glyph name="b" format="1">
  <advance width="488"/>
  <unicode hex="0062"/>
  <outline>
    <contour>
      <point x="150" y="373" type="curve"/>
      <point x="164" y="404"/>
      <point x="203" y="457"/>
      <point x="256" y="457" type="curve"/>
      <point x="335" y="457"/>
      <point x="346" y="362"/>
      <point x="346" y="264" type="curve"/>
      <point x="346" y="171"/>
      <point x="331" y="76"/>
      <point x="258" y="76" type="curve"/>
      <point x="214" y="76"/>
      <point x="181" y="107"/>
      <point x="157" y="152" type="curve"/>
      <point x="101" y="113"/>
      <point x="164" y="153"/>
      <point x="108" y="115" type="curve"/>
      <point x="140" y="48"/>
      <point x="187" y="-5"/>
      <point x="265" y="-5" type="curve"/>
      <point x="391" y="-5"/>
      <point x="444" y="120"/>
      <point x="444" y="269" type="curve"/>
      <point x="444" y="414"/>
      <point x="393" y="538"/>
      <point x="268" y="538" type="curve"/>
      <point x="185" y="538"/>
      <point x="132" y="467"/>
      <point x="109" y="408" type="curve"/>
      <point x="154" y="371"/>
      <point x="105" y="411"/>
    </contour>
    <contour>
      <point x="172" y="0" type="curve"/>
      <point x="172" y="263"/>
      <point x="172" y="537"/>
      <point x="172" y="800" type="curve"/>
      <point x="63" y="800"/>
      <point x="181" y="800"/>
      <point x="73" y="800" type="curve"/>
      <point x="73" y="537"/>
      <point x="73" y="263"/>
      <point x="73" y="0" type="curve"/>
      <point x="181" y="0"/>
      <point x="63" y="0"/>
    </contour>
  </outline>
</glyph>
<glyph name="d" format="1">
  <advance width="494"/>
  <unicode hex="0064"/>
  <outline>
    <contour>
      <point x="372" y="451" type="curve"/>
      <point x="342" y="504"/>
      <point x="293" y="534"/>
      <point x="227" y="534" type="curve"/>
      <point x="93" y="534"/>
      <point x="44" y="406"/>
      <point x="44" y="263" type="curve"/>
      <point x="44" y="122"/>
      <point x="97" y="-1"/>
      <point x="225" y="-1" type="curve"/>
      <point x="297" y="-1"/>
      <point x="345" y="42"/>
      <point x="372" y="114" type="curve"/>
      <point x="337" y="170"/>
      <point x="373" y="114"/>
      <point x="338" y="170" type="curve"/>
      <point x="321" y="119"/>
      <point x="293" y="77"/>
      <point x="244" y="77" type="curve"/>
      <point x="161" y="77"/>
      <point x="143" y="170"/>
      <point x="143" y="267" type="curve"/>
      <point x="143" y="364"/>
      <point x="164" y="456"/>
      <point x="247" y="456" type="curve"/>
      <point x="288" y="456"/>
      <point x="319" y="430"/>
      <point x="337" y="392" type="curve"/>
      <point x="371" y="452"/>
      <point x="338" y="391"/>
    </contour>
    <contour>
      <point x="421" y="0" type="curve"/>
      <point x="421" y="267"/>
      <point x="421" y="533"/>
      <point x="421" y="800" type="curve"/>
      <point x="318" y="800"/>
      <point x="421" y="800"/>
      <point x="318" y="800" type="curve"/>
      <point x="318" y="533"/>
      <point x="318" y="267"/>
      <point x="318" y="0" type="curve"/>
      <point x="421" y="0"/>
      <point x="318" y="0"/>
    </contour>
  </outline>
</glyph>
<glyph name="f" format="1">
  <advance width="307"/>
  <unicode hex="0066"/>
  <outline>
    <contour>
      <point x="22" y="455" type="curve"/>
      <point x="285" y="455" type="line"/>
      <point x="285" y="533"/>
      <point x="285" y="455"/>
      <point x="285" y="533" type="curve"/>
      <point x="22" y="533" type="line"/>
      <point x="22" y="455"/>
      <point x="22" y="533"/>
    </contour>
    <contour>
      <point x="193" y="0" type="curve"/>
      <point x="193" y="617" type="line"/>
      <point x="193" y="675"/>
      <point x="191" y="730"/>
      <point x="239" y="730" type="curve"/>
      <point x="257" y="730"/>
      <point x="271" y="721"/>
      <point x="285" y="710" type="curve"/>
      <point x="325" y="773"/>
      <point x="285" y="710"/>
      <point x="325" y="773" type="curve"/>
      <point x="301" y="792"/>
      <point x="270" y="805"/>
      <point x="239" y="805" type="curve"/>
      <point x="141" y="805"/>
      <point x="93" y="723"/>
      <point x="94" y="617" type="curve"/>
      <point x="94" y="0" type="line"/>
      <point x="193" y="0"/>
      <point x="94" y="0"/>
    </contour>
  </outline>
</glyph>
<glyph name="g" format="1">
  <advance width="412"/>
  <unicode hex="0067"/>
  <outline>
    <contour>
      <point x="293" y="451" type="curve"/>
      <point x="386" y="514" type="line"/>
      <point x="380" y="522"/>
      <point x="349" y="577"/>
      <point x="343" y="584" type="curve"/>
      <point x="238" y="515" type="line"/>
      <point x="293" y="451"/>
      <point x="238" y="515"/>
    </contour>
    <contour>
      <point x="144" y="344" type="curve"/>
      <point x="144" y="402"/>
      <point x="158" y="460"/>
      <point x="207" y="460" type="curve"/>
      <point x="258" y="460"/>
      <point x="268" y="403"/>
      <point x="268" y="344" type="curve"/>
      <point x="268" y="290"/>
      <point x="256" y="235"/>
      <point x="207" y="235" type="curve"/>
      <point x="161" y="235"/>
      <point x="144" y="288"/>
      <point x="144" y="344" type="curve"/>
      <point x="45" y="340"/>
      <point x="144" y="344"/>
      <point x="45" y="340" type="curve"/>
      <point x="45" y="237"/>
      <point x="103" y="158"/>
      <point x="203" y="158" type="curve"/>
      <point x="305" y="158"/>
      <point x="367" y="239"/>
      <point x="367" y="347" type="curve"/>
      <point x="367" y="454"/>
      <point x="309" y="537"/>
      <point x="207" y="537" type="curve"/>
      <point x="102" y="537"/>
      <point x="45" y="451"/>
      <point x="45" y="340" type="curve"/>
      <point x="144" y="344"/>
      <point x="45" y="340"/>
    </contour>
    <contour>
      <point x="119" y="239" type="curve"/>
      <point x="74" y="206"/>
      <point x="48" y="167"/>
      <point x="48" y="111" type="curve"/>
      <point x="48" y="30"/>
      <point x="110" y="-17"/>
      <point x="195" y="-27" type="curve"/>
      <point x="259" y="-34"/>
      <point x="309" y="-63"/>
      <point x="309" y="-128" type="curve"/>
      <point x="309" y="-190"/>
      <point x="266" y="-227"/>
      <point x="205" y="-227" type="curve"/>
      <point x="147" y="-227"/>
      <point x="113" y="-178"/>
      <point x="113" y="-115" type="curve"/>
      <point x="113" y="-65"/>
      <point x="124" y="-18"/>
      <point x="166" y="6" type="curve"/>
      <point x="117" y="53"/>
      <point x="166" y="6"/>
      <point x="117" y="53" type="curve"/>
      <point x="50" y="16"/>
      <point x="14" y="-41"/>
      <point x="14" y="-119" type="curve"/>
      <point x="14" y="-229"/>
      <point x="89" y="-305"/>
      <point x="201" y="-305" type="curve"/>
      <point x="316" y="-305"/>
      <point x="401" y="-232"/>
      <point x="399" y="-120" type="curve"/>
      <point x="399" y="-19"/>
      <point x="318" y="36"/>
      <point x="213" y="48" type="curve"/>
      <point x="173" y="52"/>
      <point x="146" y="78"/>
      <point x="146" y="119" type="curve"/>
      <point x="146" y="148"/>
      <point x="151" y="168"/>
      <point x="172" y="188" type="curve"/>
      <point x="119" y="239"/>
      <point x="172" y="188"/>
    </contour>
    <contour>
      <point x="207" y="632" type="move" name="top"/>
    </contour>
  </outline>
</glyph>
<glyph name="h" format="1">
  <advance width="479"/>
  <unicode hex="0068"/>
  <outline>
    <contour>
      <point x="149" y="323" type="curve"/>
      <point x="162" y="382"/>
      <point x="193" y="456"/>
      <point x="251" y="456" type="curve"/>
      <point x="315" y="456"/>
      <point x="313" y="394"/>
      <point x="313" y="321" type="curve"/>
      <point x="313" y="215"/>
      <point x="313" y="107"/>
      <point x="313" y="0" type="curve"/>
      <point x="412" y="0"/>
      <point x="313" y="0"/>
      <point x="412" y="0" type="curve"/>
      <point x="412" y="109"/>
      <point x="412" y="219"/>
      <point x="412" y="328" type="curve"/>
      <point x="412" y="443"/>
      <point x="390" y="534"/>
      <point x="281" y="534" type="curve"/>
      <point x="199" y="534"/>
      <point x="139" y="452"/>
      <point x="126" y="365" type="curve"/>
      <point x="150" y="325"/>
      <point x="125" y="363"/>
    </contour>
    <contour>
      <point x="172" y="0" type="curve"/>
      <point x="172" y="267"/>
      <point x="172" y="533"/>
      <point x="172" y="800" type="curve"/>
      <point x="73" y="800"/>
      <point x="172" y="800"/>
      <point x="73" y="800" type="curve"/>
      <point x="73" y="533"/>
      <point x="73" y="267"/>
      <point x="73" y="0" type="curve"/>
      <point x="172" y="0"/>
      <point x="73" y="0"/>
    </contour>
  </outline>
</glyph>
<glyph name="i" format="1">
  <advance width="241"/>
  <unicode hex="0069"/>
  <outline>
    <contour>
      <point x="173" y="0" type="curve"/>
      <point x="173" y="178"/>
      <point x="173" y="355"/>
      <point x="173" y="533" type="curve"/>
      <point x="69" y="533"/>
      <point x="173" y="533"/>
      <point x="69" y="533" type="curve"/>
      <point x="69" y="355"/>
      <point x="69" y="178"/>
      <point x="69" y="0" type="curve"/>
      <point x="173" y="0"/>
      <point x="69" y="0"/>
    </contour>
    <contour>
      <point x="170" y="680" type="curve"/>
      <point x="170" y="715"/>
      <point x="148" y="733"/>
      <point x="117" y="733" type="curve"/>
      <point x="85" y="733"/>
      <point x="65" y="714"/>
      <point x="65" y="680" type="curve"/>
      <point x="172" y="680"/>
      <point x="64" y="680"/>
      <point x="170" y="680" type="curve"/>
      <point x="170" y="645"/>
      <point x="148" y="629"/>
      <point x="117" y="629" type="curve"/>
      <point x="85" y="629"/>
      <point x="65" y="646"/>
      <point x="65" y="680" type="curve"/>
      <point x="172" y="680"/>
      <point x="64" y="680"/>
    </contour>
    <contour>
      <point x="117" y="633" type="move" name="top"/>
    </contour>
    <contour>
      <point x="166" y="2" type="move" name="bottom"/>
    </contour>
  </outline>
</glyph>
<glyph name="j" format="1">
  <advance width="213"/>
  <unicode hex="006A"/>
  <outline>
    <contour>
      <point x="-10" y="-303" type="curve"/>
      <point x="-4" y="-304"/>
      <point x="5" y="-305"/>
      <point x="13" y="-305" type="curve"/>
      <point x="105" y="-305"/>
      <point x="159" y="-225"/>
      <point x="159" y="-128" type="curve"/>
      <point x="159" y="93"/>
      <point x="159" y="313"/>
      <point x="159" y="534" type="curve"/>
      <point x="60" y="534"/>
      <point x="159" y="534"/>
      <point x="60" y="534" type="curve"/>
      <point x="60" y="313"/>
      <point x="60" y="93"/>
      <point x="60" y="-128" type="curve"/>
      <point x="60" y="-174"/>
      <point x="57" y="-228"/>
      <point x="17" y="-228" type="curve"/>
      <point x="13" y="-228"/>
      <point x="10" y="-228"/>
      <point x="4" y="-227" type="curve"/>
      <point x="-10" y="-301"/>
      <point x="4" y="-229"/>
    </contour>
    <contour>
      <point x="161" y="675" type="curve"/>
      <point x="161" y="710"/>
      <point x="138" y="728"/>
      <point x="107" y="728" type="curve"/>
      <point x="76" y="728"/>
      <point x="56" y="708"/>
      <point x="56" y="675" type="curve"/>
      <point x="162" y="675"/>
      <point x="55" y="675"/>
      <point x="161" y="675" type="curve"/>
      <point x="161" y="640"/>
      <point x="139" y="623"/>
      <point x="108" y="623" type="curve"/>
      <point x="75" y="623"/>
      <point x="56" y="641"/>
      <point x="56" y="675" type="curve"/>
      <point x="162" y="675"/>
      <point x="55" y="675"/>
    </contour>
  </outline>
</glyph>
<glyph name="k" format="1">
  <advance width="459"/>
  <unicode hex="006B"/>
  <outline>
    <contour>
      <point x="172" y="0" type="curve"/>
      <point x="172" y="800" type="line"/>
      <point x="73" y="800"/>
      <point x="172" y="800"/>
      <point x="73" y="800" type="curve"/>
      <point x="73" y="533"/>
      <point x="73" y="267"/>
      <point x="73" y="0" type="curve"/>
      <point x="172" y="0"/>
      <point x="73" y="0"/>
    </contour>
    <contour>
      <point x="312" y="533" type="curve"/>
      <point x="155" y="275" type="line"/>
      <point x="248" y="275"/>
      <point x="167" y="275"/>
      <point x="261" y="275" type="curve"/>
      <point x="422" y="533" type="line"/>
      <point x="347" y="533"/>
      <point x="388" y="533"/>
    </contour>
    <contour>
      <point x="439" y="0" type="curve"/>
      <point x="261" y="275" type="line"/>
      <point x="167" y="275"/>
      <point x="248" y="275"/>
      <point x="155" y="275" type="curve"/>
      <point x="330" y="0" type="line"/>
      <point x="396" y="0"/>
      <point x="372" y="0"/>
    </contour>
    <contour>
      <point x="300" y="-33" type="move" name="bottom"/>
    </contour>
  </outline>
</glyph>
<glyph name="m" format="1">
  <advance width="668"/>
  <unicode hex="006D"/>
  <outline>
    <contour>
      <point x="364" y="302" type="curve"/>
      <point x="379" y="373"/>
      <point x="393" y="457"/>
      <point x="450" y="457" type="curve"/>
      <point x="515" y="457"/>
      <point x="501" y="397"/>
      <point x="501" y="320" type="curve"/>
      <point x="501" y="213"/>
      <point x="501" y="107"/>
      <point x="501" y="0" type="curve"/>
      <point x="600" y="0"/>
      <point x="501" y="0"/>
      <point x="600" y="0" type="curve"/>
      <point x="600" y="109"/>
      <point x="600" y="219"/>
      <point x="600" y="328" type="curve"/>
      <point x="600" y="450"/>
      <point x="600" y="538"/>
      <point x="487" y="538" type="curve"/>
      <point x="402" y="538"/>
      <point x="357" y="452"/>
      <point x="341" y="348" type="curve"/>
      <point x="367" y="304"/>
      <point x="337" y="346"/>
    </contour>
    <contour>
      <point x="150" y="301" type="curve"/>
      <point x="162" y="371"/>
      <point x="177" y="458"/>
      <point x="236" y="458" type="curve"/>
      <point x="300" y="458"/>
      <point x="287" y="397"/>
      <point x="287" y="320" type="curve"/>
      <point x="287" y="213"/>
      <point x="287" y="107"/>
      <point x="287" y="0" type="curve"/>
      <point x="386" y="0"/>
      <point x="287" y="0"/>
      <point x="386" y="0" type="curve"/>
      <point x="386" y="109"/>
      <point x="386" y="219"/>
      <point x="386" y="328" type="curve"/>
      <point x="386" y="450"/>
      <point x="386" y="538"/>
      <point x="273" y="538" type="curve"/>
      <point x="186" y="538"/>
      <point x="143" y="452"/>
      <point x="127" y="348" type="curve"/>
      <point x="154" y="304"/>
      <point x="123" y="346"/>
    </contour>
    <contour>
      <point x="172" y="0" type="curve"/>
      <point x="172" y="178"/>
      <point x="172" y="355"/>
      <point x="172" y="533" type="curve"/>
      <point x="73" y="533"/>
      <point x="172" y="533"/>
      <point x="73" y="533" type="curve"/>
      <point x="73" y="355"/>
      <point x="73" y="178"/>
      <point x="73" y="0" type="curve"/>
      <point x="172" y="0"/>
      <point x="73" y="0"/>
    </contour>
  </outline>
</glyph>
<glyph name="p" format="1">
  <advance width="494"/>
  <unicode hex="0070"/>
  <outline>
    <contour>
      <point x="153" y="335" type="curve"/>
      <point x="161" y="389"/>
      <point x="203" y="457"/>
      <point x="252" y="457" type="curve"/>
      <point x="344" y="457"/>
      <point x="350" y="363"/>
      <point x="350" y="266" type="curve"/>
      <point x="352" y="168"/>
      <point x="342" y="73"/>
      <point x="255" y="73" type="curve"/>
      <point x="209" y="73"/>
      <point x="179" y="103"/>
      <point x="157" y="144" type="curve"/>
      <point x="118" y="98"/>
      <point x="160" y="150"/>
      <point x="122" y="103" type="curve"/>
      <point x="160" y="36"/>
      <point x="205" y="-5"/>
      <point x="276" y="-5" type="curve"/>
      <point x="415" y="-5"/>
      <point x="449" y="126"/>
      <point x="450" y="271" type="curve"/>
      <point x="450" y="410"/>
      <point x="414" y="539"/>
      <point x="276" y="539" type="curve"/>
      <point x="203" y="539"/>
      <point x="149" y="467"/>
      <point x="127" y="403" type="curve"/>
      <point x="156" y="331"/>
      <point x="124" y="407"/>
    </contour>
    <contour>
      <point x="172" y="-300" type="curve"/>
      <point x="172" y="-22"/>
      <point x="172" y="255"/>
      <point x="172" y="533" type="curve"/>
      <point x="73" y="533"/>
      <point x="172" y="533"/>
      <point x="73" y="533" type="curve"/>
      <point x="73" y="255"/>
      <point x="73" y="-22"/>
      <point x="73" y="-300" type="curve"/>
      <point x="172" y="-300"/>
      <point x="73" y="-300"/>
    </contour>
  </outline>
</glyph>
<glyph name="q" format="1">
  <advance width="494"/>
  <unicode hex="0071"/>
  <outline>
    <contour>
      <point x="369" y="410" type="curve"/>
      <point x="344" y="488"/>
      <point x="284" y="538"/>
      <point x="217" y="538" type="curve"/>
      <point x="78" y="538"/>
      <point x="43" y="408"/>
      <point x="44" y="265" type="curve"/>
      <point x="44" y="121"/>
      <point x="84" y="-5"/>
      <point x="222" y="-5" type="curve"/>
      <point x="287" y="-5"/>
      <point x="341" y="54"/>
      <point x="365" y="119" type="curve"/>
      <point x="332" y="167"/>
      <point x="371" y="117"/>
      <point x="338" y="164" type="curve"/>
      <point x="320" y="117"/>
      <point x="284" y="73"/>
      <point x="238" y="73" type="curve"/>
      <point x="152" y="73"/>
      <point x="143" y="170"/>
      <point x="143" y="269" type="curve"/>
      <point x="143" y="364"/>
      <point x="154" y="457"/>
      <point x="235" y="457" type="curve"/>
      <point x="276" y="457"/>
      <point x="311" y="434"/>
      <point x="342" y="367" type="curve"/>
      <point x="365" y="417"/>
      <point x="346" y="360"/>
    </contour>
    <contour>
      <point x="421" y="-300" type="curve"/>
      <point x="421" y="-25"/>
      <point x="421" y="258"/>
      <point x="421" y="533" type="curve"/>
      <point x="308" y="533"/>
      <point x="431" y="533"/>
      <point x="318" y="533" type="curve"/>
      <point x="318" y="258"/>
      <point x="318" y="-25"/>
      <point x="318" y="-300" type="curve"/>
      <point x="431" y="-300"/>
      <point x="308" y="-300"/>
    </contour>
  </outline>
</glyph>
<glyph name="r" format="1">
  <advance width="301"/>
  <unicode hex="0072"/>
  <outline>
    <contour>
      <point x="172" y="0" type="curve"/>
      <point x="172" y="175"/>
      <point x="172" y="358"/>
      <point x="172" y="533" type="curve"/>
      <point x="63" y="533"/>
      <point x="181" y="533"/>
      <point x="73" y="533" type="curve"/>
      <point x="73" y="358"/>
      <point x="73" y="175"/>
      <point x="73" y="0" type="curve"/>
      <point x="181" y="0"/>
      <point x="63" y="0"/>
    </contour>
    <contour>
      <point x="152" y="320" type="curve"/>
      <point x="170" y="422"/>
      <point x="229" y="459"/>
      <point x="290" y="459" type="curve"/>
      <point x="290" y="548"/>
      <point x="290" y="448"/>
      <point x="290" y="538" type="curve"/>
      <point x="205" y="538"/>
      <point x="138" y="458"/>
      <point x="114" y="358" type="curve"/>
      <point x="152" y="317"/>
      <point x="116" y="359"/>
    </contour>
    <contour>
      <point x="124" y="632" type="move" name="top"/>
    </contour>
    <contour>
      <point x="168" y="-35" type="move" name="bottom"/>
    </contour>
  </outline>
</glyph>
<glyph name="s" format="1">
  <advance width="360"/>
  <unicode hex="0073"/>
  <outline>
    <contour>
      <point x="35" y="48" type="curve"/>
      <point x="80" y="16"/>
      <point x="127" y="-5"/>
      <point x="178" y="-5" type="curve"/>
      <point x="273" y="-5"/>
      <point x="327" y="55"/>
      <point x="327" y="150" type="curve"/>
      <point x="326" y="238"/>
      <point x="273" y="279"/>
      <point x="193" y="313" type="curve" smooth="yes"/>
      <point x="155" y="331"/>
      <point x="135" y="358"/>
      <point x="135" y="400" type="curve"/>
      <point x="135" y="429"/>
      <point x="147" y="456"/>
      <point x="176" y="456" type="curve"/>
      <point x="204" y="456"/>
      <point x="230" y="441"/>
      <point x="248" y="422" type="curve"/>
      <point x="291" y="488"/>
      <point x="250" y="427"/>
      <point x="294" y="493" type="curve"/>
      <point x="265" y="518"/>
      <point x="222" y="538"/>
      <point x="178" y="538" type="curve"/>
      <point x="95" y="538"/>
      <point x="45" y="484"/>
      <point x="45" y="400" type="curve"/>
      <point x="45" y="319"/>
      <point x="86" y="271"/>
      <point x="161" y="239" type="curve" smooth="yes"/>
      <point x="204" y="220"/>
      <point x="233" y="194"/>
      <point x="232" y="144" type="curve"/>
      <point x="232" y="107"/>
      <point x="214" y="80"/>
      <point x="184" y="80" type="curve"/>
      <point x="146" y="80"/>
      <point x="115" y="95"/>
      <point x="87" y="117" type="curve"/>
      <point x="35" y="48"/>
      <point x="87" y="117"/>
    </contour>
    <contour>
      <point x="182" y="632" type="move" name="top"/>
    </contour>
    <contour>
      <point x="212" y="-32" type="move" name="bottom"/>
    </contour>
  </outline>
</glyph>
<glyph name="t" format="1">
  <advance width="294"/>
  <unicode hex="0074"/>
  <outline>
    <contour>
      <point x="24" y="453" type="curve"/>
      <point x="281" y="453" type="line"/>
      <point x="281" y="532"/>
      <point x="281" y="453"/>
      <point x="281" y="532" type="curve"/>
      <point x="24" y="532" type="line"/>
      <point x="24" y="453"/>
      <point x="24" y="532"/>
    </contour>
    <contour>
      <point x="243" y="96" type="curve"/>
      <point x="232" y="85"/>
      <point x="223" y="77"/>
      <point x="207" y="77" type="curve"/>
      <point x="170" y="77"/>
      <point x="173" y="117"/>
      <point x="173" y="164" type="curve"/>
      <point x="173" y="679" type="line"/>
      <point x="68" y="614"/>
      <point x="178" y="678"/>
      <point x="74" y="612" type="curve"/>
      <point x="74" y="160" type="line"/>
      <point x="74" y="61"/>
      <point x="106" y="-6"/>
      <point x="193" y="-6" type="curve"/>
      <point x="229" y="-6"/>
      <point x="254" y="7"/>
      <point x="287" y="29" type="curve"/>
      <point x="243" y="96"/>
      <point x="287" y="29"/>
    </contour>
    <contour>
      <point x="228" y="-29" type="move" name="bottom"/>
    </contour>
  </outline>
</glyph>
<glyph name="v" format="1">
  <advance width="426"/>
  <unicode hex="0076"/>
  <outline>
    <contour>
      <point x="19" y="533" type="curve"/>
      <point x="64" y="355"/>
      <point x="109" y="178"/>
      <point x="153" y="0" type="curve"/>
      <point x="245" y="0"/>
      <point x="153" y="0"/>
      <point x="245" y="0" type="curve"/>
      <point x="201" y="177"/>
      <point x="164" y="356"/>
      <point x="120" y="533" type="curve"/>
      <point x="19" y="533"/>
      <point x="120" y="533"/>
    </contour>
    <contour>
      <point x="311" y="533" type="curve"/>
      <point x="178" y="0" type="line"/>
      <point x="271" y="0"/>
      <point x="178" y="0"/>
      <point x="271" y="0" type="curve"/>
      <point x="318" y="178"/>
      <point x="365" y="355"/>
      <point x="412" y="533" type="curve"/>
      <point x="311" y="533"/>
      <point x="412" y="533"/>
    </contour>
  </outline>
</glyph>
<glyph name="w" format="1">
  <advance width="613"/>
  <unicode hex="0077"/>
  <outline>
    <contour>
      <point x="221" y="0" type="curve"/>
      <point x="265" y="178"/>
      <point x="309" y="355"/>
      <point x="352" y="533" type="curve"/>
      <point x="267" y="533"/>
      <point x="352" y="533"/>
      <point x="267" y="533" type="curve"/>
      <point x="224" y="355"/>
      <point x="181" y="178"/>
      <point x="139" y="0" type="curve"/>
      <point x="221" y="0"/>
      <point x="139" y="0"/>
    </contour>
    <contour>
      <point x="510" y="533" type="curve"/>
      <point x="470" y="355"/>
      <point x="430" y="178"/>
      <point x="390" y="0" type="curve"/>
      <point x="472" y="0"/>
      <point x="390" y="0"/>
      <point x="472" y="0" type="curve"/>
      <point x="513" y="178"/>
      <point x="554" y="355"/>
      <point x="595" y="533" type="curve"/>
      <point x="510" y="533"/>
      <point x="595" y="533"/>
    </contour>
    <contour>
      <point x="272" y="533" type="curve"/>
      <point x="311" y="355"/>
      <point x="350" y="178"/>
      <point x="389" y="0" type="curve"/>
      <point x="472" y="0"/>
      <point x="389" y="0"/>
      <point x="472" y="0" type="curve"/>
      <point x="433" y="178"/>
      <point x="394" y="355"/>
      <point x="355" y="533" type="curve"/>
      <point x="272" y="533"/>
      <point x="355" y="533"/>
    </contour>
    <contour>
      <point x="21" y="533" type="curve"/>
      <point x="59" y="355"/>
      <point x="99" y="178"/>
      <point x="138" y="0" type="curve"/>
      <point x="220" y="0"/>
      <point x="138" y="0"/>
      <point x="220" y="0" type="curve"/>
      <point x="181" y="178"/>
      <point x="143" y="355"/>
      <point x="104" y="533" type="curve"/>
      <point x="21" y="533"/>
      <point x="104" y="533"/>
    </contour>
  </outline>
</glyph>
<glyph name="x" format="1">
  <advance width="418"/>
  <unicode hex="0078"/>
  <outline>
    <contour>
      <point x="406" y="0" type="curve"/>
      <point x="376" y="63"/>
      <point x="146" y="470"/>
      <point x="116" y="533" type="curve"/>
      <point x="22" y="533"/>
      <point x="107" y="533"/>
      <point x="13" y="533" type="curve"/>
      <point x="43" y="470"/>
      <point x="274" y="63"/>
      <point x="304" y="0" type="curve"/>
      <point x="406" y="0"/>
      <point x="304" y="0"/>
    </contour>
    <contour>
      <point x="306" y="533" type="curve"/>
      <point x="275" y="470"/>
      <point x="42" y="63"/>
      <point x="12" y="0" type="curve"/>
      <point x="112" y="0"/>
      <point x="12" y="0"/>
      <point x="112" y="0" type="curve"/>
      <point x="142" y="63"/>
      <point x="374" y="470"/>
      <point x="404" y="533" type="curve"/>
      <point x="318" y="533"/>
      <point x="392" y="533"/>
    </contour>
  </outline>
</glyph>
<glyph name="y" format="1">
  <advance width="450"/>
  <unicode hex="0079"/>
  <outline>
    <contour>
      <point x="273" y="-15" type="curve"/>
      <point x="234" y="114"/>
      <point x="155" y="404"/>
      <point x="116" y="533" type="curve"/>
      <point x="14" y="533"/>
      <point x="116" y="533"/>
      <point x="14" y="533" type="curve"/>
      <point x="56" y="405"/>
      <point x="138" y="111"/>
      <point x="180" y="-16" type="curve"/>
      <point x="273" y="-16"/>
      <point x="180" y="-15"/>
    </contour>
    <contour>
      <point x="184" y="-300" type="curve"/>
      <point x="249" y="-109"/>
      <point x="378" y="342"/>
      <point x="444" y="533" type="curve"/>
      <point x="342" y="533"/>
      <point x="444" y="533"/>
      <point x="342" y="533" type="curve"/>
      <point x="276" y="342"/>
      <point x="147" y="-109"/>
      <point x="82" y="-300" type="curve"/>
      <point x="184" y="-300"/>
      <point x="82" y="-300"/>
    </contour>
    <contour>
      <point x="234" y="632" type="move" name="top"/>
    </contour>
  </outline>
</glyph>
<glyph name="braceleft" format="1">
  <advance width="213"/>
  <unicode hex="007B"/>
  <outline>
    <contour>
      <point x="176" y="-36" type="curve"/>
      <point x="139" y="-36"/>
      <point x="146" y="8"/>
      <point x="146" y="51" type="curve"/>
      <point x="146" y="105"/>
      <point x="146" y="159"/>
      <point x="146" y="213" type="curve"/>
      <point x="146" y="306"/>
      <point x="111" y="381"/>
      <point x="27" y="381" type="curve"/>
      <point x="27" y="299"/>
      <point x="27" y="381"/>
      <point x="27" y="299" type="curve"/>
      <point x="59" y="299"/>
      <point x="56" y="260"/>
      <point x="56" y="221" type="curve"/>
      <point x="56" y="166"/>
      <point x="56" y="110"/>
      <point x="56" y="56" type="curve"/>
      <point x="56" y="-40"/>
      <point x="90" y="-114"/>
      <point x="176" y="-114" type="curve"/>
      <point x="176" y="-36"/>
      <point x="176" y="-114"/>
    </contour>
    <contour>
      <point x="176" y="794" type="curve"/>
      <point x="90" y="794"/>
      <point x="56" y="721"/>
      <point x="56" y="627" type="curve"/>
      <point x="56" y="570"/>
      <point x="56" y="513"/>
      <point x="56" y="457" type="curve"/>
      <point x="56" y="418"/>
      <point x="58" y="381"/>
      <point x="27" y="381" type="curve"/>
      <point x="27" y="299"/>
      <point x="27" y="381"/>
      <point x="27" y="299" type="curve"/>
      <point x="112" y="299"/>
      <point x="146" y="373"/>
      <point x="146" y="469" type="curve"/>
      <point x="146" y="521"/>
      <point x="146" y="574"/>
      <point x="146" y="627" type="curve"/>
      <point x="146" y="671"/>
      <point x="138" y="715"/>
      <point x="176" y="715" type="curve"/>
      <point x="176" y="794"/>
      <point x="176" y="715"/>
    </contour>
  </outline>
</glyph>
<glyph name="braceright" format="1">
  <advance width="213"/>
  <unicode hex="007D"/>
  <outline>
    <contour>
      <point x="36" y="-114" type="curve"/>
      <point x="121" y="-114"/>
      <point x="156" y="-40"/>
      <point x="156" y="56" type="curve"/>
      <point x="156" y="110"/>
      <point x="156" y="166"/>
      <point x="156" y="221" type="curve"/>
      <point x="156" y="260"/>
      <point x="152" y="299"/>
      <point x="185" y="299" type="curve"/>
      <point x="185" y="381"/>
      <point x="185" y="299"/>
      <point x="185" y="381" type="curve"/>
      <point x="100" y="381"/>
      <point x="66" y="306"/>
      <point x="66" y="213" type="curve"/>
      <point x="66" y="159"/>
      <point x="66" y="105"/>
      <point x="66" y="51" type="curve"/>
      <point x="66" y="8"/>
      <point x="73" y="-36"/>
      <point x="36" y="-36" type="curve"/>
      <point x="36" y="-114"/>
      <point x="36" y="-36"/>
    </contour>
    <contour>
      <point x="36" y="715" type="curve"/>
      <point x="73" y="715"/>
      <point x="66" y="671"/>
      <point x="66" y="627" type="curve"/>
      <point x="66" y="574"/>
      <point x="66" y="521"/>
      <point x="66" y="469" type="curve"/>
      <point x="66" y="373"/>
      <point x="100" y="299"/>
      <point x="185" y="299" type="curve"/>
      <point x="185" y="381"/>
      <point x="185" y="299"/>
      <point x="185" y="381" type="curve"/>
      <point x="153" y="381"/>
      <point x="156" y="418"/>
      <point x="156" y="457" type="curve"/>
      <point x="156" y="513"/>
      <point x="156" y="570"/>
      <point x="156" y="627" type="curve"/>
      <point x="156" y="721"/>
      <point x="121" y="794"/>
      <point x="36" y="794" type="curve"/>
      <point x="36" y="715"/>
      <point x="36" y="794"/>
    </contour>
  </outline>
</glyph>
<glyph name="asciitilde" format="1">
  <advance width="516"/>
  <unicode hex="007E"/>
  <outline>
    <contour>
      <point x="377" y="367" type="curve"/>
      <point x="368" y="329"/>
      <point x="359" y="286"/>
      <point x="333" y="286" type="curve"/>
      <point x="313" y="286"/>
      <point x="303" y="298"/>
      <point x="292" y="314" type="curve"/>
      <point x="261" y="353"/>
      <point x="236" y="376"/>
      <point x="186" y="376" type="curve"/>
      <point x="105" y="376"/>
      <point x="75" y="319"/>
      <point x="59" y="235" type="curve"/>
      <point x="96" y="224"/>
      <point x="104" y="220"/>
      <point x="141" y="209" type="curve"/>
      <point x="148" y="250"/>
      <point x="156" y="292"/>
      <point x="185" y="292" type="curve"/>
      <point x="205" y="292"/>
      <point x="214" y="280"/>
      <point x="227" y="264" type="curve"/>
      <point x="259" y="224"/>
      <point x="285" y="203"/>
      <point x="335" y="202" type="curve"/>
      <point x="415" y="202"/>
      <point x="437" y="264"/>
      <point x="456" y="344" type="curve"/>
      <point x="421" y="354"/>
      <point x="412" y="357"/>
    </contour>
  </outline>
</glyph>
<glyph name="exclamdown" format="1">
  <advance width="244"/>
  <unicode hex="00A1"/>
  <outline>
    <contour>
      <point x="72" y="297" type="line"/>
      <point x="64" y="-196" type="line"/>
      <point x="180" y="-196" type="line"/>
      <point x="175" y="297" type="line"/>
    </contour>
    <contour>
      <point x="73" y="483" type="curve"/>
      <point x="73" y="448"/>
      <point x="94" y="431"/>
      <point x="125" y="430" type="curve"/>
      <point x="156" y="430"/>
      <point x="176" y="449"/>
      <point x="176" y="482" type="curve"/>
      <point x="71" y="483"/>
      <point x="178" y="482"/>
      <point x="73" y="483" type="curve"/>
      <point x="73" y="518"/>
      <point x="94" y="534"/>
      <point x="125" y="533" type="curve"/>
      <point x="157" y="533"/>
      <point x="176" y="516"/>
      <point x="176" y="482" type="curve"/>
      <point x="71" y="483"/>
      <point x="178" y="482"/>
    </contour>
  </outline>
</glyph>
<glyph name="cent" format="1">
  <advance width="471"/>
  <unicode hex="00A2"/>
  <outline>
    <contour>
      <point x="302" y="-53" type="curve"/>
      <point x="302" y="-13"/>
      <point x="302" y="27"/>
      <point x="302" y="67" type="curve"/>
      <point x="203" y="67"/>
      <point x="302" y="67"/>
      <point x="203" y="67" type="curve"/>
      <point x="203" y="27"/>
      <point x="203" y="-13"/>
      <point x="203" y="-53" type="curve"/>
      <point x="302" y="-53"/>
      <point x="203" y="-53"/>
    </contour>
    <contour>
      <point x="217" y="778" type="curve"/>
      <point x="217" y="742"/>
      <point x="217" y="706"/>
      <point x="217" y="670" type="curve"/>
      <point x="316" y="670"/>
      <point x="217" y="670"/>
      <point x="316" y="670" type="curve"/>
      <point x="316" y="706"/>
      <point x="316" y="742"/>
      <point x="316" y="778" type="curve"/>
      <point x="217" y="778"/>
      <point x="316" y="778"/>
    </contour>
    <contour>
      <point x="432" y="606" type="curve"/>
      <point x="383" y="662"/>
      <point x="338" y="684"/>
      <point x="272" y="684" type="curve"/>
      <point x="111" y="684"/>
      <point x="42" y="544"/>
      <point x="42" y="364" type="curve"/>
      <point x="42" y="190"/>
      <point x="94" y="48"/>
      <point x="248" y="48" type="curve"/>
      <point x="327" y="48"/>
      <point x="380" y="78"/>
      <point x="429" y="148" type="curve"/>
      <point x="367" y="204"/>
      <point x="429" y="148"/>
      <point x="367" y="204" type="curve"/>
      <point x="336" y="164"/>
      <point x="309" y="130"/>
      <point x="257" y="130" type="curve"/>
      <point x="159" y="130"/>
      <point x="141" y="243"/>
      <point x="141" y="368" type="curve"/>
      <point x="141" y="492"/>
      <point x="169" y="602"/>
      <point x="263" y="602" type="curve"/>
      <point x="311" y="602"/>
      <point x="342" y="581"/>
      <point x="373" y="545" type="curve"/>
      <point x="432" y="606"/>
      <point x="373" y="545"/>
    </contour>
  </outline>
</glyph>
<glyph name="sterling" format="1">
  <advance width="367"/>
  <unicode hex="00A3"/>
  <outline>
    <contour>
      <point x="306" y="79" type="curve"/>
      <point x="219" y="79"/>
      <point x="127" y="79"/>
      <point x="41" y="79" type="curve"/>
      <point x="41" y="0"/>
      <point x="41" y="79"/>
      <point x="41" y="0" type="curve"/>
      <point x="127" y="0"/>
      <point x="220" y="0"/>
      <point x="306" y="0" type="curve"/>
      <point x="306" y="79"/>
      <point x="306" y="0"/>
    </contour>
    <contour>
      <point x="270" y="415" type="curve"/>
      <point x="201" y="415"/>
      <point x="124" y="415"/>
      <point x="55" y="415" type="curve"/>
      <point x="55" y="337"/>
      <point x="55" y="415"/>
      <point x="55" y="337" type="curve"/>
      <point x="124" y="337"/>
      <point x="201" y="337"/>
      <point x="270" y="337" type="curve"/>
      <point x="270" y="415"/>
      <point x="270" y="337"/>
    </contour>
    <contour>
      <point x="329" y="666" type="curve"/>
      <point x="296" y="707"/>
      <point x="267" y="722"/>
      <point x="223" y="722" type="curve"/>
      <point x="73" y="722"/>
      <point x="67" y="558"/>
      <point x="95" y="367" type="curve"/>
      <point x="115" y="220"/>
      <point x="132" y="79"/>
      <point x="41" y="79" type="curve"/>
      <point x="41" y="0"/>
      <point x="41" y="79"/>
      <point x="41" y="0" type="curve"/>
      <point x="207" y="0"/>
      <point x="209" y="179"/>
      <point x="181" y="384" type="curve"/>
      <point x="163" y="517"/>
      <point x="143" y="647"/>
      <point x="217" y="647" type="curve"/>
      <point x="245" y="647"/>
      <point x="260" y="629"/>
      <point x="277" y="609" type="curve"/>
      <point x="329" y="666"/>
      <point x="277" y="609"/>
    </contour>
  </outline>
</glyph>
<glyph name="currency" format="1">
  <advance width="546"/>
  <unicode hex="00A4"/>
  <outline>
    <contour>
      <point x="222" y="315" type="curve"/>
      <point x="222" y="368"/>
      <point x="226" y="421"/>
      <point x="271" y="421" type="curve"/>
      <point x="318" y="421"/>
      <point x="321" y="372"/>
      <point x="321" y="315" type="curve"/>
      <point x="321" y="259"/>
      <point x="319" y="202"/>
      <point x="273" y="202" type="curve"/>
      <point x="224" y="202"/>
      <point x="222" y="257"/>
      <point x="222" y="315" type="curve"/>
      <point x="123" y="315"/>
      <point x="228" y="315"/>
      <point x="129" y="315" type="curve"/>
      <point x="129" y="206"/>
      <point x="174" y="124"/>
      <point x="274" y="124" type="curve"/>
      <point x="373" y="124"/>
      <point x="417" y="209"/>
      <point x="417" y="317" type="curve"/>
      <point x="417" y="420"/>
      <point x="374" y="499"/>
      <point x="279" y="499" type="curve"/>
      <point x="179" y="499"/>
      <point x="129" y="420"/>
      <point x="129" y="315" type="curve"/>
      <point x="228" y="315"/>
      <point x="123" y="315"/>
    </contour>
    <contour>
      <point x="342" y="377" type="line"/>
      <point x="492" y="517" type="line"/>
      <point x="422" y="587" type="line"/>
      <point x="282" y="436" type="line"/>
    </contour>
    <contour>
      <point x="288" y="195" type="line"/>
      <point x="428" y="45" type="line"/>
      <point x="498" y="115" type="line"/>
      <point x="347" y="255" type="line"/>
    </contour>
    <contour>
      <point x="199" y="254" type="line"/>
      <point x="49" y="114" type="line"/>
      <point x="119" y="44" type="line"/>
      <point x="259" y="195" type="line"/>
    </contour>
    <contour>
      <point x="266" y="437" type="line"/>
      <point x="126" y="588" type="line"/>
      <point x="56" y="518" type="line"/>
      <point x="207" y="377" type="line"/>
    </contour>
  </outline>
</glyph>
<glyph name="yen" format="1">
  <advance width="473"/>
  <unicode hex="00A5"/>
  <outline>
    <contour>
      <point x="379" y="399" type="curve"/>
      <point x="333" y="399"/>
      <point x="288" y="399"/>
      <point x="243" y="399" type="curve"/>
      <point x="243" y="313"/>
      <point x="243" y="399"/>
      <point x="243" y="313" type="curve"/>
      <point x="288" y="313"/>
      <point x="333" y="313"/>
      <point x="379" y="313" type="curve"/>
      <point x="379" y="399"/>
      <point x="379" y="313"/>
    </contour>
    <contour>
      <point x="224" y="399" type="curve"/>
      <point x="179" y="399"/>
      <point x="135" y="399"/>
      <point x="91" y="399" type="curve"/>
      <point x="91" y="313"/>
      <point x="91" y="399"/>
      <point x="91" y="313" type="curve"/>
      <point x="135" y="313"/>
      <point x="179" y="313"/>
      <point x="224" y="313" type="curve"/>
      <point x="224" y="399"/>
      <point x="224" y="313"/>
    </contour>
    <contour>
      <point x="379" y="267" type="curve"/>
      <point x="282" y="267"/>
      <point x="186" y="267"/>
      <point x="91" y="267" type="curve"/>
      <point x="91" y="181"/>
      <point x="91" y="267"/>
      <point x="91" y="181" type="curve"/>
      <point x="186" y="181"/>
      <point x="282" y="181"/>
      <point x="379" y="181" type="curve"/>
      <point x="379" y="267"/>
      <point x="379" y="181"/>
    </contour>
    <contour>
      <point x="33" y="722" type="curve"/>
      <point x="85" y="593"/>
      <point x="129" y="469"/>
      <point x="179" y="337" type="curve"/>
      <point x="280" y="337"/>
      <point x="163" y="337"/>
      <point x="264" y="337" type="curve"/>
      <point x="220" y="469"/>
      <point x="178" y="592"/>
      <point x="132" y="722" type="curve"/>
      <point x="28" y="722"/>
      <point x="137" y="722"/>
    </contour>
    <contour>
      <point x="343" y="722" type="curve"/>
      <point x="292" y="590"/>
      <point x="248" y="468"/>
      <point x="196" y="337" type="curve"/>
      <point x="297" y="337"/>
      <point x="187" y="337"/>
      <point x="288" y="337" type="curve"/>
      <point x="342" y="468"/>
      <point x="390" y="593"/>
      <point x="444" y="722" type="curve"/>
      <point x="340" y="722"/>
      <point x="448" y="722"/>
    </contour>
    <contour>
      <point x="287" y="0" type="curve"/>
      <point x="287" y="115"/>
      <point x="287" y="224"/>
      <point x="287" y="339" type="curve"/>
      <point x="180" y="339"/>
      <point x="287" y="339"/>
      <point x="180" y="339" type="curve"/>
      <point x="180" y="224"/>
      <point x="180" y="115"/>
      <point x="180" y="0" type="curve"/>
      <point x="287" y="0"/>
      <point x="180" y="0"/>
    </contour>
  </outline>
</glyph>
<glyph name="section" format="1">
  <advance width="396"/>
  <unicode hex="00A7"/>
  <outline>
    <contour>
      <point x="314" y="701" type="curve"/>
      <point x="276" y="734"/>
      <point x="247" y="749"/>
      <point x="202" y="749" type="curve"/>
      <point x="115" y="749"/>
      <point x="67" y="690"/>
      <point x="67" y="606" type="curve"/>
      <point x="67" y="531"/>
      <point x="100" y="480"/>
      <point x="167" y="447" type="curve"/>
      <point x="212" y="424"/>
      <point x="255" y="408"/>
      <point x="255" y="362" type="curve"/>
      <point x="255" y="313"/>
      <point x="238" y="275"/>
      <point x="192" y="262" type="curve"/>
      <point x="251" y="200"/>
      <point x="192" y="262"/>
      <point x="251" y="200" type="curve"/>
      <point x="324" y="223"/>
      <point x="355" y="283"/>
      <point x="355" y="361" type="curve"/>
      <point x="354" y="444"/>
      <point x="295" y="486"/>
      <point x="216" y="522" type="curve"/>
      <point x="182" y="538"/>
      <point x="159" y="567"/>
      <point x="159" y="606" type="curve"/>
      <point x="159" y="638"/>
      <point x="171" y="671"/>
      <point x="204" y="671" type="curve"/>
      <point x="234" y="671"/>
      <point x="246" y="658"/>
      <point x="265" y="641" type="curve"/>
      <point x="314" y="701"/>
      <point x="265" y="641"/>
    </contour>
    <contour>
      <point x="147" y="523" type="curve"/>
      <point x="78" y="493"/>
      <point x="44" y="441"/>
      <point x="44" y="366" type="curve"/>
      <point x="44" y="286"/>
      <point x="92" y="237"/>
      <point x="167" y="203" type="curve"/>
      <point x="206" y="184"/>
      <point x="240" y="167"/>
      <point x="240" y="122" type="curve"/>
      <point x="240" y="84"/>
      <point x="228" y="51"/>
      <point x="198" y="51" type="curve"/>
      <point x="164" y="51"/>
      <point x="147" y="68"/>
      <point x="126" y="93" type="curve"/>
      <point x="69" y="39"/>
      <point x="126" y="93"/>
      <point x="69" y="39" type="curve"/>
      <point x="107" y="-8"/>
      <point x="143" y="-27"/>
      <point x="197" y="-27" type="curve"/>
      <point x="283" y="-27"/>
      <point x="336" y="32"/>
      <point x="336" y="121" type="curve"/>
      <point x="335" y="196"/>
      <point x="299" y="247"/>
      <point x="230" y="278" type="curve"/>
      <point x="185" y="300"/>
      <point x="143" y="319"/>
      <point x="143" y="365" type="curve"/>
      <point x="143" y="410"/>
      <point x="156" y="446"/>
      <point x="196" y="464" type="curve"/>
      <point x="147" y="523"/>
      <point x="196" y="464"/>
    </contour>
  </outline>
</glyph>
<glyph name="dieresis" format="1">
  <advance width="366"/>
  <unicode hex="00A8"/>
  <outline>
    <contour>
      <point x="154" y="679" type="curve"/>
      <point x="154" y="714"/>
      <point x="132" y="731"/>
      <point x="102" y="731" type="curve"/>
      <point x="70" y="731"/>
      <point x="51" y="712"/>
      <point x="51" y="679" type="curve"/>
      <point x="155" y="679"/>
      <point x="49" y="679"/>
      <point x="154" y="679" type="curve"/>
      <point x="154" y="644"/>
      <point x="133" y="628"/>
      <point x="102" y="628" type="curve"/>
      <point x="70" y="628"/>
      <point x="51" y="646"/>
      <point x="51" y="679" type="curve"/>
      <point x="155" y="679"/>
      <point x="49" y="679"/>
    </contour>
    <contour>
      <point x="305" y="679" type="curve"/>
      <point x="305" y="714"/>
      <point x="283" y="731"/>
      <point x="252" y="731" type="curve"/>
      <point x="221" y="731"/>
      <point x="201" y="712"/>
      <point x="201" y="679" type="curve"/>
      <point x="306" y="679"/>
      <point x="200" y="679"/>
      <point x="305" y="679" type="curve"/>
      <point x="305" y="644"/>
      <point x="283" y="628"/>
      <point x="252" y="628" type="curve"/>
      <point x="220" y="628"/>
      <point x="201" y="646"/>
      <point x="201" y="679" type="curve"/>
      <point x="306" y="679"/>
      <point x="200" y="679"/>
    </contour>
    <contour>
      <point x="177" y="634" type="move" name="_top"/>
    </contour>
  </outline>
</glyph>
<glyph name="copyright" format="1">
  <advance width="570"/>
  <unicode hex="00A9"/>
  <outline>
    <contour>
      <point x="128" y="322" type="curve"/>
      <point x="128" y="458"/>
      <point x="170" y="581"/>
      <point x="286" y="581" type="curve"/>
      <point x="401" y="581"/>
      <point x="441" y="456"/>
      <point x="441" y="321" type="curve"/>
      <point x="441" y="189"/>
      <point x="403" y="66"/>
      <point x="292" y="66" type="curve"/>
      <point x="176" y="66"/>
      <point x="128" y="188"/>
      <point x="128" y="322" type="curve"/>
      <point x="46" y="322"/>
      <point x="130" y="322"/>
      <point x="48" y="322" type="curve"/>
      <point x="48" y="149"/>
      <point x="129" y="2"/>
      <point x="288" y="2" type="curve"/>
      <point x="444" y="2"/>
      <point x="519" y="150"/>
      <point x="519" y="323" type="curve"/>
      <point x="519" y="498"/>
      <point x="442" y="645"/>
      <point x="286" y="645" type="curve"/>
      <point x="128" y="645"/>
      <point x="48" y="498"/>
      <point x="48" y="322" type="curve"/>
      <point x="130" y="322"/>
      <point x="46" y="322"/>
    </contour>
    <contour>
      <point x="394" y="442" type="curve"/>
      <point x="365" y="491"/>
      <point x="333" y="507"/>
      <point x="292" y="507" type="curve"/>
      <point x="196" y="507"/>
      <point x="159" y="426"/>
      <point x="159" y="322" type="curve"/>
      <point x="159" y="220"/>
      <point x="190" y="141"/>
      <point x="281" y="141" type="curve"/>
      <point x="328" y="141"/>
      <point x="361" y="152"/>
      <point x="392" y="204" type="curve"/>
      <point x="339" y="239"/>
      <point x="392" y="204"/>
      <point x="339" y="239" type="curve"/>
      <point x="324" y="219"/>
      <point x="310" y="206"/>
      <point x="284" y="206" type="curve"/>
      <point x="234" y="206"/>
      <point x="233" y="263"/>
      <point x="233" y="324" type="curve"/>
      <point x="233" y="386"/>
      <point x="237" y="443"/>
      <point x="289" y="443" type="curve"/>
      <point x="309" y="443"/>
      <point x="323" y="435"/>
      <point x="333" y="417" type="curve"/>
      <point x="400" y="445"/>
      <point x="327" y="415"/>
    </contour>
  </outline>
</glyph>
<glyph name="ordfeminine" format="1">
  <advance width="319"/>
  <unicode hex="00AA"/>
  <outline>
    <contour>
      <point x="255" y="426" type="curve"/>
      <point x="255" y="510"/>
      <point x="255" y="585"/>
      <point x="255" y="669" type="curve"/>
      <point x="255" y="732"/>
      <point x="217" y="767"/>
      <point x="156" y="767" type="curve"/>
      <point x="112" y="767"/>
      <point x="84" y="747"/>
      <point x="61" y="719" type="curve"/>
      <point x="84" y="679"/>
      <point x="63" y="715"/>
      <point x="87" y="675" type="curve"/>
      <point x="102" y="692"/>
      <point x="117" y="712"/>
      <point x="147" y="712" type="curve"/>
      <point x="176" y="712"/>
      <point x="189" y="690"/>
      <point x="189" y="660" type="curve"/>
      <point x="189" y="578"/>
      <point x="189" y="507"/>
      <point x="189" y="426" type="curve"/>
      <point x="250" y="426"/>
      <point x="194" y="426"/>
    </contour>
    <contour>
      <point x="221" y="642" type="curve"/>
      <point x="191" y="637"/>
      <point x="171" y="634"/>
      <point x="142" y="628" type="curve"/>
      <point x="83" y="618"/>
      <point x="45" y="586"/>
      <point x="45" y="526" type="curve"/>
      <point x="45" y="465"/>
      <point x="75" y="424"/>
      <point x="134" y="424" type="curve"/>
      <point x="189" y="424"/>
      <point x="210" y="474"/>
      <point x="239" y="516" type="curve"/>
      <point x="208" y="543"/>
      <point x="236" y="519"/>
      <point x="206" y="546" type="curve"/>
      <point x="193" y="509"/>
      <point x="184" y="477"/>
      <point x="150" y="477" type="curve"/>
      <point x="120" y="477"/>
      <point x="109" y="499"/>
      <point x="109" y="530" type="curve"/>
      <point x="109" y="555"/>
      <point x="123" y="576"/>
      <point x="144" y="581" type="curve"/>
      <point x="176" y="587"/>
      <point x="191" y="591"/>
      <point x="223" y="597" type="curve"/>
      <point x="221" y="638"/>
      <point x="223" y="601"/>
    </contour>
  </outline>
</glyph>
<glyph name="guillemotleft" format="1">
  <advance width="409"/>
  <unicode hex="00AB"/>
  <outline>
    <contour>
      <point x="190" y="458" type="curve"/>
      <point x="166" y="436"/>
      <point x="65" y="356"/>
      <point x="40" y="334" type="curve"/>
      <point x="40" y="247"/>
      <point x="40" y="319"/>
      <point x="40" y="232" type="curve"/>
      <point x="65" y="255"/>
      <point x="166" y="342"/>
      <point x="190" y="365" type="curve"/>
      <point x="190" y="451"/>
      <point x="190" y="372"/>
    </contour>
    <contour>
      <point x="191" y="203" type="curve"/>
      <point x="167" y="226"/>
      <point x="65" y="311"/>
      <point x="40" y="334" type="curve"/>
      <point x="40" y="247"/>
      <point x="40" y="319"/>
      <point x="40" y="232" type="curve"/>
      <point x="65" y="210"/>
      <point x="167" y="132"/>
      <point x="191" y="110" type="curve"/>
      <point x="191" y="196"/>
      <point x="191" y="118"/>
    </contour>
    <contour>
      <point x="344" y="458" type="curve"/>
      <point x="320" y="436"/>
      <point x="219" y="356"/>
      <point x="194" y="334" type="curve"/>
      <point x="194" y="247"/>
      <point x="194" y="319"/>
      <point x="194" y="232" type="curve"/>
      <point x="219" y="255"/>
      <point x="320" y="342"/>
      <point x="344" y="365" type="curve"/>
      <point x="344" y="451"/>
      <point x="344" y="372"/>
    </contour>
    <contour>
      <point x="344" y="203" type="curve"/>
      <point x="320" y="226"/>
      <point x="219" y="311"/>
      <point x="194" y="334" type="curve"/>
      <point x="194" y="247"/>
      <point x="194" y="319"/>
      <point x="194" y="232" type="curve"/>
      <point x="219" y="210"/>
      <point x="320" y="132"/>
      <point x="344" y="110" type="curve"/>
      <point x="344" y="196"/>
      <point x="344" y="118"/>
    </contour>
  </outline>
</glyph>
<glyph name="logicalnot" format="1">
  <advance width="501"/>
  <unicode hex="00AC"/>
  <outline>
    <contour>
      <point x="67" y="271" type="curve"/>
      <point x="431" y="271" type="line"/>
      <point x="431" y="356"/>
      <point x="431" y="271"/>
      <point x="431" y="356" type="curve"/>
      <point x="67" y="356" type="line"/>
      <point x="67" y="271"/>
      <point x="67" y="356"/>
    </contour>
    <contour>
      <point x="431" y="143" type="curve"/>
      <point x="431" y="356" type="line"/>
      <point x="332" y="356"/>
      <point x="430" y="356"/>
      <point x="331" y="356" type="curve"/>
      <point x="331" y="143" type="line"/>
      <point x="430" y="143"/>
      <point x="332" y="143"/>
    </contour>
  </outline>
</glyph>
<glyph name="registered" format="1">
  <advance width="589"/>
  <unicode hex="00AE"/>
  <outline>
    <contour>
      <point x="119" y="321" type="curve"/>
      <point x="119" y="465"/>
      <point x="169" y="586"/>
      <point x="297" y="586" type="curve"/>
      <point x="424" y="586"/>
      <point x="472" y="464"/>
      <point x="472" y="319" type="curve"/>
      <point x="472" y="178"/>
      <point x="427" y="58"/>
      <point x="303" y="58" type="curve"/>
      <point x="174" y="58"/>
      <point x="119" y="176"/>
      <point x="119" y="321" type="curve"/>
      <point x="88" y="321"/>
      <point x="81" y="321"/>
      <point x="51" y="321" type="curve"/>
      <point x="51" y="141"/>
      <point x="133" y="0"/>
      <point x="299" y="0" type="curve"/>
      <point x="464" y="0"/>
      <point x="538" y="143"/>
      <point x="538" y="322" type="curve"/>
      <point x="538" y="502"/>
      <point x="462" y="644"/>
      <point x="297" y="644" type="curve"/>
      <point x="130" y="644"/>
      <point x="51" y="502"/>
      <point x="51" y="321" type="curve"/>
      <point x="81" y="321"/>
      <point x="88" y="321"/>
    </contour>
    <contour>
      <point x="280" y="317" type="curve"/>
      <point x="284" y="301"/>
      <point x="338" y="160"/>
      <point x="343" y="144" type="curve"/>
      <point x="381" y="144"/>
      <point x="371" y="144"/>
      <point x="408" y="144" type="curve"/>
      <point x="404" y="159"/>
      <point x="348" y="295"/>
      <point x="344" y="312" type="curve"/>
      <point x="255" y="312"/>
      <point x="368" y="318"/>
    </contour>
    <contour>
      <point x="280" y="144" type="curve"/>
      <point x="280" y="242"/>
      <point x="280" y="403"/>
      <point x="280" y="501" type="curve"/>
      <point x="232" y="501"/>
      <point x="261" y="502"/>
      <point x="208" y="502" type="curve"/>
      <point x="208" y="405"/>
      <point x="208" y="241"/>
      <point x="208" y="144" type="curve"/>
      <point x="258" y="144"/>
      <point x="221" y="144"/>
    </contour>
    <contour>
      <point x="250" y="278" type="curve"/>
      <point x="262" y="278"/>
      <point x="274" y="278"/>
      <point x="286" y="278" type="curve"/>
      <point x="356" y="278"/>
      <point x="397" y="318"/>
      <point x="397" y="392" type="curve"/>
      <point x="397" y="456"/>
      <point x="363" y="502"/>
      <point x="302" y="502" type="curve"/>
      <point x="298" y="502"/>
      <point x="209" y="502"/>
      <point x="205" y="502" type="curve"/>
      <point x="209" y="467"/>
      <point x="289" y="502"/>
      <point x="208" y="438" type="curve"/>
      <point x="234" y="438"/>
      <point x="261" y="438"/>
      <point x="287" y="438" type="curve"/>
      <point x="313" y="438"/>
      <point x="327" y="417"/>
      <point x="327" y="389" type="curve"/>
      <point x="327" y="363"/>
      <point x="319" y="343"/>
      <point x="297" y="343" type="curve"/>
      <point x="281" y="343"/>
      <point x="265" y="343"/>
      <point x="250" y="343" type="curve"/>
      <point x="250" y="278"/>
      <point x="250" y="343"/>
    </contour>
  </outline>
</glyph>
<glyph name="macron" format="1">
  <advance width="257"/>
  <unicode hex="00AF"/>
  <outline>
    <contour>
      <point x="175" y="686" type="curve"/>
      <point x="127" y="686"/>
      <point x="78" y="686"/>
      <point x="30" y="686" type="curve"/>
      <point x="30" y="608"/>
      <point x="30" y="686"/>
      <point x="30" y="608" type="curve"/>
      <point x="78" y="608"/>
      <point x="127" y="608"/>
      <point x="175" y="608" type="curve"/>
      <point x="175" y="686"/>
      <point x="175" y="608"/>
    </contour>
    <contour>
      <point x="103" y="608" type="move" name="_top"/>
    </contour>
  </outline>
</glyph>
<glyph name="degree" format="1">
  <advance width="359"/>
  <unicode hex="00B0"/>
  <outline>
    <contour>
      <point x="314" y="570" type="curve"/>
      <point x="314" y="671"/>
      <point x="273" y="746"/>
      <point x="178" y="746" type="curve"/>
      <point x="85" y="746"/>
      <point x="46" y="670"/>
      <point x="46" y="570" type="curve"/>
      <point x="72" y="570"/>
      <point x="99" y="570"/>
      <point x="125" y="570" type="curve"/>
      <point x="125" y="626"/>
      <point x="131" y="675"/>
      <point x="177" y="675" type="curve"/>
      <point x="224" y="675"/>
      <point x="231" y="625"/>
      <point x="231" y="570" type="curve"/>
      <point x="231" y="512"/>
      <point x="227" y="462"/>
      <point x="180" y="462" type="curve"/>
      <point x="131" y="462"/>
      <point x="125" y="513"/>
      <point x="125" y="570" type="curve"/>
      <point x="99" y="570"/>
      <point x="72" y="570"/>
      <point x="46" y="570" type="curve"/>
      <point x="46" y="467"/>
      <point x="85" y="390"/>
      <point x="180" y="390" type="curve"/>
      <point x="275" y="390"/>
      <point x="314" y="467"/>
    </contour>
  </outline>
</glyph>
<glyph name="plusminus" format="1">
  <advance width="599"/>
  <unicode hex="00B1"/>
  <outline>
    <contour>
      <point x="54" y="46" type="line"/>
      <point x="545" y="46" type="line"/>
      <point x="545" y="132" type="line"/>
      <point x="54" y="132" type="line"/>
    </contour>
    <contour>
      <point x="54" y="271" type="curve"/>
      <point x="545" y="271" type="line"/>
      <point x="545" y="356"/>
      <point x="545" y="271"/>
      <point x="545" y="356" type="curve"/>
      <point x="54" y="356" type="line"/>
      <point x="54" y="271"/>
      <point x="54" y="356"/>
    </contour>
    <contour>
      <point x="346" y="48" type="curve"/>
      <point x="346" y="581" type="line"/>
      <point x="247" y="581"/>
      <point x="352" y="581"/>
      <point x="253" y="581" type="curve"/>
      <point x="253" y="48" type="line"/>
      <point x="352" y="48"/>
      <point x="247" y="48"/>
    </contour>
  </outline>
</glyph>
<glyph name="twosuperior" format="1">
  <advance width="345"/>
  <unicode hex="00B2"/>
  <outline>
    <contour>
      <point x="46" y="371" type="curve"/>
      <point x="120" y="371"/>
      <point x="221" y="371"/>
      <point x="292" y="371" type="curve"/>
      <point x="292" y="402"/>
      <point x="292" y="393"/>
      <point x="292" y="432" type="curve"/>
      <point x="217" y="432"/>
      <point x="121" y="432"/>
      <point x="46" y="432" type="curve"/>
      <point x="46" y="371"/>
      <point x="46" y="432"/>
    </contour>
    <contour>
      <point x="123" y="671" type="curve"/>
      <point x="129" y="702"/>
      <point x="138" y="732"/>
      <point x="169" y="732" type="curve"/>
      <point x="200" y="732"/>
      <point x="209" y="699"/>
      <point x="209" y="661" type="curve"/>
      <point x="209" y="623"/>
      <point x="190" y="599"/>
      <point x="166" y="569" type="curve"/>
      <point x="126" y="524"/>
      <point x="86" y="478"/>
      <point x="46" y="432" type="curve"/>
      <point x="50" y="370"/>
      <point x="46" y="432"/>
      <point x="50" y="370" type="curve"/>
      <point x="100" y="418"/>
      <point x="173" y="469"/>
      <point x="219" y="520" type="curve"/>
      <point x="256" y="566"/>
      <point x="282" y="604"/>
      <point x="282" y="665" type="curve"/>
      <point x="282" y="740"/>
      <point x="242" y="794"/>
      <point x="171" y="794" type="curve"/>
      <point x="115" y="794"/>
      <point x="79" y="765"/>
      <point x="65" y="689" type="curve"/>
      <point x="123" y="671"/>
      <point x="65" y="689"/>
    </contour>
    <contour>
      <point x="182" y="795" type="move" name="_top"/>
    </contour>
    <contour>
      <point x="160" y="370" type="move" name="_bottom"/>
    </contour>
  </outline>
</glyph>
<glyph name="threesuperior" format="1">
  <advance width="309"/>
  <unicode hex="00B3"/>
  <outline>
    <contour>
      <point x="95" y="696" type="curve"/>
      <point x="104" y="711"/>
      <point x="114" y="728"/>
      <point x="135" y="728" type="curve"/>
      <point x="163" y="728"/>
      <point x="175" y="702"/>
      <point x="175" y="669" type="curve"/>
      <point x="175" y="633"/>
      <point x="146" y="611"/>
      <point x="109" y="607" type="curve"/>
      <point x="109" y="554"/>
      <point x="109" y="607"/>
      <point x="109" y="554" type="curve"/>
      <point x="191" y="557"/>
      <point x="253" y="598"/>
      <point x="253" y="675" type="curve"/>
      <point x="253" y="746"/>
      <point x="212" y="791"/>
      <point x="142" y="791" type="curve"/>
      <point x="102" y="791"/>
      <point x="66" y="768"/>
      <point x="45" y="734" type="curve"/>
      <point x="95" y="696"/>
      <point x="45" y="734"/>
    </contour>
    <contour>
      <point x="44" y="398" type="curve"/>
      <point x="69" y="376"/>
      <point x="96" y="363"/>
      <point x="129" y="363" type="curve"/>
      <point x="212" y="362"/>
      <point x="263" y="408"/>
      <point x="263" y="489" type="curve"/>
      <point x="263" y="565"/>
      <point x="194" y="595"/>
      <point x="109" y="599" type="curve"/>
      <point x="109" y="553"/>
      <point x="109" y="599"/>
      <point x="109" y="553" type="curve"/>
      <point x="154" y="549"/>
      <point x="185" y="524"/>
      <point x="185" y="485" type="curve"/>
      <point x="185" y="451"/>
      <point x="168" y="424"/>
      <point x="136" y="426" type="curve"/>
      <point x="116" y="426"/>
      <point x="98" y="432"/>
      <point x="85" y="445" type="curve"/>
      <point x="44" y="398"/>
      <point x="85" y="445"/>
    </contour>
    <contour>
      <point x="155" y="791" type="move" name="_top"/>
    </contour>
    <contour>
      <point x="151" y="364" type="move" name="_bottom"/>
    </contour>
  </outline>
</glyph>
<glyph name="paragraph" format="1">
  <advance width="606"/>
  <unicode hex="00B6"/>
  <outline>
    <contour>
      <point x="316" y="644" type="curve"/>
      <point x="442" y="644"/>
      <point x="316" y="644"/>
      <point x="442" y="644" type="curve"/>
      <point x="442" y="722"/>
      <point x="442" y="644"/>
      <point x="442" y="722" type="curve"/>
      <point x="400" y="722"/>
      <point x="357" y="722"/>
      <point x="316" y="722" type="curve"/>
      <point x="316" y="644"/>
      <point x="316" y="722"/>
    </contour>
    <contour>
      <point x="299" y="373" type="curve"/>
      <point x="270" y="352"/>
      <point x="247" y="338"/>
      <point x="211" y="338" type="curve"/>
      <point x="148" y="338"/>
      <point x="132" y="405"/>
      <point x="132" y="481" type="curve"/>
      <point x="132" y="567"/>
      <point x="162" y="644"/>
      <point x="239" y="644" type="curve"/>
      <point x="264" y="644"/>
      <point x="289" y="644"/>
      <point x="313" y="644" type="curve"/>
      <point x="313" y="722"/>
      <point x="313" y="644"/>
      <point x="313" y="722" type="curve"/>
      <point x="285" y="722"/>
      <point x="255" y="722"/>
      <point x="226" y="722" type="curve"/>
      <point x="100" y="722"/>
      <point x="33" y="618"/>
      <point x="33" y="484" type="curve"/>
      <point x="33" y="354"/>
      <point x="98" y="265"/>
      <point x="219" y="263" type="curve"/>
      <point x="262" y="263"/>
      <point x="297" y="284"/>
      <point x="330" y="309" type="curve"/>
      <point x="299" y="373"/>
      <point x="329" y="311"/>
    </contour>
    <contour>
      <point x="366" y="0" type="curve"/>
      <point x="366" y="241"/>
      <point x="366" y="481"/>
      <point x="366" y="722" type="curve"/>
      <point x="267" y="722"/>
      <point x="366" y="722"/>
      <point x="267" y="722" type="curve"/>
      <point x="267" y="481"/>
      <point x="267" y="241"/>
      <point x="267" y="0" type="curve"/>
      <point x="366" y="0"/>
      <point x="267" y="0"/>
    </contour>
    <contour>
      <point x="532" y="0" type="curve"/>
      <point x="532" y="241"/>
      <point x="532" y="481"/>
      <point x="532" y="722" type="curve"/>
      <point x="433" y="722"/>
      <point x="532" y="722"/>
      <point x="433" y="722" type="curve"/>
      <point x="433" y="481"/>
      <point x="433" y="241"/>
      <point x="433" y="0" type="curve"/>
      <point x="532" y="0"/>
      <point x="433" y="0"/>
    </contour>
  </outline>
</glyph>
<glyph name="periodcentered" format="1">
  <advance width="211"/>
  <unicode hex="00B7"/>
  <outline>
    <contour>
      <point x="157" y="440" type="curve"/>
      <point x="157" y="474"/>
      <point x="135" y="492"/>
      <point x="105" y="492" type="curve"/>
      <point x="73" y="492"/>
      <point x="54" y="473"/>
      <point x="54" y="440" type="curve"/>
      <point x="159" y="440"/>
      <point x="52" y="440"/>
      <point x="157" y="440" type="curve"/>
      <point x="157" y="405"/>
      <point x="136" y="389"/>
      <point x="105" y="389" type="curve"/>
      <point x="73" y="389"/>
      <point x="54" y="406"/>
      <point x="54" y="440" type="curve"/>
      <point x="159" y="440"/>
      <point x="52" y="440"/>
    </contour>
  </outline>
</glyph>
<glyph name="cedilla" format="1">
  <advance width="264"/>
  <unicode hex="00B8"/>
  <outline>
    <contour>
      <point x="107" y="111" type="curve"/>
      <point x="98" y="88"/>
      <point x="74" y="18"/>
      <point x="65" y="-6" type="curve"/>
      <point x="133" y="-68"/>
      <point x="65" y="-6"/>
      <point x="133" y="-68" type="curve"/>
      <point x="143" y="-42"/>
      <point x="173" y="30"/>
      <point x="183" y="57" type="curve"/>
      <point x="107" y="111"/>
      <point x="183" y="57"/>
    </contour>
    <contour>
      <point x="133" y="-68" type="curve"/>
      <point x="139" y="-62"/>
      <point x="143" y="-58"/>
      <point x="151" y="-58" type="curve"/>
      <point x="164" y="-58"/>
      <point x="168" y="-70"/>
      <point x="168" y="-86" type="curve"/>
      <point x="168" y="-106"/>
      <point x="157" y="-117"/>
      <point x="138" y="-117" type="curve"/>
      <point x="121" y="-117"/>
      <point x="108" y="-114"/>
      <point x="96" y="-103" type="curve"/>
      <point x="57" y="-160"/>
      <point x="96" y="-103"/>
      <point x="57" y="-160" type="curve"/>
      <point x="80" y="-178"/>
      <point x="103" y="-186"/>
      <point x="133" y="-186" type="curve"/>
      <point x="190" y="-186"/>
      <point x="226" y="-147"/>
      <point x="226" y="-85" type="curve"/>
      <point x="226" y="-26"/>
      <point x="195" y="16"/>
      <point x="139" y="16" type="curve"/>
      <point x="110" y="16"/>
      <point x="90" y="11"/>
      <point x="65" y="-6" type="curve"/>
      <point x="133" y="-68"/>
      <point x="65" y="-6"/>
    </contour>
    <contour>
      <point x="180" y="57" type="move" name="_bottom"/>
    </contour>
  </outline>
</glyph>
<glyph name="onesuperior" format="1">
  <advance width="245"/>
  <unicode hex="00B9"/>
  <outline>
    <contour>
      <point x="64" y="645" type="line"/>
      <point x="175" y="781" type="line"/>
      <point x="98" y="784" type="line"/>
      <point x="16" y="691" type="line"/>
    </contour>
    <contour>
      <point x="176" y="371" type="curve"/>
      <point x="176" y="784" type="line"/>
      <point x="98" y="784" type="line"/>
      <point x="98" y="371" type="line"/>
      <point x="145" y="371"/>
      <point x="115" y="371"/>
    </contour>
    <contour>
      <point x="129" y="783" type="move" name="_top"/>
    </contour>
    <contour>
      <point x="137" y="372" type="move" name="_bottom"/>
    </contour>
  </outline>
</glyph>
<glyph name="ordmasculine" format="1">
  <advance width="318"/>
  <unicode hex="00BA"/>
  <outline>
    <contour>
      <point x="102" y="597" type="curve"/>
      <point x="102" y="654"/>
      <point x="108" y="710"/>
      <point x="158" y="710" type="curve"/>
      <point x="205" y="710"/>
      <point x="211" y="655"/>
      <point x="211" y="596" type="curve"/>
      <point x="211" y="533"/>
      <point x="207" y="477"/>
      <point x="162" y="477" type="curve"/>
      <point x="106" y="477"/>
      <point x="102" y="533"/>
      <point x="102" y="597" type="curve"/>
      <point x="104" y="597"/>
      <point x="40" y="597"/>
      <point x="41" y="597" type="curve"/>
      <point x="41" y="498"/>
      <point x="73" y="422"/>
      <point x="160" y="422" type="curve"/>
      <point x="244" y="422"/>
      <point x="277" y="497"/>
      <point x="277" y="596" type="curve"/>
      <point x="277" y="692"/>
      <point x="245" y="764"/>
      <point x="161" y="764" type="curve"/>
      <point x="73" y="764"/>
      <point x="41" y="692"/>
      <point x="41" y="597" type="curve"/>
      <point x="40" y="597"/>
      <point x="104" y="597"/>
    </contour>
  </outline>
</glyph>
<glyph name="guillemotright" format="1">
  <advance width="413"/>
  <unicode hex="00BB"/>
  <outline>
    <contour>
      <point x="221" y="458" type="curve"/>
      <point x="245" y="436"/>
      <point x="346" y="356"/>
      <point x="371" y="334" type="curve"/>
      <point x="371" y="247"/>
      <point x="371" y="319"/>
      <point x="371" y="232" type="curve"/>
      <point x="346" y="255"/>
      <point x="245" y="342"/>
      <point x="221" y="365" type="curve"/>
      <point x="221" y="451"/>
      <point x="221" y="372"/>
    </contour>
    <contour>
      <point x="221" y="203" type="curve"/>
      <point x="245" y="226"/>
      <point x="346" y="311"/>
      <point x="371" y="334" type="curve"/>
      <point x="371" y="247"/>
      <point x="371" y="319"/>
      <point x="371" y="232" type="curve"/>
      <point x="346" y="210"/>
      <point x="245" y="132"/>
      <point x="221" y="110" type="curve"/>
      <point x="221" y="196"/>
      <point x="221" y="118"/>
    </contour>
    <contour>
      <point x="68" y="458" type="curve"/>
      <point x="91" y="436"/>
      <point x="192" y="356"/>
      <point x="217" y="334" type="curve"/>
      <point x="217" y="247"/>
      <point x="217" y="319"/>
      <point x="217" y="232" type="curve"/>
      <point x="192" y="255"/>
      <point x="91" y="342"/>
      <point x="68" y="365" type="curve"/>
      <point x="68" y="451"/>
      <point x="68" y="372"/>
    </contour>
    <contour>
      <point x="67" y="203" type="curve"/>
      <point x="91" y="226"/>
      <point x="192" y="311"/>
      <point x="217" y="334" type="curve"/>
      <point x="217" y="247"/>
      <point x="217" y="319"/>
      <point x="217" y="232" type="curve"/>
      <point x="192" y="210"/>
      <point x="91" y="132"/>
      <point x="67" y="110" type="curve"/>
      <point x="67" y="196"/>
      <point x="67" y="118"/>
    </contour>
  </outline>
</glyph>
<glyph name="onequarter" format="1">
  <advance width="722"/>
  <unicode hex="00BC"/>
  <outline>
    <contour>
      <point x="262" y="-56" type="line"/>
      <point x="537" y="725" type="line"/>
      <point x="445" y="725" type="line"/>
      <point x="170" y="-56" type="line"/>
    </contour>
    <contour>
      <point x="74" y="587" type="line"/>
      <point x="185" y="723" type="line"/>
      <point x="108" y="726" type="line"/>
      <point x="26" y="633" type="line"/>
    </contour>
    <contour>
      <point x="186" y="313" type="curve"/>
      <point x="186" y="726" type="line"/>
      <point x="108" y="726" type="line"/>
      <point x="108" y="313" type="line"/>
      <point x="155" y="313"/>
      <point x="125" y="313"/>
    </contour>
    <contour>
      <point x="688" y="119" type="line"/>
      <point x="413" y="119" type="line"/>
      <point x="413" y="57" type="line"/>
      <point x="688" y="57" type="line"/>
    </contour>
    <contour>
      <point x="447" y="60" type="line"/>
      <point x="608" y="363" type="line"/>
      <point x="553" y="377" type="line"/>
      <point x="413" y="119" type="line"/>
    </contour>
    <contour>
      <point x="630" y="-49" type="line"/>
      <point x="630" y="377" type="line"/>
      <point x="553" y="377" type="line"/>
      <point x="553" y="-49" type="line"/>
    </contour>
  </outline>
</glyph>
<glyph name="onehalf" format="1">
  <advance width="792"/>
  <unicode hex="00BD"/>
  <outline>
    <contour>
      <point x="298" y="-56" type="line"/>
      <point x="573" y="725" type="line"/>
      <point x="481" y="725" type="line"/>
      <point x="206" y="-56" type="line"/>
    </contour>
    <contour>
      <point x="74" y="587" type="line"/>
      <point x="185" y="723" type="line"/>
      <point x="108" y="726" type="line"/>
      <point x="26" y="633" type="line"/>
    </contour>
    <contour>
      <point x="186" y="313" type="curve"/>
      <point x="186" y="726" type="line"/>
      <point x="108" y="726" type="line"/>
      <point x="108" y="313" type="line"/>
      <point x="155" y="313"/>
      <point x="125" y="313"/>
    </contour>
    <contour>
      <point x="509" y="-51" type="curve"/>
      <point x="583" y="-51"/>
      <point x="683" y="-51"/>
      <point x="755" y="-51" type="curve"/>
      <point x="755" y="-19"/>
      <point x="755" y="-29"/>
      <point x="755" y="11" type="curve"/>
      <point x="679" y="11"/>
      <point x="583" y="11"/>
      <point x="509" y="11" type="curve"/>
      <point x="509" y="-51"/>
      <point x="509" y="11"/>
    </contour>
    <contour>
      <point x="586" y="250" type="curve"/>
      <point x="591" y="280"/>
      <point x="600" y="310"/>
      <point x="631" y="310" type="curve"/>
      <point x="662" y="310"/>
      <point x="671" y="278"/>
      <point x="671" y="240" type="curve"/>
      <point x="671" y="201"/>
      <point x="653" y="178"/>
      <point x="629" y="147" type="curve"/>
      <point x="589" y="102"/>
      <point x="549" y="56"/>
      <point x="509" y="11" type="curve"/>
      <point x="513" y="-51"/>
      <point x="508" y="11"/>
      <point x="512" y="-51" type="curve"/>
      <point x="562" y="-3"/>
      <point x="636" y="47"/>
      <point x="681" y="98" type="curve"/>
      <point x="718" y="145"/>
      <point x="745" y="182"/>
      <point x="745" y="243" type="curve"/>
      <point x="745" y="318"/>
      <point x="705" y="372"/>
      <point x="633" y="372" type="curve"/>
      <point x="577" y="372"/>
      <point x="541" y="343"/>
      <point x="528" y="268" type="curve"/>
      <point x="586" y="250"/>
      <point x="528" y="268"/>
    </contour>
  </outline>
</glyph>
<glyph name="threequarters" format="1">
  <advance width="765"/>
  <unicode hex="00BE"/>
  <outline>
    <contour>
      <point x="307" y="-56" type="line"/>
      <point x="583" y="725" type="line"/>
      <point x="490" y="725" type="line"/>
      <point x="216" y="-56" type="line"/>
    </contour>
    <contour>
      <point x="89" y="630" type="curve"/>
      <point x="98" y="645"/>
      <point x="109" y="662"/>
      <point x="129" y="662" type="curve"/>
      <point x="157" y="662"/>
      <point x="170" y="636"/>
      <point x="170" y="603" type="curve"/>
      <point x="170" y="567"/>
      <point x="141" y="545"/>
      <point x="103" y="541" type="curve"/>
      <point x="103" y="488"/>
      <point x="103" y="541"/>
      <point x="103" y="488" type="curve"/>
      <point x="185" y="491"/>
      <point x="247" y="533"/>
      <point x="247" y="609" type="curve"/>
      <point x="247" y="680"/>
      <point x="206" y="725"/>
      <point x="137" y="725" type="curve"/>
      <point x="96" y="725"/>
      <point x="60" y="702"/>
      <point x="39" y="669" type="curve"/>
      <point x="89" y="630"/>
      <point x="39" y="669"/>
    </contour>
    <contour>
      <point x="38" y="333" type="curve"/>
      <point x="63" y="310"/>
      <point x="91" y="297"/>
      <point x="123" y="297" type="curve"/>
      <point x="206" y="296"/>
      <point x="257" y="342"/>
      <point x="258" y="423" type="curve"/>
      <point x="258" y="499"/>
      <point x="188" y="529"/>
      <point x="103" y="533" type="curve"/>
      <point x="103" y="487"/>
      <point x="103" y="533"/>
      <point x="103" y="487" type="curve"/>
      <point x="148" y="483"/>
      <point x="179" y="458"/>
      <point x="179" y="419" type="curve"/>
      <point x="179" y="385"/>
      <point x="162" y="358"/>
      <point x="130" y="360" type="curve"/>
      <point x="111" y="360"/>
      <point x="92" y="366"/>
      <point x="79" y="379" type="curve"/>
      <point x="38" y="333"/>
      <point x="79" y="379"/>
    </contour>
    <contour>
      <point x="736" y="119" type="line"/>
      <point x="461" y="119" type="line"/>
      <point x="461" y="57" type="line"/>
      <point x="736" y="57" type="line"/>
    </contour>
    <contour>
      <point x="495" y="60" type="line"/>
      <point x="656" y="363" type="line"/>
      <point x="601" y="377" type="line"/>
      <point x="461" y="119" type="line"/>
    </contour>
    <contour>
      <point x="678" y="-49" type="line"/>
      <point x="678" y="377" type="line"/>
      <point x="601" y="377" type="line"/>
      <point x="601" y="-49" type="line"/>
    </contour>
  </outline>
</glyph>
<glyph name="questiondown" format="1">
  <advance width="417"/>
  <unicode hex="00BF"/>
  <outline>
    <contour>
      <point x="256" y="373" type="curve"/>
      <point x="256" y="410"/>
      <point x="256" y="478"/>
      <point x="256" y="515" type="curve"/>
      <point x="166" y="515"/>
      <point x="256" y="515"/>
      <point x="166" y="515" type="curve"/>
      <point x="166" y="478"/>
      <point x="166" y="410"/>
      <point x="166" y="373" type="curve"/>
      <point x="256" y="373"/>
      <point x="166" y="373"/>
    </contour>
    <contour>
      <point x="319" y="139" type="line"/>
      <point x="294" y="105"/>
      <point x="270" y="84"/>
      <point x="228" y="84" type="curve"/>
      <point x="161" y="84"/>
      <point x="134" y="145"/>
      <point x="134" y="218" type="curve"/>
      <point x="134" y="304"/>
      <point x="169" y="373"/>
      <point x="245" y="373" type="curve"/>
      <point x="245" y="407"/>
      <point x="246" y="415"/>
      <point x="246" y="448" type="curve"/>
      <point x="114" y="448"/>
      <point x="39" y="353"/>
      <point x="39" y="218" type="curve"/>
      <point x="39" y="89"/>
      <point x="107" y="0"/>
      <point x="224" y="0" type="curve"/>
      <point x="294" y="0"/>
      <point x="341" y="28"/>
      <point x="374" y="77" type="curve"/>
    </contour>
    <contour>
      <point x="159" y="688" type="curve"/>
      <point x="159" y="653"/>
      <point x="181" y="636"/>
      <point x="212" y="636" type="curve"/>
      <point x="243" y="636"/>
      <point x="263" y="655"/>
      <point x="263" y="688" type="curve"/>
      <point x="159" y="688"/>
      <point x="263" y="688"/>
      <point x="159" y="688" type="curve"/>
      <point x="159" y="723"/>
      <point x="180" y="739"/>
      <point x="212" y="739" type="curve"/>
      <point x="244" y="739"/>
      <point x="263" y="722"/>
      <point x="263" y="688" type="curve"/>
      <point x="159" y="688"/>
      <point x="263" y="688"/>
    </contour>
  </outline>
</glyph>
<glyph name="Acircumflex" format="1">
  <advance width="486"/>
  <unicode hex="00C2"/>
  <outline>
    <contour>
      <point x="341" y="286" type="curve"/>
      <point x="276" y="286"/>
      <point x="210" y="286"/>
      <point x="146" y="286" type="curve"/>
      <point x="105" y="203"/>
      <point x="146" y="286"/>
      <point x="105" y="203" type="curve"/>
      <point x="194" y="203"/>
      <point x="283" y="203"/>
      <point x="373" y="203" type="curve"/>
      <point x="341" y="286"/>
      <point x="373" y="203"/>
    </contour>
    <contour>
      <point x="471" y="0" type="curve"/>
      <point x="413" y="241"/>
      <point x="350" y="481"/>
      <point x="292" y="722" type="curve"/>
      <point x="202" y="722"/>
      <point x="292" y="722"/>
      <point x="202" y="722" type="curve"/>
      <point x="258" y="482"/>
      <point x="311" y="240"/>
      <point x="368" y="0" type="curve"/>
      <point x="471" y="0"/>
      <point x="368" y="0"/>
    </contour>
    <contour>
      <point x="107" y="0" type="curve"/>
      <point x="170" y="240"/>
      <point x="226" y="482"/>
      <point x="290" y="722" type="curve"/>
      <point x="200" y="722"/>
      <point x="290" y="722"/>
      <point x="200" y="722" type="curve"/>
      <point x="136" y="480"/>
      <point x="63" y="242"/>
      <point x="-2" y="0" type="curve"/>
      <point x="107" y="0"/>
      <point x="-2" y="0"/>
    </contour>
    <contour>
      <point x="191" y="796" type="line"/>
      <point x="284" y="962" type="line"/>
      <point x="164" y="962" type="line"/>
      <point x="99" y="796" type="line"/>
    </contour>
    <contour>
      <point x="388" y="796" type="line"/>
      <point x="323" y="962" type="line"/>
      <point x="203" y="962" type="line"/>
      <point x="296" y="796" type="line"/>
    </contour>
  </outline>
</glyph>
<glyph name="Atilde" format="1">
  <advance width="486"/>
  <unicode hex="00C3"/>
  <outline>
    <contour>
      <point x="341" y="286" type="curve"/>
      <point x="276" y="286"/>
      <point x="210" y="286"/>
      <point x="146" y="286" type="curve"/>
      <point x="105" y="203"/>
      <point x="146" y="286"/>
      <point x="105" y="203" type="curve"/>
      <point x="194" y="203"/>
      <point x="283" y="203"/>
      <point x="373" y="203" type="curve"/>
      <point x="341" y="286"/>
      <point x="373" y="203"/>
    </contour>
    <contour>
      <point x="471" y="0" type="curve"/>
      <point x="413" y="241"/>
      <point x="350" y="481"/>
      <point x="292" y="722" type="curve"/>
      <point x="202" y="722"/>
      <point x="292" y="722"/>
      <point x="202" y="722" type="curve"/>
      <point x="258" y="482"/>
      <point x="311" y="240"/>
      <point x="368" y="0" type="curve"/>
      <point x="471" y="0"/>
      <point x="368" y="0"/>
    </contour>
    <contour>
      <point x="107" y="0" type="curve"/>
      <point x="170" y="240"/>
      <point x="226" y="482"/>
      <point x="290" y="722" type="curve"/>
      <point x="200" y="722"/>
      <point x="290" y="722"/>
      <point x="200" y="722" type="curve"/>
      <point x="136" y="480"/>
      <point x="63" y="242"/>
      <point x="-2" y="0" type="curve"/>
      <point x="107" y="0"/>
      <point x="-2" y="0"/>
    </contour>
    <contour>
      <point x="333" y="965" type="curve"/>
      <point x="319" y="925"/>
      <point x="311" y="905"/>
      <point x="292" y="905" type="curve"/>
      <point x="268" y="905"/>
      <point x="257" y="917"/>
      <point x="242" y="934" type="curve"/>
      <point x="222" y="956"/>
      <point x="211" y="970"/>
      <point x="184" y="970" type="curve"/>
      <point x="122" y="970"/>
      <point x="100" y="903"/>
      <point x="85" y="842" type="curve"/>
      <point x="159" y="801"/>
      <point x="85" y="843"/>
      <point x="159" y="801" type="curve"/>
      <point x="174" y="844"/>
      <point x="184" y="864"/>
      <point x="208" y="864" type="curve"/>
      <point x="229" y="864"/>
      <point x="236" y="853"/>
      <point x="248" y="837" type="curve"/>
      <point x="271" y="812"/>
      <point x="285" y="796"/>
      <point x="317" y="796" type="curve"/>
      <point x="379" y="796"/>
      <point x="392" y="861"/>
      <point x="412" y="925" type="curve"/>
      <point x="333" y="965"/>
      <point x="412" y="925"/>
    </contour>
  </outline>
</glyph>
<glyph name="Adieresis" format="1">
  <advance width="486"/>
  <unicode hex="00C4"/>
  <outline>
    <contour>
      <point x="341" y="286" type="curve"/>
      <point x="276" y="286"/>
      <point x="210" y="286"/>
      <point x="146" y="286" type="curve"/>
      <point x="105" y="203"/>
      <point x="146" y="286"/>
      <point x="105" y="203" type="curve"/>
      <point x="194" y="203"/>
      <point x="283" y="203"/>
      <point x="373" y="203" type="curve"/>
      <point x="341" y="286"/>
      <point x="373" y="203"/>
    </contour>
    <contour>
      <point x="471" y="0" type="curve"/>
      <point x="413" y="241"/>
      <point x="350" y="481"/>
      <point x="292" y="722" type="curve"/>
      <point x="202" y="722"/>
      <point x="292" y="722"/>
      <point x="202" y="722" type="curve"/>
      <point x="258" y="482"/>
      <point x="311" y="240"/>
      <point x="368" y="0" type="curve"/>
      <point x="471" y="0"/>
      <point x="368" y="0"/>
    </contour>
    <contour>
      <point x="107" y="0" type="curve"/>
      <point x="170" y="240"/>
      <point x="226" y="482"/>
      <point x="290" y="722" type="curve"/>
      <point x="200" y="722"/>
      <point x="290" y="722"/>
      <point x="200" y="722" type="curve"/>
      <point x="136" y="480"/>
      <point x="63" y="242"/>
      <point x="-2" y="0" type="curve"/>
      <point x="107" y="0"/>
      <point x="-2" y="0"/>
    </contour>
    <contour>
      <point x="221" y="842" type="curve"/>
      <point x="221" y="876"/>
      <point x="199" y="894"/>
      <point x="168" y="894" type="curve"/>
      <point x="137" y="894"/>
      <point x="117" y="875"/>
      <point x="117" y="842" type="curve"/>
      <point x="222" y="842"/>
      <point x="116" y="842"/>
      <point x="221" y="842" type="curve"/>
      <point x="221" y="807"/>
      <point x="199" y="791"/>
      <point x="168" y="791" type="curve"/>
      <point x="136" y="791"/>
      <point x="117" y="808"/>
      <point x="117" y="842" type="curve"/>
      <point x="222" y="842"/>
      <point x="116" y="842"/>
    </contour>
    <contour>
      <point x="371" y="842" type="curve"/>
      <point x="371" y="876"/>
      <point x="349" y="894"/>
      <point x="319" y="894" type="curve"/>
      <point x="287" y="894"/>
      <point x="268" y="875"/>
      <point x="268" y="842" type="curve"/>
      <point x="373" y="842"/>
      <point x="266" y="842"/>
      <point x="371" y="842" type="curve"/>
      <point x="371" y="807"/>
      <point x="350" y="791"/>
      <point x="319" y="791" type="curve"/>
      <point x="287" y="791"/>
      <point x="268" y="808"/>
      <point x="268" y="842" type="curve"/>
      <point x="373" y="842"/>
      <point x="266" y="842"/>
    </contour>
  </outline>
</glyph>
<glyph name="Aring" format="1">
  <advance width="486"/>
  <unicode hex="00C5"/>
  <outline>
    <contour>
      <point x="341" y="286" type="curve"/>
      <point x="276" y="286"/>
      <point x="210" y="286"/>
      <point x="146" y="286" type="curve"/>
      <point x="105" y="203"/>
      <point x="146" y="286"/>
      <point x="105" y="203" type="curve"/>
      <point x="194" y="203"/>
      <point x="283" y="203"/>
      <point x="373" y="203" type="curve"/>
      <point x="341" y="286"/>
      <point x="373" y="203"/>
    </contour>
    <contour>
      <point x="471" y="0" type="curve"/>
      <point x="413" y="241"/>
      <point x="350" y="481"/>
      <point x="292" y="722" type="curve"/>
      <point x="202" y="722"/>
      <point x="292" y="722"/>
      <point x="202" y="722" type="curve"/>
      <point x="258" y="482"/>
      <point x="311" y="240"/>
      <point x="368" y="0" type="curve"/>
      <point x="471" y="0"/>
      <point x="368" y="0"/>
    </contour>
    <contour>
      <point x="107" y="0" type="curve"/>
      <point x="170" y="240"/>
      <point x="226" y="482"/>
      <point x="290" y="722" type="curve"/>
      <point x="200" y="722"/>
      <point x="290" y="722"/>
      <point x="200" y="722" type="curve"/>
      <point x="136" y="480"/>
      <point x="63" y="242"/>
      <point x="-2" y="0" type="curve"/>
      <point x="107" y="0"/>
      <point x="-2" y="0"/>
    </contour>
    <contour>
      <point x="129" y="931" type="curve"/>
      <point x="129" y="852"/>
      <point x="169" y="795"/>
      <point x="243" y="795" type="curve"/>
      <point x="318" y="795"/>
      <point x="357" y="851"/>
      <point x="357" y="931" type="curve"/>
      <point x="357" y="1010"/>
      <point x="317" y="1067"/>
      <point x="241" y="1067" type="curve"/>
      <point x="167" y="1067"/>
      <point x="129" y="1009"/>
      <point x="129" y="931" type="curve"/>
      <point x="218" y="931"/>
      <point x="121" y="931"/>
      <point x="210" y="931" type="curve"/>
      <point x="210" y="961"/>
      <point x="209" y="994"/>
      <point x="241" y="994" type="curve"/>
      <point x="271" y="994"/>
      <point x="272" y="962"/>
      <point x="272" y="931" type="curve"/>
      <point x="272" y="900"/>
      <point x="273" y="867"/>
      <point x="243" y="867" type="curve"/>
      <point x="212" y="867"/>
      <point x="210" y="900"/>
      <point x="210" y="931" type="curve"/>
      <point x="121" y="931"/>
      <point x="218" y="931"/>
    </contour>
  </outline>
</glyph>
<glyph name="AE" format="1">
  <advance width="677"/>
  <unicode hex="00C6"/>
  <outline>
    <contour>
      <point x="340" y="277" type="curve"/>
      <point x="275" y="277"/>
      <point x="216" y="277"/>
      <point x="151" y="277" type="curve"/>
      <point x="110" y="194"/>
      <point x="151" y="277"/>
      <point x="110" y="194" type="curve"/>
      <point x="199" y="194"/>
      <point x="283" y="194"/>
      <point x="372" y="194" type="curve"/>
      <point x="340" y="277"/>
      <point x="372" y="194"/>
    </contour>
    <contour>
      <point x="98" y="0" type="curve"/>
      <point x="417" y="722" type="line"/>
      <point x="327" y="722"/>
      <point x="417" y="722"/>
      <point x="327" y="722" type="curve"/>
      <point x="-10" y="0" type="line"/>
      <point x="98" y="0"/>
      <point x="-11" y="0"/>
    </contour>
    <contour>
      <point x="380" y="334" type="curve"/>
      <point x="450" y="334"/>
      <point x="521" y="334"/>
      <point x="591" y="334" type="curve"/>
      <point x="591" y="412"/>
      <point x="591" y="334"/>
      <point x="591" y="412" type="curve"/>
      <point x="521" y="412"/>
      <point x="450" y="412"/>
      <point x="380" y="412" type="curve"/>
      <point x="380" y="334"/>
      <point x="380" y="412"/>
    </contour>
    <contour>
      <point x="370" y="644" type="curve"/>
      <point x="457" y="644"/>
      <point x="544" y="644"/>
      <point x="632" y="644" type="curve"/>
      <point x="632" y="722"/>
      <point x="632" y="644"/>
      <point x="632" y="722" type="curve"/>
      <point x="544" y="722"/>
      <point x="457" y="722"/>
      <point x="370" y="722" type="curve"/>
      <point x="370" y="644"/>
      <point x="370" y="722"/>
    </contour>
    <contour>
      <point x="426" y="0" type="curve"/>
      <point x="426" y="722" type="line"/>
      <point x="328" y="722"/>
      <point x="426" y="722"/>
      <point x="328" y="722" type="curve"/>
      <point x="328" y="481"/>
      <point x="328" y="241"/>
      <point x="328" y="0" type="curve"/>
      <point x="426" y="0"/>
      <point x="328" y="0"/>
    </contour>
    <contour>
      <point x="370" y="0" type="curve"/>
      <point x="464" y="0"/>
      <point x="559" y="0"/>
      <point x="653" y="0" type="curve"/>
      <point x="653" y="78"/>
      <point x="653" y="0"/>
      <point x="653" y="78" type="curve"/>
      <point x="559" y="78"/>
      <point x="464" y="78"/>
      <point x="370" y="78" type="curve"/>
      <point x="370" y="0"/>
      <point x="370" y="78"/>
    </contour>
  </outline>
</glyph>
<glyph name="Ccedilla" format="1">
  <advance width="496"/>
  <unicode hex="00C7"/>
  <outline>
    <contour>
      <point x="466" y="654" type="curve"/>
      <point x="420" y="696"/>
      <point x="362" y="727"/>
      <point x="294" y="727" type="curve"/>
      <point x="109" y="727"/>
      <point x="49" y="561"/>
      <point x="49" y="345" type="curve"/>
      <point x="49" y="148"/>
      <point x="109" y="-5"/>
      <point x="282" y="-5" type="curve"/>
      <point x="371" y="-5"/>
      <point x="429" y="32"/>
      <point x="479" y="99" type="curve"/>
      <point x="418" y="156"/>
      <point x="479" y="99"/>
      <point x="417" y="156" type="curve"/>
      <point x="381" y="110"/>
      <point x="347" y="78"/>
      <point x="287" y="78" type="curve"/>
      <point x="166" y="78"/>
      <point x="148" y="202"/>
      <point x="148" y="348" type="curve"/>
      <point x="148" y="508"/>
      <point x="164" y="645"/>
      <point x="291" y="645" type="curve"/>
      <point x="339" y="645"/>
      <point x="380" y="622"/>
      <point x="409" y="593" type="curve"/>
      <point x="466" y="654"/>
      <point x="409" y="593"/>
    </contour>
    <contour>
      <point x="238" y="56" type="curve"/>
      <point x="228" y="32"/>
      <point x="204" y="-38"/>
      <point x="195" y="-61" type="curve"/>
      <point x="263" y="-124"/>
      <point x="195" y="-61"/>
      <point x="263" y="-124" type="curve"/>
      <point x="273" y="-97"/>
      <point x="304" y="-25"/>
      <point x="313" y="1" type="curve"/>
      <point x="238" y="56"/>
      <point x="313" y="1"/>
    </contour>
    <contour>
      <point x="263" y="-124" type="curve"/>
      <point x="269" y="-118"/>
      <point x="273" y="-114"/>
      <point x="281" y="-114" type="curve"/>
      <point x="295" y="-114"/>
      <point x="298" y="-126"/>
      <point x="298" y="-142" type="curve"/>
      <point x="298" y="-161"/>
      <point x="287" y="-173"/>
      <point x="268" y="-173" type="curve"/>
      <point x="251" y="-173"/>
      <point x="238" y="-169"/>
      <point x="226" y="-159" type="curve"/>
      <point x="187" y="-215"/>
      <point x="226" y="-159"/>
      <point x="187" y="-215" type="curve"/>
      <point x="210" y="-234"/>
      <point x="233" y="-241"/>
      <point x="263" y="-241" type="curve"/>
      <point x="320" y="-241"/>
      <point x="356" y="-203"/>
      <point x="356" y="-141" type="curve"/>
      <point x="356" y="-82"/>
      <point x="325" y="-40"/>
      <point x="269" y="-40" type="curve"/>
      <point x="241" y="-40"/>
      <point x="220" y="-45"/>
      <point x="195" y="-61" type="curve"/>
      <point x="263" y="-124"/>
      <point x="195" y="-61"/>
    </contour>
  </outline>
</glyph>
<glyph name="Egrave" format="1">
  <advance width="449"/>
  <unicode hex="00C8"/>
  <outline>
    <contour>
      <point x="151" y="334" type="curve"/>
      <point x="221" y="334"/>
      <point x="292" y="334"/>
      <point x="363" y="334" type="curve"/>
      <point x="363" y="412"/>
      <point x="363" y="334"/>
      <point x="363" y="412" type="curve"/>
      <point x="292" y="412"/>
      <point x="221" y="412"/>
      <point x="151" y="412" type="curve"/>
      <point x="151" y="334"/>
      <point x="151" y="412"/>
    </contour>
    <contour>
      <point x="142" y="644" type="curve"/>
      <point x="229" y="644"/>
      <point x="316" y="644"/>
      <point x="403" y="644" type="curve"/>
      <point x="403" y="722"/>
      <point x="403" y="644"/>
      <point x="403" y="722" type="curve"/>
      <point x="316" y="722"/>
      <point x="229" y="722"/>
      <point x="142" y="722" type="curve"/>
      <point x="142" y="644"/>
      <point x="142" y="722"/>
    </contour>
    <contour>
      <point x="198" y="0" type="curve"/>
      <point x="198" y="722" type="line"/>
      <point x="99" y="722"/>
      <point x="198" y="722"/>
      <point x="99" y="722" type="curve"/>
      <point x="99" y="481"/>
      <point x="99" y="241"/>
      <point x="99" y="0" type="curve"/>
      <point x="198" y="0"/>
      <point x="99" y="0"/>
    </contour>
    <contour>
      <point x="142" y="0" type="curve"/>
      <point x="236" y="0"/>
      <point x="330" y="0"/>
      <point x="425" y="0" type="curve"/>
      <point x="425" y="78"/>
      <point x="425" y="0"/>
      <point x="425" y="78" type="curve"/>
      <point x="330" y="78"/>
      <point x="236" y="78"/>
      <point x="142" y="78" type="curve"/>
      <point x="142" y="0"/>
      <point x="142" y="78"/>
    </contour>
    <contour>
      <point x="282" y="797" type="line"/>
      <point x="217" y="963" type="line"/>
      <point x="97" y="963" type="line"/>
      <point x="189" y="797" type="line"/>
    </contour>
  </outline>
</glyph>
<glyph name="Eacute" format="1">
  <advance width="436"/>
  <unicode hex="00C9"/>
  <outline>
    <contour>
      <point x="139" y="334" type="curve"/>
      <point x="209" y="334"/>
      <point x="280" y="334"/>
      <point x="351" y="334" type="curve"/>
      <point x="351" y="412"/>
      <point x="351" y="334"/>
      <point x="351" y="412" type="curve"/>
      <point x="280" y="412"/>
      <point x="209" y="412"/>
      <point x="139" y="412" type="curve"/>
      <point x="139" y="334"/>
      <point x="139" y="412"/>
    </contour>
    <contour>
      <point x="129" y="644" type="curve"/>
      <point x="217" y="644"/>
      <point x="303" y="644"/>
      <point x="391" y="644" type="curve"/>
      <point x="391" y="722"/>
      <point x="391" y="644"/>
      <point x="391" y="722" type="curve"/>
      <point x="303" y="722"/>
      <point x="217" y="722"/>
      <point x="129" y="722" type="curve"/>
      <point x="129" y="644"/>
      <point x="129" y="722"/>
    </contour>
    <contour>
      <point x="186" y="0" type="curve"/>
      <point x="186" y="722" type="line"/>
      <point x="87" y="722"/>
      <point x="186" y="722"/>
      <point x="87" y="722" type="curve"/>
      <point x="87" y="481"/>
      <point x="87" y="241"/>
      <point x="87" y="0" type="curve"/>
      <point x="186" y="0"/>
      <point x="87" y="0"/>
    </contour>
    <contour>
      <point x="129" y="0" type="curve"/>
      <point x="224" y="0"/>
      <point x="318" y="0"/>
      <point x="413" y="0" type="curve"/>
      <point x="413" y="78"/>
      <point x="413" y="0"/>
      <point x="413" y="78" type="curve"/>
      <point x="318" y="78"/>
      <point x="224" y="78"/>
      <point x="129" y="78" type="curve"/>
      <point x="129" y="0"/>
      <point x="129" y="78"/>
    </contour>
    <contour>
      <point x="268" y="795" type="line"/>
      <point x="361" y="961" type="line"/>
      <point x="241" y="961" type="line"/>
      <point x="175" y="795" type="line"/>
    </contour>
  </outline>
</glyph>
<glyph name="Ecircumflex" format="1">
  <advance width="420"/>
  <unicode hex="00CA"/>
  <outline>
    <contour>
      <point x="131" y="334" type="curve"/>
      <point x="201" y="334"/>
      <point x="272" y="334"/>
      <point x="343" y="334" type="curve"/>
      <point x="343" y="412"/>
      <point x="343" y="334"/>
      <point x="343" y="412" type="curve"/>
      <point x="272" y="412"/>
      <point x="201" y="412"/>
      <point x="131" y="412" type="curve"/>
      <point x="131" y="334"/>
      <point x="131" y="412"/>
    </contour>
    <contour>
      <point x="121" y="644" type="curve"/>
      <point x="209" y="644"/>
      <point x="295" y="644"/>
      <point x="383" y="644" type="curve"/>
      <point x="383" y="722"/>
      <point x="383" y="644"/>
      <point x="383" y="722" type="curve"/>
      <point x="295" y="722"/>
      <point x="209" y="722"/>
      <point x="121" y="722" type="curve"/>
      <point x="121" y="644"/>
      <point x="121" y="722"/>
    </contour>
    <contour>
      <point x="178" y="0" type="curve"/>
      <point x="178" y="722" type="line"/>
      <point x="79" y="722"/>
      <point x="178" y="722"/>
      <point x="79" y="722" type="curve"/>
      <point x="79" y="481"/>
      <point x="79" y="241"/>
      <point x="79" y="0" type="curve"/>
      <point x="178" y="0"/>
      <point x="79" y="0"/>
    </contour>
    <contour>
      <point x="121" y="0" type="curve"/>
      <point x="216" y="0"/>
      <point x="310" y="0"/>
      <point x="405" y="0" type="curve"/>
      <point x="405" y="78"/>
      <point x="405" y="0"/>
      <point x="405" y="78" type="curve"/>
      <point x="310" y="78"/>
      <point x="216" y="78"/>
      <point x="121" y="78" type="curve"/>
      <point x="121" y="0"/>
      <point x="121" y="78"/>
    </contour>
    <contour>
      <point x="163" y="796" type="line"/>
      <point x="256" y="962" type="line"/>
      <point x="136" y="962" type="line"/>
      <point x="70" y="796" type="line"/>
    </contour>
    <contour>
      <point x="360" y="796" type="line"/>
      <point x="295" y="962" type="line"/>
      <point x="175" y="962" type="line"/>
      <point x="268" y="796" type="line"/>
    </contour>
  </outline>
</glyph>
<glyph name="Edieresis" format="1">
  <advance width="435"/>
  <unicode hex="00CB"/>
  <outline>
    <contour>
      <point x="138" y="334" type="curve"/>
      <point x="207" y="334"/>
      <point x="278" y="334"/>
      <point x="349" y="334" type="curve"/>
      <point x="349" y="412"/>
      <point x="349" y="334"/>
      <point x="349" y="412" type="curve"/>
      <point x="278" y="412"/>
      <point x="207" y="412"/>
      <point x="138" y="412" type="curve"/>
      <point x="138" y="334"/>
      <point x="138" y="412"/>
    </contour>
    <contour>
      <point x="128" y="644" type="curve"/>
      <point x="215" y="644"/>
      <point x="302" y="644"/>
      <point x="389" y="644" type="curve"/>
      <point x="389" y="722"/>
      <point x="389" y="644"/>
      <point x="389" y="722" type="curve"/>
      <point x="302" y="722"/>
      <point x="215" y="722"/>
      <point x="128" y="722" type="curve"/>
      <point x="128" y="644"/>
      <point x="128" y="722"/>
    </contour>
    <contour>
      <point x="184" y="0" type="curve"/>
      <point x="184" y="722" type="line"/>
      <point x="85" y="722"/>
      <point x="184" y="722"/>
      <point x="85" y="722" type="curve"/>
      <point x="85" y="481"/>
      <point x="85" y="241"/>
      <point x="85" y="0" type="curve"/>
      <point x="184" y="0"/>
      <point x="85" y="0"/>
    </contour>
    <contour>
      <point x="128" y="0" type="curve"/>
      <point x="222" y="0"/>
      <point x="316" y="0"/>
      <point x="411" y="0" type="curve"/>
      <point x="411" y="78"/>
      <point x="411" y="0"/>
      <point x="411" y="78" type="curve"/>
      <point x="316" y="78"/>
      <point x="222" y="78"/>
      <point x="128" y="78" type="curve"/>
      <point x="128" y="0"/>
      <point x="128" y="78"/>
    </contour>
    <contour>
      <point x="199" y="842" type="curve"/>
      <point x="199" y="876"/>
      <point x="177" y="894"/>
      <point x="146" y="894" type="curve"/>
      <point x="115" y="894"/>
      <point x="95" y="875"/>
      <point x="95" y="842" type="curve"/>
      <point x="200" y="842"/>
      <point x="94" y="842"/>
      <point x="199" y="842" type="curve"/>
      <point x="199" y="807"/>
      <point x="177" y="791"/>
      <point x="146" y="791" type="curve"/>
      <point x="114" y="791"/>
      <point x="95" y="808"/>
      <point x="95" y="842" type="curve"/>
      <point x="200" y="842"/>
      <point x="94" y="842"/>
    </contour>
    <contour>
      <point x="349" y="842" type="curve"/>
      <point x="349" y="876"/>
      <point x="327" y="894"/>
      <point x="297" y="894" type="curve"/>
      <point x="266" y="894"/>
      <point x="246" y="875"/>
      <point x="246" y="842" type="curve"/>
      <point x="351" y="842"/>
      <point x="244" y="842"/>
      <point x="349" y="842" type="curve"/>
      <point x="349" y="807"/>
      <point x="328" y="791"/>
      <point x="297" y="791" type="curve"/>
      <point x="265" y="791"/>
      <point x="246" y="808"/>
      <point x="246" y="842" type="curve"/>
      <point x="351" y="842"/>
      <point x="244" y="842"/>
    </contour>
  </outline>
</glyph>
<glyph name="Igrave" format="1">
  <advance width="278"/>
  <unicode hex="00CC"/>
  <outline>
    <contour>
      <point x="192" y="0" type="curve"/>
      <point x="192" y="241"/>
      <point x="192" y="481"/>
      <point x="192" y="722" type="curve"/>
      <point x="93" y="722"/>
      <point x="192" y="722"/>
      <point x="93" y="722" type="curve"/>
      <point x="93" y="481"/>
      <point x="93" y="241"/>
      <point x="93" y="0" type="curve"/>
      <point x="192" y="0"/>
      <point x="93" y="0"/>
    </contour>
    <contour>
      <point x="191" y="797" type="line"/>
      <point x="126" y="963" type="line"/>
      <point x="6" y="963" type="line"/>
      <point x="98" y="797" type="line"/>
    </contour>
  </outline>
</glyph>
<glyph name="Iacute" format="1">
  <advance width="271"/>
  <unicode hex="00CD"/>
  <outline>
    <contour>
      <point x="183" y="0" type="curve"/>
      <point x="183" y="241"/>
      <point x="183" y="481"/>
      <point x="183" y="722" type="curve"/>
      <point x="84" y="722"/>
      <point x="183" y="722"/>
      <point x="84" y="722" type="curve"/>
      <point x="84" y="481"/>
      <point x="84" y="241"/>
      <point x="84" y="0" type="curve"/>
      <point x="183" y="0"/>
      <point x="84" y="0"/>
    </contour>
    <contour>
      <point x="181" y="795" type="line"/>
      <point x="273" y="961" type="line"/>
      <point x="153" y="961" type="line"/>
      <point x="88" y="795" type="line"/>
    </contour>
  </outline>
</glyph>
<glyph name="Icircumflex" format="1">
  <advance width="294"/>
  <unicode hex="00CE"/>
  <outline>
    <contour>
      <point x="198" y="0" type="curve"/>
      <point x="198" y="241"/>
      <point x="198" y="481"/>
      <point x="198" y="722" type="curve"/>
      <point x="99" y="722"/>
      <point x="198" y="722"/>
      <point x="99" y="722" type="curve"/>
      <point x="99" y="481"/>
      <point x="99" y="241"/>
      <point x="99" y="0" type="curve"/>
      <point x="198" y="0"/>
      <point x="99" y="0"/>
    </contour>
    <contour>
      <point x="99" y="796" type="line"/>
      <point x="191" y="962" type="line"/>
      <point x="71" y="962" type="line"/>
      <point x="6" y="796" type="line"/>
    </contour>
    <contour>
      <point x="295" y="796" type="line"/>
      <point x="231" y="962" type="line"/>
      <point x="111" y="962" type="line"/>
      <point x="203" y="796" type="line"/>
    </contour>
  </outline>
</glyph>
<glyph name="Idieresis" format="1">
  <advance width="243"/>
  <unicode hex="00CF"/>
  <outline>
    <contour>
      <point x="173" y="0" type="curve"/>
      <point x="173" y="241"/>
      <point x="173" y="481"/>
      <point x="173" y="722" type="curve"/>
      <point x="74" y="722"/>
      <point x="173" y="722"/>
      <point x="74" y="722" type="curve"/>
      <point x="74" y="481"/>
      <point x="74" y="241"/>
      <point x="74" y="0" type="curve"/>
      <point x="173" y="0"/>
      <point x="74" y="0"/>
    </contour>
    <contour>
      <point x="103" y="842" type="curve"/>
      <point x="103" y="876"/>
      <point x="81" y="894"/>
      <point x="50" y="894" type="curve"/>
      <point x="19" y="894"/>
      <point x="-1" y="875"/>
      <point x="-1" y="842" type="curve"/>
      <point x="104" y="842"/>
      <point x="-2" y="842"/>
      <point x="103" y="842" type="curve"/>
      <point x="103" y="807"/>
      <point x="81" y="791"/>
      <point x="50" y="791" type="curve"/>
      <point x="18" y="791"/>
      <point x="-1" y="808"/>
      <point x="-1" y="842" type="curve"/>
      <point x="104" y="842"/>
      <point x="-2" y="842"/>
    </contour>
    <contour>
      <point x="253" y="842" type="curve"/>
      <point x="253" y="876"/>
      <point x="231" y="894"/>
      <point x="201" y="894" type="curve"/>
      <point x="170" y="894"/>
      <point x="150" y="875"/>
      <point x="150" y="842" type="curve"/>
      <point x="255" y="842"/>
      <point x="149" y="842"/>
      <point x="253" y="842" type="curve"/>
      <point x="253" y="807"/>
      <point x="232" y="791"/>
      <point x="201" y="791" type="curve"/>
      <point x="169" y="791"/>
      <point x="150" y="808"/>
      <point x="150" y="842" type="curve"/>
      <point x="255" y="842"/>
      <point x="149" y="842"/>
    </contour>
  </outline>
</glyph>
<glyph name="Eth" format="1">
  <advance width="555"/>
  <unicode hex="00D0"/>
  <outline>
    <contour>
      <point x="81" y="722" type="curve"/>
      <point x="81" y="481"/>
      <point x="81" y="241"/>
      <point x="81" y="0" type="curve"/>
      <point x="180" y="0"/>
      <point x="81" y="0"/>
      <point x="180" y="0" type="curve"/>
      <point x="180" y="241"/>
      <point x="180" y="481"/>
      <point x="180" y="722" type="curve"/>
      <point x="81" y="722"/>
      <point x="180" y="722"/>
    </contour>
    <contour>
      <point x="132" y="0" type="curve"/>
      <point x="173" y="0"/>
      <point x="207" y="0"/>
      <point x="248" y="0" type="curve"/>
      <point x="436" y="0"/>
      <point x="506" y="147"/>
      <point x="506" y="355" type="curve"/>
      <point x="506" y="569"/>
      <point x="437" y="722"/>
      <point x="245" y="722" type="curve"/>
      <point x="206" y="722"/>
      <point x="172" y="722"/>
      <point x="132" y="722" type="curve"/>
      <point x="132" y="650"/>
      <point x="132" y="716"/>
      <point x="132" y="644" type="curve"/>
      <point x="170" y="644"/>
      <point x="202" y="644"/>
      <point x="241" y="644" type="curve"/>
      <point x="380" y="644"/>
      <point x="406" y="515"/>
      <point x="406" y="354" type="curve"/>
      <point x="406" y="202"/>
      <point x="385" y="78"/>
      <point x="258" y="78" type="curve"/>
      <point x="213" y="78"/>
      <point x="176" y="78"/>
      <point x="132" y="78" type="curve"/>
      <point x="132" y="6"/>
      <point x="132" y="72"/>
    </contour>
    <contour>
      <point x="33" y="334" type="curve"/>
      <point x="110" y="334"/>
      <point x="187" y="334"/>
      <point x="263" y="334" type="curve"/>
      <point x="263" y="420"/>
      <point x="263" y="334"/>
      <point x="263" y="420" type="curve"/>
      <point x="187" y="420"/>
      <point x="110" y="420"/>
      <point x="33" y="420" type="curve"/>
      <point x="33" y="334"/>
      <point x="33" y="420"/>
    </contour>
  </outline>
</glyph>
<glyph name="Ntilde" format="1">
  <advance width="618"/>
  <unicode hex="00D1"/>
  <outline>
    <contour>
      <point x="533" y="0" type="curve"/>
      <point x="417" y="241"/>
      <point x="302" y="481"/>
      <point x="187" y="722" type="curve"/>
      <point x="86" y="722"/>
      <point x="188" y="722"/>
      <point x="87" y="722" type="curve"/>
      <point x="201" y="481"/>
      <point x="317" y="241"/>
      <point x="433" y="0" type="curve"/>
      <point x="533" y="0"/>
      <point x="432" y="0"/>
    </contour>
    <contour>
      <point x="433" y="722" type="curve"/>
      <point x="433" y="481"/>
      <point x="433" y="241"/>
      <point x="433" y="0" type="curve"/>
      <point x="532" y="0"/>
      <point x="433" y="0"/>
      <point x="532" y="0" type="curve"/>
      <point x="532" y="241"/>
      <point x="532" y="481"/>
      <point x="532" y="722" type="curve"/>
      <point x="433" y="722"/>
      <point x="532" y="722"/>
    </contour>
    <contour>
      <point x="186" y="0" type="curve"/>
      <point x="186" y="241"/>
      <point x="186" y="481"/>
      <point x="186" y="722" type="curve"/>
      <point x="87" y="722"/>
      <point x="186" y="722"/>
      <point x="87" y="722" type="curve"/>
      <point x="87" y="481"/>
      <point x="87" y="241"/>
      <point x="87" y="0" type="curve"/>
      <point x="186" y="0"/>
      <point x="87" y="0"/>
    </contour>
    <contour>
      <point x="402" y="965" type="curve"/>
      <point x="388" y="925"/>
      <point x="379" y="905"/>
      <point x="361" y="905" type="curve"/>
      <point x="336" y="905"/>
      <point x="326" y="917"/>
      <point x="311" y="934" type="curve"/>
      <point x="291" y="956"/>
      <point x="280" y="970"/>
      <point x="253" y="970" type="curve"/>
      <point x="191" y="970"/>
      <point x="169" y="903"/>
      <point x="154" y="842" type="curve"/>
      <point x="228" y="801"/>
      <point x="154" y="843"/>
      <point x="227" y="801" type="curve"/>
      <point x="243" y="844"/>
      <point x="252" y="864"/>
      <point x="277" y="864" type="curve"/>
      <point x="297" y="864"/>
      <point x="305" y="853"/>
      <point x="317" y="837" type="curve"/>
      <point x="340" y="812"/>
      <point x="354" y="796"/>
      <point x="386" y="796" type="curve"/>
      <point x="448" y="796"/>
      <point x="461" y="861"/>
      <point x="481" y="925" type="curve"/>
      <point x="402" y="965"/>
      <point x="481" y="925"/>
    </contour>
  </outline>
</glyph>
<glyph name="Ocircumflex" format="1">
  <advance width="571"/>
  <unicode hex="00D4"/>
  <outline>
    <contour>
      <point x="148" y="360" type="curve" name="FullCurve"/>
      <point x="148" y="508"/>
      <point x="158" y="646"/>
      <point x="283" y="646" type="curve" name="FullCurve"/>
      <point x="404" y="646"/>
      <point x="423" y="510"/>
      <point x="423" y="363" type="curve" name="FullCurve"/>
      <point x="423" y="215"/>
      <point x="411" y="77"/>
      <point x="287" y="77" type="curve" name="FullCurve"/>
      <point x="164" y="77"/>
      <point x="148" y="211"/>
      <point x="148" y="360" type="curve" name="FullCurve"/>
      <point x="49" y="360"/>
      <point x="148" y="360"/>
      <point x="49" y="360" type="curve" name="FullCurve"/>
      <point x="49" y="160"/>
      <point x="109" y="-5"/>
      <point x="283" y="-5" type="curve" name="FullCurve"/>
      <point x="460" y="-5"/>
      <point x="522" y="161"/>
      <point x="522" y="363" type="curve" name="FullCurve"/>
      <point x="522" y="561"/>
      <point x="463" y="727"/>
      <point x="287" y="727" type="curve" name="FullCurve"/>
      <point x="111" y="727"/>
      <point x="49" y="561"/>
      <point x="49" y="360" type="curve" name="FullCurve"/>
      <point x="148" y="360"/>
      <point x="49" y="360"/>
    </contour>
    <contour>
      <point x="233" y="796" type="line"/>
      <point x="325" y="962" type="line"/>
      <point x="205" y="962" type="line"/>
      <point x="140" y="796" type="line"/>
    </contour>
    <contour>
      <point x="430" y="796" type="line"/>
      <point x="365" y="962" type="line"/>
      <point x="245" y="962" type="line"/>
      <point x="337" y="796" type="line"/>
    </contour>
  </outline>
</glyph>
<glyph name="Otilde" format="1">
  <advance width="571"/>
  <unicode hex="00D5"/>
  <outline>
    <contour>
      <point x="148" y="360" type="curve" name="FullCurve"/>
      <point x="148" y="508"/>
      <point x="158" y="646"/>
      <point x="283" y="646" type="curve" name="FullCurve"/>
      <point x="404" y="646"/>
      <point x="423" y="510"/>
      <point x="423" y="363" type="curve" name="FullCurve"/>
      <point x="423" y="215"/>
      <point x="411" y="77"/>
      <point x="287" y="77" type="curve" name="FullCurve"/>
      <point x="164" y="77"/>
      <point x="148" y="211"/>
      <point x="148" y="360" type="curve" name="FullCurve"/>
      <point x="49" y="360"/>
      <point x="148" y="360"/>
      <point x="49" y="360" type="curve" name="FullCurve"/>
      <point x="49" y="160"/>
      <point x="109" y="-5"/>
      <point x="283" y="-5" type="curve" name="FullCurve"/>
      <point x="460" y="-5"/>
      <point x="522" y="161"/>
      <point x="522" y="363" type="curve" name="FullCurve"/>
      <point x="522" y="561"/>
      <point x="463" y="727"/>
      <point x="287" y="727" type="curve" name="FullCurve"/>
      <point x="111" y="727"/>
      <point x="49" y="561"/>
      <point x="49" y="360" type="curve" name="FullCurve"/>
      <point x="148" y="360"/>
      <point x="49" y="360"/>
    </contour>
    <contour>
      <point x="375" y="965" type="curve"/>
      <point x="361" y="925"/>
      <point x="352" y="905"/>
      <point x="334" y="905" type="curve"/>
      <point x="309" y="905"/>
      <point x="299" y="917"/>
      <point x="284" y="934" type="curve"/>
      <point x="264" y="956"/>
      <point x="253" y="970"/>
      <point x="226" y="970" type="curve"/>
      <point x="164" y="970"/>
      <point x="142" y="903"/>
      <point x="127" y="842" type="curve"/>
      <point x="201" y="801"/>
      <point x="127" y="843"/>
      <point x="200" y="801" type="curve"/>
      <point x="216" y="844"/>
      <point x="225" y="864"/>
      <point x="250" y="864" type="curve"/>
      <point x="270" y="864"/>
      <point x="278" y="853"/>
      <point x="290" y="837" type="curve"/>
      <point x="313" y="812"/>
      <point x="327" y="796"/>
      <point x="359" y="796" type="curve"/>
      <point x="421" y="796"/>
      <point x="434" y="861"/>
      <point x="454" y="925" type="curve"/>
      <point x="375" y="965"/>
      <point x="454" y="925"/>
    </contour>
  </outline>
</glyph>
<glyph name="Odieresis" format="1">
  <advance width="571"/>
  <unicode hex="00D6"/>
  <outline>
    <contour>
      <point x="148" y="360" type="curve" name="FullCurve"/>
      <point x="148" y="508"/>
      <point x="158" y="646"/>
      <point x="283" y="646" type="curve" name="FullCurve"/>
      <point x="404" y="646"/>
      <point x="423" y="510"/>
      <point x="423" y="363" type="curve" name="FullCurve"/>
      <point x="423" y="215"/>
      <point x="411" y="77"/>
      <point x="287" y="77" type="curve" name="FullCurve"/>
      <point x="164" y="77"/>
      <point x="148" y="211"/>
      <point x="148" y="360" type="curve" name="FullCurve"/>
      <point x="49" y="360"/>
      <point x="148" y="360"/>
      <point x="49" y="360" type="curve" name="FullCurve"/>
      <point x="49" y="160"/>
      <point x="109" y="-5"/>
      <point x="283" y="-5" type="curve" name="FullCurve"/>
      <point x="460" y="-5"/>
      <point x="522" y="161"/>
      <point x="522" y="363" type="curve" name="FullCurve"/>
      <point x="522" y="561"/>
      <point x="463" y="727"/>
      <point x="287" y="727" type="curve" name="FullCurve"/>
      <point x="111" y="727"/>
      <point x="49" y="561"/>
      <point x="49" y="360" type="curve" name="FullCurve"/>
      <point x="148" y="360"/>
      <point x="49" y="360"/>
    </contour>
    <contour>
      <point x="262" y="842" type="curve"/>
      <point x="262" y="876"/>
      <point x="240" y="894"/>
      <point x="210" y="894" type="curve"/>
      <point x="179" y="894"/>
      <point x="159" y="875"/>
      <point x="159" y="842" type="curve"/>
      <point x="264" y="842"/>
      <point x="157" y="842"/>
      <point x="262" y="842" type="curve"/>
      <point x="262" y="807"/>
      <point x="241" y="791"/>
      <point x="210" y="791" type="curve"/>
      <point x="178" y="791"/>
      <point x="159" y="808"/>
      <point x="159" y="842" type="curve"/>
      <point x="264" y="842"/>
      <point x="157" y="842"/>
    </contour>
    <contour>
      <point x="413" y="842" type="curve"/>
      <point x="413" y="876"/>
      <point x="391" y="894"/>
      <point x="360" y="894" type="curve"/>
      <point x="329" y="894"/>
      <point x="309" y="875"/>
      <point x="309" y="842" type="curve"/>
      <point x="414" y="842"/>
      <point x="308" y="842"/>
      <point x="413" y="842" type="curve"/>
      <point x="413" y="807"/>
      <point x="391" y="791"/>
      <point x="360" y="791" type="curve"/>
      <point x="328" y="791"/>
      <point x="309" y="808"/>
      <point x="309" y="842" type="curve"/>
      <point x="414" y="842"/>
      <point x="308" y="842"/>
    </contour>
  </outline>
</glyph>
<glyph name="multiply" format="1">
  <advance width="553"/>
  <unicode hex="00D7"/>
  <outline>
    <contour>
      <point x="106" y="75" type="line"/>
      <point x="505" y="488" type="line"/>
      <point x="448" y="545" type="line"/>
      <point x="49" y="132" type="line"/>
    </contour>
    <contour>
      <point x="505" y="130" type="line"/>
      <point x="106" y="543" type="line"/>
      <point x="49" y="486" type="line"/>
      <point x="447" y="73" type="line"/>
    </contour>
  </outline>
</glyph>
<glyph name="Uacute" format="1">
  <advance width="573"/>
  <unicode hex="00DA"/>
  <outline>
    <contour>
      <point x="79" y="722" type="curve"/>
      <point x="79" y="584"/>
      <point x="79" y="409"/>
      <point x="79" y="271" type="curve"/>
      <point x="79" y="103"/>
      <point x="130" y="-5"/>
      <point x="284" y="-5" type="curve"/>
      <point x="439" y="-5"/>
      <point x="493" y="105"/>
      <point x="493" y="276" type="curve"/>
      <point x="493" y="413"/>
      <point x="493" y="585"/>
      <point x="493" y="722" type="curve"/>
      <point x="403" y="722"/>
      <point x="494" y="722"/>
      <point x="403" y="722" type="curve"/>
      <point x="403" y="580"/>
      <point x="403" y="406"/>
      <point x="403" y="265" type="curve"/>
      <point x="403" y="161"/>
      <point x="378" y="81"/>
      <point x="291" y="81" type="curve"/>
      <point x="188" y="81"/>
      <point x="170" y="168"/>
      <point x="170" y="287" type="curve"/>
      <point x="170" y="420"/>
      <point x="170" y="589"/>
      <point x="170" y="722" type="curve"/>
      <point x="79" y="722"/>
      <point x="170" y="722"/>
    </contour>
    <contour>
      <point x="334" y="795" type="line"/>
      <point x="427" y="961" type="line"/>
      <point x="307" y="961" type="line"/>
      <point x="241" y="795" type="line"/>
    </contour>
  </outline>
</glyph>
<glyph name="Ucircumflex" format="1">
  <advance width="573"/>
  <unicode hex="00DB"/>
  <outline>
    <contour>
      <point x="79" y="722" type="curve"/>
      <point x="79" y="584"/>
      <point x="79" y="409"/>
      <point x="79" y="271" type="curve"/>
      <point x="79" y="103"/>
      <point x="130" y="-5"/>
      <point x="284" y="-5" type="curve"/>
      <point x="439" y="-5"/>
      <point x="493" y="105"/>
      <point x="493" y="276" type="curve"/>
      <point x="493" y="413"/>
      <point x="493" y="585"/>
      <point x="493" y="722" type="curve"/>
      <point x="403" y="722"/>
      <point x="494" y="722"/>
      <point x="403" y="722" type="curve"/>
      <point x="403" y="580"/>
      <point x="403" y="406"/>
      <point x="403" y="265" type="curve"/>
      <point x="403" y="161"/>
      <point x="378" y="81"/>
      <point x="291" y="81" type="curve"/>
      <point x="188" y="81"/>
      <point x="170" y="168"/>
      <point x="170" y="287" type="curve"/>
      <point x="170" y="420"/>
      <point x="170" y="589"/>
      <point x="170" y="722" type="curve"/>
      <point x="79" y="722"/>
      <point x="170" y="722"/>
    </contour>
    <contour>
      <point x="238" y="796" type="line"/>
      <point x="330" y="962" type="line"/>
      <point x="210" y="962" type="line"/>
      <point x="145" y="796" type="line"/>
    </contour>
    <contour>
      <point x="434" y="796" type="line"/>
      <point x="369" y="962" type="line"/>
      <point x="250" y="962" type="line"/>
      <point x="342" y="796" type="line"/>
    </contour>
  </outline>
</glyph>
<glyph name="Udieresis" format="1">
  <advance width="573"/>
  <unicode hex="00DC"/>
  <outline>
    <contour>
      <point x="79" y="722" type="curve"/>
      <point x="79" y="584"/>
      <point x="79" y="409"/>
      <point x="79" y="271" type="curve"/>
      <point x="79" y="103"/>
      <point x="130" y="-5"/>
      <point x="284" y="-5" type="curve"/>
      <point x="439" y="-5"/>
      <point x="493" y="105"/>
      <point x="493" y="276" type="curve"/>
      <point x="493" y="413"/>
      <point x="493" y="585"/>
      <point x="493" y="722" type="curve"/>
      <point x="403" y="722"/>
      <point x="494" y="722"/>
      <point x="403" y="722" type="curve"/>
      <point x="403" y="580"/>
      <point x="403" y="406"/>
      <point x="403" y="265" type="curve"/>
      <point x="403" y="161"/>
      <point x="378" y="81"/>
      <point x="291" y="81" type="curve"/>
      <point x="188" y="81"/>
      <point x="170" y="168"/>
      <point x="170" y="287" type="curve"/>
      <point x="170" y="420"/>
      <point x="170" y="589"/>
      <point x="170" y="722" type="curve"/>
      <point x="79" y="722"/>
      <point x="170" y="722"/>
    </contour>
    <contour>
      <point x="266" y="842" type="curve"/>
      <point x="266" y="876"/>
      <point x="244" y="894"/>
      <point x="214" y="894" type="curve"/>
      <point x="183" y="894"/>
      <point x="163" y="875"/>
      <point x="163" y="842" type="curve"/>
      <point x="268" y="842"/>
      <point x="161" y="842"/>
      <point x="266" y="842" type="curve"/>
      <point x="266" y="807"/>
      <point x="245" y="791"/>
      <point x="214" y="791" type="curve"/>
      <point x="182" y="791"/>
      <point x="163" y="808"/>
      <point x="163" y="842" type="curve"/>
      <point x="268" y="842"/>
      <point x="161" y="842"/>
    </contour>
    <contour>
      <point x="417" y="842" type="curve"/>
      <point x="417" y="876"/>
      <point x="395" y="894"/>
      <point x="364" y="894" type="curve"/>
      <point x="333" y="894"/>
      <point x="313" y="875"/>
      <point x="313" y="842" type="curve"/>
      <point x="418" y="842"/>
      <point x="312" y="842"/>
      <point x="417" y="842" type="curve"/>
      <point x="417" y="807"/>
      <point x="395" y="791"/>
      <point x="364" y="791" type="curve"/>
      <point x="333" y="791"/>
      <point x="313" y="808"/>
      <point x="313" y="842" type="curve"/>
      <point x="418" y="842"/>
      <point x="312" y="842"/>
    </contour>
  </outline>
</glyph>
